<svg width="600" height="600" viewBox="0 0 600 600" fill="none" xmlns="http://www.w3.org/2000/svg">
<path d="M300.1 349.2C290.2 349.2 281.7 344.1 277.5 336.6C276.7 335.1 274.9 335.9 274.9 337.9C274.9 337.9 274.9 337.9 274.9 338C274.9 350.6 286.2 360.8 300.1 360.8C314 360.8 325.3 350.6 325.3 338C325.3 338 325.3 338 325.3 337.9C325.3 335.9 323.5 335.1 322.7 336.6C318.5 344 310 349.2 300.1 349.2Z" fill="black"/>
<path d="M224.4 270.4C241.134 270.4 254.7 269.281 254.7 267.9C254.7 266.52 241.134 265.4 224.4 265.4C207.666 265.4 194.1 266.52 194.1 267.9C194.1 269.281 207.666 270.4 224.4 270.4Z" fill="black"/>
<path d="M375.1 270.4C391.834 270.4 405.4 269.281 405.4 267.9C405.4 266.52 391.834 265.4 375.1 265.4C358.366 265.4 344.8 266.52 344.8 267.9C344.8 269.281 358.366 270.4 375.1 270.4Z" fill="black"/>
</svg>
