<svg width="600" height="600" viewBox="0 0 600 600" fill="none" xmlns="http://www.w3.org/2000/svg">
<path d="M364.8 293.8C364.4 293.6 363.8 293.4 363.3 293.2C363.5 293.2 363.9 293.4 364.8 293.8Z" fill="black"/>
<path d="M337.2 381H262.9C260.8 381 259.2 379.1 259.5 377L267.1 334.2C267.4 332.6 268.8 331.3 270.5 331.3H329.7C331.4 331.3 332.8 332.5 333.1 334.2L340.7 377C340.9 379.1 339.3 381 337.2 381Z" fill="black"/>
<path d="M210.6 301.8C210.2 301.6 209.6 301.4 209.1 301.2C209.2 301.2 209.7 301.4 210.6 301.8Z" fill="black"/>
<path d="M190.3 276.2C190.3 276.2 225.8 273.7 242.2 276.2C242.2 276.2 198.4 278.9 190.3 276.2Z" fill="black"/>
<path d="M250.9 269.2C246.8 268.3 242.6 267.7 238.3 267.3C242.1 267.1 245.7 266.9 248.9 266.4C248.9 266.4 233 262.7 215.7 264.2C210.4 263.5 199 262.6 186.8 265.7C186.8 265.7 194.5 265.2 206.9 265.4C205.4 265.7 203.9 266 202.5 266.4C202.5 266.4 204.5 266.6 207.6 266.7C193.5 267.4 183.2 269.1 183.2 269.1C187 269.7 199.1 270.2 212.2 270.4C203.5 271.2 197.5 272.4 197.5 272.4L251.2 273.5C247.7 272.2 243.8 271.4 239.9 270.8C248.3 270.9 254.2 270.9 254.2 270.9C254.2 270.9 280.5 275.5 250.9 269.2Z" fill="black"/>
<path d="M210.6 262.6C210.6 262.6 238.8 261.2 252.2 263.8C252.2 263.9 225.7 256.9 210.6 262.6Z" fill="black"/>
<path d="M362.4 301.8C362 301.6 361.4 301.4 360.9 301.2C360.9 301.2 361.5 301.4 362.4 301.8Z" fill="black"/>
<path d="M342.1 276.2C342.1 276.2 377.6 273.7 394 276.2C394 276.2 350.2 278.9 342.1 276.2Z" fill="black"/>
<path d="M402.7 269.2C398.6 268.3 394.4 267.7 390.1 267.3C393.9 267.1 397.5 266.9 400.7 266.4C400.7 266.4 384.8 262.7 367.5 264.2C362.2 263.5 350.8 262.6 338.6 265.7C338.6 265.7 346.3 265.2 358.7 265.4C357.2 265.7 355.7 266 354.3 266.4C354.3 266.4 356.3 266.6 359.4 266.7C345.3 267.4 335 269.1 335 269.1C338.8 269.7 350.9 270.2 364 270.4C355.3 271.2 349.3 272.4 349.3 272.4L403 273.5C399.5 272.2 395.6 271.4 391.7 270.8C400.1 270.9 406 270.9 406 270.9C406 270.9 432.3 275.5 402.7 269.2Z" fill="black"/>
<path d="M362.4 262.6C362.4 262.6 390.6 261.2 404 263.8C404 263.9 377.4 256.9 362.4 262.6Z" fill="black"/>
</svg>
