<svg width="600" height="600" viewBox="0 0 600 600" fill="none" xmlns="http://www.w3.org/2000/svg">
<path d="M327.4 362.5C316 362.5 306 349.9 300 335.9C294.1 349.9 284 362.5 272.6 362.5C267 362.5 261.8 360.3 257.1 356.4C255.3 354.9 253.4 358.1 254.8 360.1C260.1 367.5 267.1 371.9 274.7 371.9C277.9 371.9 280.9 371.1 283.8 369.7C283.7 371.2 283.7 372.7 283.8 374.2C284.7 385 291.7 393.4 299.9 393.4C308.9 393.4 316.2 383.8 316.2 371.9C316.2 371.2 316.2 370.4 316.1 369.7C319 371.1 322 371.9 325.2 371.9C332.8 371.9 339.7 367.4 345.1 360.1C346.6 358.1 344.6 354.9 342.8 356.4C338.2 360.3 332.9 362.5 327.4 362.5Z" fill="black"/>
<path d="M252.3 271.1C217 283.6 188.3 272.9 184.2 271.3C184.1 271.3 184.1 271.4 184.1 271.4C184.2 271.5 184.4 271.6 184.5 271.8C182.1 276.6 175.6 283.3 163.7 283.1C163.7 283.1 176.9 288.8 185 282.2C185 282.2 185.5 288.1 176.8 294C176.8 294 193.5 291.1 196.6 279.9C224.4 293.7 248.6 273.9 252.3 271.2C252.5 271.2 252.4 271 252.3 271.1Z" fill="black"/>
<path d="M347.7 271.1C383 283.6 411.7 272.9 415.8 271.3C415.9 271.3 415.9 271.4 415.9 271.4C415.8 271.5 415.6 271.6 415.5 271.8C417.9 276.6 424.4 283.3 436.3 283.1C436.3 283.1 423.1 288.8 415 282.2C415 282.2 414.5 288.1 423.2 294C423.2 294 406.5 291.1 403.4 279.9C375.6 293.7 351.4 273.9 347.7 271.2C347.5 271.2 347.6 271 347.7 271.1Z" fill="black"/>
</svg>
