<svg width="600" height="600" viewBox="0 0 600 600" fill="none" xmlns="http://www.w3.org/2000/svg">
<path d="M186.7 274.6C184.1 271.8 181.7 268.8 179.6 265.8C182.5 273.1 186.7 280.1 192.4 286.5C214.4 311.7 249.2 317.2 270.2 298.9L265.2 293.2C264.3 292.2 262.8 291.9 261.5 292.5C239 303.7 207.5 296.8 186.7 274.6Z" fill="black"/>
<path d="M413.4 274.6C416 271.8 418.4 268.8 420.5 265.8C417.6 273.1 413.4 280.1 407.7 286.5C385.7 311.7 350.9 317.2 329.9 298.9L334.9 293.2C335.8 292.2 337.3 291.9 338.6 292.5C361.1 303.7 392.6 296.8 413.4 274.6Z" fill="black"/>
<path d="M288.1 351.3L264.5 392.2H335.5L311.9 351.3C306.6 342.1 293.4 342.1 288.1 351.3Z" fill="black"/>
</svg>
