<svg width="600" height="600" viewBox="0 0 600 600" fill="none" xmlns="http://www.w3.org/2000/svg">
<path d="M175.5 284.1C176.1 286.4 178.3 287.9 180.6 287.4C188.9 285.8 200.1 286.2 212.1 288.9C224.1 291.6 234.4 296 241.3 300.9C243.2 302.3 245.9 301.9 247.3 300.1C213.1 274 175.5 284.1 175.5 284.1Z" fill="white"/>
<path d="M187.5 282.1C187.5 282.1 186.3 286.9 188.6 286.4C197.8 286.7 201.2 286.4 212.1 288.9C224.1 291.6 234.4 296 241.3 300.9C243.2 302.3 245.9 301.9 247.3 300.1C219.7 278.9 187.5 282.1 187.5 282.1Z" fill="black"/>
<path d="M352.7 300.1C354.1 301.9 356.8 302.3 358.7 300.9C365.6 296 375.9 291.6 387.9 288.9C399.9 286.2 411.1 285.8 419.4 287.4C421.7 287.9 423.9 286.4 424.5 284.1C424.5 284.1 386.9 273.9 352.7 300.1Z" fill="white"/>
<path d="M352.7 300.1C354.1 301.9 356.8 302.3 358.7 300.9C365.6 296 375.9 291.6 387.9 288.9C398.8 286.4 402.2 286.7 411.4 286.4C413.7 286.9 412.5 282.1 412.5 282.1C412.5 282.1 380.3 278.9 352.7 300.1Z" fill="black"/>
<path d="M300 392.7C310.935 392.7 319.8 376.985 319.8 357.6C319.8 338.215 310.935 322.5 300 322.5C289.065 322.5 280.2 338.215 280.2 357.6C280.2 376.985 289.065 392.7 300 392.7Z" fill="black"/>
</svg>
