<svg width="600" height="600" viewBox="0 0 600 600" fill="none" xmlns="http://www.w3.org/2000/svg">
<path d="M300.1 365.7C339.2 365.7 371.5 348.2 377.9 325.3C379.1 321.2 375.9 316.9 371.5 316.9H228.5C224.2 316.9 221 321 222.2 325.3C228.6 348.3 261 365.7 300.1 365.7Z" fill="black"/>
<path d="M196.4 303.3C207.9 303.3 217.3 300.5 217.3 297.1C217.3 293.7 208 290.9 196.4 290.9C184.8 290.9 175.6 293.7 175.6 297.1C175.6 300.5 184.9 303.3 196.4 303.3Z" fill="#FF4D4D"/>
<path d="M361.7 262.3C361.7 262.3 356.7 259 388.5 273.1C388.5 273.1 420 287.1 429.7 292.7C429.7 292.7 439.7 298.4 405.4 283.1C405.4 283.1 365.1 265 361.7 262.3Z" fill="black"/>
<path d="M194.7 283.1C160.4 298.4 170.4 292.7 170.4 292.7C180.1 287.1 211.6 273.1 211.6 273.1C243.3 259 238.4 262.3 238.4 262.3C235 265 194.7 283.1 194.7 283.1Z" fill="black"/>
<path d="M403.7 303.3C415.2 303.3 424.6 300.5 424.6 297.1C424.6 293.7 415.3 290.9 403.7 290.9C392.2 290.9 382.8 293.7 382.8 297.1C382.8 300.5 392.2 303.3 403.7 303.3Z" fill="#FF4D4D"/>
</svg>
