<svg width="600" height="600" viewBox="0 0 600 600" fill="none" xmlns="http://www.w3.org/2000/svg">
<path d="M343.8 347.4C339.9 348.3 336.1 347.8 333.4 345.5C330.7 343.2 329.5 339.7 329.7 335.6C329.7 335 328.9 334.7 328.6 335.3C326.7 339.6 326.5 344 328.1 347.1C320.6 354.6 310 359.4 298.3 359.4C285.7 359.4 274.4 354 266.8 345.4C266.5 345.1 265.9 345.4 266.1 345.8C269.8 359.5 282.8 369.7 298.3 369.7C312.6 369.7 324.7 361.1 329.5 349C329.7 349.2 329.9 349.3 330 349.5C333.5 352.4 339.2 351.8 344.2 348.4C344.8 348.1 344.4 347.3 343.8 347.4Z" fill="black"/>
<path d="M227.8 263.8C196 278.5 170.5 263.8 170.5 263.8C175.3 268.7 180.1 272 184.8 274C177.7 271.7 173.5 268.5 173.5 268.5C199.2 299.1 224.9 268.5 224.9 268.5C219.8 271.5 215 273.4 210.4 274.6C220.9 270.9 227.8 263.8 227.8 263.8Z" fill="black"/>
<path d="M429.5 263.8C397.7 278.5 372.2 263.8 372.2 263.8C377 268.7 381.8 272 386.5 274C379.4 271.7 375.2 268.5 375.2 268.5C400.9 299.1 426.6 268.5 426.6 268.5C421.5 271.5 416.7 273.4 412.1 274.6C422.5 270.9 429.5 263.8 429.5 263.8Z" fill="black"/>
</svg>
