<svg width="600" height="600" viewBox="0 0 600 600" fill="none" xmlns="http://www.w3.org/2000/svg">
<path d="M218.6 298.6C238.1 298.6 253.8 279.2 253.8 255.3C253.8 231.4 238 212 218.6 212C199.2 212 183.4 231.4 183.4 255.3C183.3 279.2 199.1 298.6 218.6 298.6Z" fill="black"/>
<path d="M381.4 298.6C400.9 298.6 416.6 279.2 416.6 255.3C416.6 231.4 400.8 212 381.4 212C362 212 346.2 231.4 346.2 255.3C346.2 279.2 362 298.6 381.4 298.6Z" fill="black"/>
<path d="M375.8 360.2C373.8 360.4 371.8 361 370 362.1C369.7 362.3 369.4 362.1 369.3 361.8C365.5 345.9 335.9 333.7 299.9 333.7C264 333.7 234.5 346 230.6 361.8C230.5 362.2 230.2 362.3 229.9 362.2C228.1 361.2 226.2 360.5 224.3 360.4C220.6 360.1 217.1 361.4 214.3 363.8C213.9 364.2 214.2 365 214.7 364.8C216.2 364.3 217.7 364 219.3 364C223.7 364 227.6 365.8 230.7 369C230.7 369 230.7 369 230.7 369.1C234.5 373 236.9 378.8 236.9 385.4C236.9 386.1 237.6 386.2 237.8 385.6C238.6 383.2 238.9 380.4 238.7 377.6C238.3 372.4 236.2 367.8 233.1 364.7C232.9 364.5 232.9 364.1 233 363.9C241.5 350.8 268.2 341.2 300 341.2C331.7 341.2 358.6 350.8 367.1 364C367.3 364.2 367.2 364.6 367 364.8C363.9 367.9 361.7 372.5 361.5 377.6C361.3 380.4 361.7 383.1 362.4 385.6C362.6 386.2 363.3 386 363.3 385.4C363.3 373.6 371.2 364.2 381 364.2C382.6 364.2 384.1 364.5 385.6 365C386.1 365.2 386.4 364.3 386 364C383 361.2 379.6 359.9 375.8 360.2Z" fill="black"/>
<path d="M218.6 287.9C213.5 287.9 208.6 287.2 204.2 286C208.4 289 213.4 290.8 218.6 290.8C223.9 290.8 228.8 289 233.1 286C228.7 287.2 223.7 287.9 218.6 287.9Z" fill="white"/>
<path d="M381.4 287.9C376.3 287.9 371.4 287.2 367 286C371.2 289 376.2 290.8 381.4 290.8C386.6 290.8 391.6 289.1 395.8 286C391.5 287.2 386.6 287.9 381.4 287.9Z" fill="white"/>
</svg>
