<svg name="body-blink-13" width="600" height="600" viewBox="0 0 600 600" fill="none" xmlns="http://www.w3.org/2000/svg">
  <path
    d="M343.8 347.4C339.9 348.3 336.1 347.8 333.4 345.5C330.7 343.2 329.5 339.7 329.7 335.6C329.7 335 328.9 334.7 328.6 335.3C326.7 339.6 326.5 344 328.1 347.1C320.6 354.6 310 359.4 298.3 359.4C285.7 359.4 274.4 354 266.8 345.4C266.5 345.1 265.9 345.4 266.1 345.8C269.8 359.5 282.8 369.7 298.3 369.7C312.6 369.7 324.7 361.1 329.5 349C329.7 349.2 329.9 349.3 330 349.5C333.5 352.4 339.2 351.8 344.2 348.4C344.8 348.1 344.4 347.3 343.8 347.4Z"
    fill="black" />
  <path
    d="M242.3 262.5C206 279.3 176.9 262.5 176.9 262.5C182.4 268.1 187.8 271.9 193.2 274.1C185.1 271.5 180.3 267.8 180.3 267.8C209.6 302.7 238.9 267.8 238.9 267.8C233.1 271.2 227.6 273.4 222.4 274.8C234.5 270.6 242.3 262.5 242.3 262.5Z"
    fill="black" />
  <path
    d="M423 262.5C386.7 279.3 357.6 262.5 357.6 262.5C363.1 268.1 368.5 271.9 373.9 274.1C365.8 271.5 361 267.8 361 267.8C390.3 302.7 419.6 267.8 419.6 267.8C413.8 271.2 408.3 273.4 403.1 274.8C415 270.6 423 262.5 423 262.5Z"
    fill="black" />
</svg>