<svg name="body-blink-14" width="600" height="600" viewBox="0 0 600 600" fill="none" xmlns="http://www.w3.org/2000/svg">
  <path
    d="M248.2 323.5C248.2 323.5 295.4 323.5 351.9 323.5C351.9 323.5 351.7 382.8 300.1 384.3C300 384.3 247.9 385.5 248.2 323.5Z"
    fill="black" />
  <path d="M268.7 323.5L260.3 342.5C260.1 342.9 259.5 343 259.3 342.5L249.2 323.4C249.2 323.5 258.3 323.5 268.7 323.5Z"
    fill="white" />
  <path d="M331.3 323.5L339.7 342.5C339.9 342.9 340.5 343 340.7 342.5L350.8 323.4C350.8 323.5 341.7 323.5 331.3 323.5Z"
    fill="white" />
  <path
    d="M211.8 275.2C201.8 275.2 192.7 272 186 266.9C186.8 268.7 187.8 270.4 189 271.9C186.1 274.5 179 279.5 168.6 277.9C168.6 277.9 179.9 284.3 194.3 277.4C199.2 281.3 205.3 283.6 211.9 283.6C223.3 283.6 233.1 276.8 237.8 266.9C230.9 272.1 221.8 275.2 211.8 275.2Z"
    fill="black" />
  <path
    d="M388.2 275.2C398.2 275.2 407.3 272 414 266.9C413.2 268.7 412.2 270.4 411 271.9C413.9 274.5 421 279.5 431.4 277.9C431.4 277.9 420.1 284.3 405.7 277.4C400.8 281.3 394.7 283.6 388.1 283.6C376.7 283.6 366.9 276.8 362.2 266.9C369.1 272.1 378.2 275.2 388.2 275.2Z"
    fill="black" />
</svg>