<svg width="600" height="600" viewBox="0 0 600 600" fill="none" xmlns="http://www.w3.org/2000/svg">
<path d="M300.1 394.9C337 394.9 366.9 375.5 366.9 351.6C366.9 327.7 337 308.3 300.1 308.3C263.2 308.3 233.3 327.7 233.3 351.6C233.3 375.5 263.2 394.9 300.1 394.9Z" fill="white"/>
<path d="M355.1 327L342.6 339C341.2 340.3 338.6 340 337.8 338.4L326 311.7C318.1 309.5 309.3 308.3 300.1 308.3C290.9 308.3 282.1 309.5 274.1 311.7L262.2 338.3C261.5 339.9 258.8 340.3 257.4 338.9L244.9 327C237.5 334 233.2 342.3 233.2 351.4C233.2 375.3 263.2 394.7 300 394.7C336.8 394.7 366.8 375.3 366.8 351.4C366.8 342.5 362.5 334 355.1 327Z" fill="black"/>
<path d="M211.8 275.2C201.8 275.2 192.7 272 186 266.9C186.8 268.7 187.8 270.4 189 271.9C186.1 274.5 179 279.5 168.6 277.9C168.6 277.9 179.9 284.3 194.3 277.4C199.2 281.3 205.3 283.6 211.9 283.6C223.3 283.6 233.1 276.8 237.8 266.9C230.9 272.1 221.8 275.2 211.8 275.2Z" fill="black"/>
<path d="M388.2 275.2C398.2 275.2 407.3 272 414 266.9C413.2 268.7 412.2 270.4 411 271.9C413.9 274.5 421 279.5 431.4 277.9C431.4 277.9 420.1 284.3 405.7 277.4C400.8 281.3 394.7 283.6 388.1 283.6C376.7 283.6 366.9 276.8 362.2 266.9C369.1 272.1 378.2 275.2 388.2 275.2Z" fill="black"/>
</svg>
