<svg width="600" height="600" viewBox="0 0 600 600" fill="none" xmlns="http://www.w3.org/2000/svg">
<path d="M300.1 393.3C330.5 393.3 355.1 373.9 355.1 350C355.1 326.1 330.5 306.7 300.1 306.7C269.7 306.7 245.1 326.1 245.1 350C245 374 269.7 393.3 300.1 393.3Z" fill="#FF4040"/>
<path d="M300.1 347.6C321.2 347.6 339.4 356.9 348.7 370.6C352.8 364.6 355.2 357.6 355.2 350.2C355.2 326.3 330.5 306.9 300.2 306.9C269.8 306.9 245.2 326.3 245.2 350.2C245.2 357.6 247.5 364.5 251.7 370.6C260.7 356.8 279 347.6 300.1 347.6Z" fill="black"/>
<path d="M243.7 261C243.7 261 232.4 224.9 191 241.3C190.7 241.4 190.8 241.8 191.3 241.8C195.5 241.2 203.5 240.6 212.5 242C212.5 242 225 243.6 231.8 257C231.8 257 217.4 243.6 193.2 256.1C193.2 256.1 214.3 249.2 232.7 264.6C232.7 264.6 220.4 259.1 201.8 268.4C201.8 268.4 224.5 263 236.7 271C236.7 271 218.3 266.4 197.8 278.8C197.8 278.8 222.6 267.7 243.8 275.9C244.4 276.1 245 275.8 245.2 275.2C245.4 272.9 245.9 267.9 243.7 261Z" fill="black"/>
<path d="M364.1 229.1C368.2 229.8 376.1 231.6 384.2 235.8C384.5 236 384.4 236.5 384 236.4C382.4 236.2 380.9 236.1 379.2 236.2C363.4 236.7 351.3 250.2 352.1 266C352.9 280.9 365.5 292.6 380.5 292.5C396.4 292.3 408.9 279.1 408.2 263.4C408.2 263.4 408.4 225.6 364 228.6C363.8 228.5 363.7 229.1 364.1 229.1Z" fill="black"/>
<path d="M388.1 248.9L391.2 254.2L397.2 255.6C398.4 255.9 398.9 257.3 398 258.2L394 262.8L394.6 268.9C394.7 270.2 393.4 271 392.4 270.6L386.8 268.2L381.2 270.6C380 271.1 378.8 270.2 379 268.9L379.6 262.8L375.6 258.2C374.8 257.2 375.3 255.8 376.4 255.6L382.4 254.2L385.5 248.9C386 247.7 387.5 247.7 388.1 248.9Z" fill="white"/>
</svg>
