<svg width="600" height="600" viewBox="0 0 600 600" fill="none" xmlns="http://www.w3.org/2000/svg">
<path d="M300.1 393.3C330.5 393.3 355.1 373.9 355.1 350C355.1 326.1 330.5 306.7 300.1 306.7C269.7 306.7 245.1 326.1 245.1 350C245 374 269.7 393.3 300.1 393.3Z" fill="#FF4040"/>
<path d="M300.1 347.6C321.2 347.6 339.4 356.9 348.7 370.6C352.8 364.6 355.2 357.6 355.2 350.2C355.2 326.3 330.5 306.9 300.2 306.9C269.8 306.9 245.2 326.3 245.2 350.2C245.2 357.6 247.5 364.5 251.7 370.6C260.7 356.8 279 347.6 300.1 347.6Z" fill="black"/>
<path d="M219.3 276.6C209 276.5 200 272.4 194 266.2C198.2 275.8 207.6 282.7 218.8 283.1C220.5 283.2 222 283.1 223.6 282.9C224 282.8 224.1 283.3 223.8 283.5C215.7 287.6 207.8 289.4 203.7 290.2C203.3 290.3 203.3 290.9 203.6 290.7C233.6 292.7 243.2 276.2 246.4 265.2C240.1 272.2 230.3 276.7 219.3 276.6Z" fill="black"/>
<path d="M379.7 278.2C369.4 278.1 360.4 274 354.4 267.8C358.6 277.4 368 284.3 379.2 284.7C380.9 284.8 382.4 284.7 384 284.5C384.4 284.4 384.5 284.9 384.2 285.1C376.1 289.2 368.2 291 364.1 291.8C363.7 291.9 363.7 292.5 364 292.3C394 294.3 403.6 277.8 406.8 266.8C400.5 273.8 390.7 278.2 379.7 278.2Z" fill="black"/>
</svg>
