<svg width="600" height="600" viewBox="0 0 600 600" fill="none" xmlns="http://www.w3.org/2000/svg">
<path d="M219.3 276.6C209 276.5 200 272.4 194 266.2C198.2 275.8 207.6 282.7 218.8 283.1C220.5 283.2 222 283.1 223.6 282.9C224 282.8 224.1 283.3 223.8 283.5C215.7 287.6 207.8 289.4 203.7 290.2C203.3 290.3 203.3 290.9 203.6 290.7C233.6 292.7 243.2 276.2 246.4 265.2C240.1 272.2 230.3 276.7 219.3 276.6Z" fill="black"/>
<path d="M379.7 278.2C369.4 278.1 360.4 274 354.4 267.8C358.6 277.4 368 284.3 379.2 284.7C380.9 284.8 382.4 284.7 384 284.5C384.4 284.4 384.5 284.9 384.2 285.1C376.1 289.2 368.2 291 364.1 291.8C363.7 291.9 363.7 292.5 364 292.3C394 294.3 403.6 277.8 406.8 266.8C400.5 273.8 390.7 278.2 379.7 278.2Z" fill="black"/>
<path d="M248.1 332.101C246.3 333.101 245.1 334.901 245 336.901C245 337.401 245 337.901 245 338.501C245 362.401 269.6 381.801 300 381.801C330.4 381.801 355 362.401 355 338.501C355 337.801 355 337.201 354.9 336.501C354.8 334.401 353.6 332.601 351.8 331.601C305.8 306.901 266 322.201 248.1 332.101Z" fill="#FF4040"/>
<path d="M300 346.8C318.1 346.8 334.2 353.7 344.2 364.3C351 357.1 355 348.2 355 338.5C355 337.8 355 337.2 354.9 336.5C354.8 334.4 353.5 332.7 351.8 331.6C303.1 301.6 269 319.7 248 332C246.2 333 245 334.8 244.9 336.8C244.9 337.3 244.9 337.8 244.9 338.4C244.9 348.1 248.9 357 255.7 364.2C265.8 353.7 281.9 346.8 300 346.8Z" fill="black"/>
</svg>
