<svg name="body-blink-3" width="600" height="600" viewBox="0 0 600 600" fill="none" xmlns="http://www.w3.org/2000/svg">
  <path
    d="M226.1 351H374C381.7 351 385.3 343.6 379.5 339.7C353 321.9 292.9 294 220.8 339.6C214.7 343.4 218.2 351 226.1 351Z"
    fill="black" />
  <path
    d="M226.1 351H374C381.7 351 385.3 343.6 379.5 339.7C353 321.9 292.9 294 220.8 339.6C214.7 343.4 218.2 351 226.1 351Z"
    stroke="black" stroke-width="0.1479" stroke-miterlimit="10" />
  <path
    d="M220.491 288.288C241.345 282.684 257.89 276.801 257.446 275.148C257.002 273.495 239.736 276.697 218.883 282.301C198.029 287.905 181.484 293.788 181.928 295.441C182.372 297.094 199.638 293.892 220.491 288.288Z"
    fill="black" />
  <path
    d="M418.01 295.453C418.454 293.799 401.909 287.916 381.056 282.312C360.202 276.709 342.937 273.506 342.492 275.16C342.048 276.813 358.593 282.696 379.447 288.3C400.3 293.903 417.566 297.106 418.01 295.453Z"
    fill="black" />
</svg>