<svg width="600" height="600" viewBox="0 0 600 600" fill="none" xmlns="http://www.w3.org/2000/svg">
<path d="M259.2 270.1C273.4 238.9 270.8 207.1 253.2 199.1C235.7 191.1 209.9 209.9 195.6 241.1C181.4 272.3 184 304.1 201.6 312.1C219.2 320.1 245 301.3 259.2 270.1Z" fill="white" stroke="black" stroke-miterlimit="10"/>
<path d="M398.4 312.1C415.9 304.1 418.6 272.3 404.4 241.1C390.2 209.9 364.4 191.1 346.8 199.1C329.3 207.1 326.6 238.9 340.8 270.1C355 301.3 380.8 320.1 398.4 312.1Z" fill="white" stroke="black" stroke-miterlimit="10"/>
<path d="M302.7 418.5C319.8 418.5 333.6 397.8 333.6 372.2C333.6 346.7 319.8 325.9 302.7 325.9C285.6 325.9 271.8 346.6 271.8 372.2C271.8 397.8 285.6 418.5 302.7 418.5Z" fill="black"/>
<path d="M199.8 300.5C194.5 298.3 190.2 294.5 187.1 289.5C188.9 300.3 193.7 308.5 201.5 312C217.4 319.3 240.1 304.5 254.8 278.3C237.3 297.7 215.9 307.2 199.8 300.5Z" fill="black"/>
<path d="M400.2 300.5C405.5 298.3 409.8 294.5 412.9 289.5C411.1 300.3 406.3 308.5 398.5 312C382.6 319.3 359.9 304.5 345.2 278.3C362.7 297.7 384.1 307.2 400.2 300.5Z" fill="black"/>
</svg>
