<svg width="600" height="600" viewBox="0 0 600 600" fill="none" xmlns="http://www.w3.org/2000/svg">
<path d="M302.7 418.5C319.8 418.5 333.6 397.8 333.6 372.2C333.6 346.7 319.8 325.9 302.7 325.9C285.6 325.9 271.8 346.6 271.8 372.2C271.8 397.8 285.6 418.5 302.7 418.5Z" fill="black"/>
<path d="M199.8 300.5C194.5 298.3 190.2 294.5 187.1 289.5C188.9 300.3 193.7 308.5 201.5 312C217.4 319.3 240.1 304.5 254.8 278.3C237.3 297.7 215.9 307.2 199.8 300.5Z" fill="black"/>
<path d="M400.2 300.5C405.5 298.3 409.8 294.5 412.9 289.5C411.1 300.3 406.3 308.5 398.5 312C382.6 319.3 359.9 304.5 345.2 278.3C362.7 297.7 384.1 307.2 400.2 300.5Z" fill="black"/>
</svg>
