<svg name="body-blink-4" width="600" height="600" viewBox="0 0 600 600" fill="none" xmlns="http://www.w3.org/2000/svg">
  <path
    d="M302.7 418.5C319.8 418.5 333.6 397.8 333.6 372.2C333.6 346.7 319.8 325.9 302.7 325.9C285.6 325.9 271.8 346.6 271.8 372.2C271.8 397.8 285.6 418.5 302.7 418.5Z"
    fill="black" />
  <path
    d="M199.8 273.5C194.5 271.3 190.2 267.5 187.1 262.5C188.9 273.3 193.7 281.5 201.5 285C217.4 292.3 240.1 277.5 254.8 251.3C237.3 270.7 215.9 280.2 199.8 273.5Z"
    fill="black" />
  <path
    d="M400.2 273.5C405.5 271.3 409.8 267.5 412.9 262.5C411.1 273.3 406.3 281.5 398.5 285C382.6 292.3 359.9 277.5 345.2 251.3C362.7 270.7 384.1 280.2 400.2 273.5Z"
    fill="black" />
</svg>