<svg name="body-blink-5" width="600" height="600" viewBox="0 0 600 600" fill="none" xmlns="http://www.w3.org/2000/svg">
  <path
    d="M210.9 312.3C192.7 312.3 176.4 304.3 165.4 291.6C172.4 309.9 190.2 322.9 210.9 322.9C231.7 322.9 249.4 309.9 256.4 291.6C245.4 304.3 229.1 312.3 210.9 312.3Z"
    fill="black" />
  <path
    d="M389.1 312.3C370.9 312.3 354.6 304.3 343.6 291.6C350.6 309.9 368.4 322.9 389.1 322.9C409.9 322.9 427.6 309.9 434.6 291.6C423.5 304.3 407.2 312.3 389.1 312.3Z"
    fill="black" />
  <path d="M301.5 343.7C291.7 343.7 283.7 357.6 283.7 374.7H319.2C319.3 357.5 311.4 343.7 301.5 343.7Z" fill="black" />
</svg>