<svg name="body-blink-6" width="600" height="600" viewBox="0 0 600 600" fill="none" xmlns="http://www.w3.org/2000/svg">
  <path d="M337.3 350.1H262.8V355.9H337.3V350.1Z" fill="black" />
  <path
    d="M271.9 276.4H150.7C149.9 276.4 149.2 277.1 149.2 277.9V280.8C149.2 281.6 149.9 282.3 150.7 282.3H271.9C272.7 282.3 273.4 281.6 273.4 280.8V277.9C273.4 277.1 272.7 276.4 271.9 276.4Z"
    fill="black" />
  <path
    d="M449.3 276.4H328.1C327.3 276.4 326.6 277.1 326.6 277.9V280.8C326.6 281.6 327.3 282.3 328.1 282.3H449.3C450.1 282.3 450.8 281.6 450.8 280.8V277.9C450.8 277.1 450.1 276.4 449.3 276.4Z"
    fill="black" />
</svg>