<svg name="body-blink-7" width="600" height="600" viewBox="0 0 600 600" fill="none" xmlns="http://www.w3.org/2000/svg">
  <path
    d="M210.9 272.3C196 272.3 183.1 266.2 176.9 257.2C176.9 257.7 176.8 258.2 176.8 258.6C176.8 272 192.1 282.9 210.9 282.9C229.7 282.9 245 272 245 258.6C245 258.1 245 257.6 244.9 257.2C238.7 266.2 225.8 272.3 210.9 272.3Z"
    fill="black" />
  <path
    d="M389 272.3C374.1 272.3 361.2 266.2 355 257.2C355 257.7 354.9 258.2 354.9 258.6C354.9 272 370.2 282.9 389 282.9C407.8 282.9 423.1 272 423.1 258.6C423.1 258.1 423.1 257.6 423 257.2C416.8 266.2 403.9 272.3 389 272.3Z"
    fill="black" />
  <path
    d="M353.9 327C353.9 322.6 351.6 320.3 350.1 323.1C345.2 332.1 336.1 338.2 325.8 338.2C315.7 338.2 307 332.5 302 324C301.6 322.6 300.8 321.9 300.1 321.9C299.4 321.9 298.6 322.6 298.2 324C293.2 332.6 284.4 338.2 274.4 338.2C264 338.2 254.9 332.2 250.1 323.1C248.6 320.3 246.3 322.6 246.3 327V327.1C246.3 343.9 258.9 357.5 274.5 357.5C276.5 357.5 278.5 357.3 280.4 356.9C280.3 358 280.2 359 280.2 360.1C280.2 374.2 289.2 385.7 300.2 385.7C311.2 385.7 320.2 374.3 320.2 360.1C320.2 359 320.1 358 320 356.9C321.9 357.3 323.9 357.5 325.9 357.5C341.3 357.6 353.9 343.9 353.9 327C353.9 327.1 353.9 327.1 353.9 327Z"
    fill="black" />
</svg>