<svg width="600" height="600" viewBox="0 0 600 600" fill="none" xmlns="http://www.w3.org/2000/svg">
<path d="M300.1 372.8C309.4 372.8 316.8 359.4 316.8 342.7H283.2C283.2 359.3 290.7 372.8 300.1 372.8Z" fill="black"/>
<path d="M219.5 323.3C246 323.3 267.6 301.8 267.6 275.2C267.6 248.7 246.1 227.1 219.5 227.1C193 227.1 171.4 248.6 171.4 275.2C171.5 301.8 193 323.3 219.5 323.3Z" fill="black"/>
<path d="M219.5 312.999C204.8 312.999 191.7 307.099 183 297.699C190.5 309.999 204.1 318.099 219.5 318.099C235 318.099 248.5 309.899 256 297.699C247.3 306.999 234.2 312.999 219.5 312.999Z" fill="white"/>
<path d="M380.5 323.3C407 323.3 428.6 301.8 428.6 275.2C428.6 248.7 407.1 227.1 380.5 227.1C354 227.1 332.4 248.6 332.4 275.2C332.4 301.8 354 323.3 380.5 323.3Z" fill="black"/>
<path d="M380.5 312.999C365.8 312.999 352.7 307.099 344 297.699C351.5 309.999 365.1 318.099 380.5 318.099C396 318.099 409.5 309.899 417 297.699C408.3 306.999 395.2 312.999 380.5 312.999Z" fill="white"/>
</svg>
