<svg width="600" height="600" viewBox="0 0 600 600" fill="none" xmlns="http://www.w3.org/2000/svg">
<path d="M223.3 297.1C240.7 297.1 254.7 283 254.7 265.7C254.7 248.4 240.6 234.3 223.3 234.3C205.9 234.3 191.9 248.4 191.9 265.7C191.9 283 206 297.1 223.3 297.1Z" fill="white"/>
<path d="M374.7 297.1C392.1 297.1 406.1 283 406.1 265.7C406.1 248.4 392 234.3 374.7 234.3C357.3 234.3 343.3 248.4 343.3 265.7C343.3 283 357.3 297.1 374.7 297.1Z" fill="white"/>
<path d="M213.2 293.8C212.8 293.6 212.2 293.4 211.7 293.2C211.7 293.2 212.2 293.4 213.2 293.8Z" fill="black"/>
<path d="M232.6 297.2C256.5 294.6 258.8 262.1 258.8 262.1C257.5 266.2 256 269.9 254.5 273.2C256.5 267.6 257.7 260.8 256.1 254.3C257.4 255.8 258.7 257.4 260 259.1C260 259.1 258.4 256.1 255.4 252.1C252.5 243.7 244.7 235.9 227.8 231.1C227.8 231.1 230.6 232.3 234.1 234.6C227.1 232.1 219 231.8 210.1 236.8C215.1 233.3 221.3 230.3 229.2 228.1C229.2 228.1 203 228.5 193.3 248.4C193.6 246.3 194 244.5 194.4 243.1C200.1 235 212.1 224.7 235.1 228C235.1 228 198.1 216.5 189.8 251.9C189.8 251.9 190.6 248.9 193 245.1C191 250.2 189.9 254.8 189.4 259.1C188.3 250.7 189.2 244.3 189.2 244.3C186.4 259.8 187.8 270.8 191.4 278.5C191.7 280.1 192.1 281.8 192.7 283.5C186.7 275.2 185.7 266.2 185.7 266.2C186 278.7 189.9 286.2 195 290.8C195.1 291.2 195.2 291.4 195.2 291.4C195.1 291.2 195.1 291 195 290.8C197.8 293.2 200.8 294.7 203.8 295.7C210.1 299 221.3 302.8 232.6 297.2ZM208.3 295C207.8 294.6 207.3 294.2 206.8 293.7C210.3 295.3 213.8 296.1 217.1 296.7C213.9 296.5 210.9 295.8 208.3 295ZM218.6 297.1C218.8 297.1 219 297 219.1 297C219.3 297 219.5 297.1 219.8 297.1C219.4 297.1 219 297.1 218.6 297.1ZM245 243.7C252 251.7 257.2 263.6 250.9 279.7C248.7 283.2 246.2 285.9 243.7 288.2C244 287.8 244.3 287.4 244.7 287C244.7 287 242.1 290.1 236.9 292.8C226.6 297.9 216.7 295.1 213.1 293.8C214.3 294.2 215.4 294.6 216.5 295.1C207.7 292.6 201.8 287.7 197.7 281.9C194.7 276.1 193.4 269.9 192.8 264.2C194.1 256.4 197.5 248.1 204.9 241.1C213.5 235.7 228 231 245 243.7ZM193.5 284.5C193.3 283.4 193.1 282.4 192.9 281.2C195.5 286 199.1 289.2 203.1 291.7C204.7 293 206.2 293.9 207.3 294.6C201 292.3 196.5 288.5 193.5 284.5Z" fill="black"/>
<path d="M222.1 231C222.1 231 247.5 227.4 259 254.6C258.9 254.6 253.7 224.1 222.1 231Z" fill="black"/>
<path d="M261.2 254.6C261.2 254.6 264.8 292.4 232 299.3C232 299.2 269.8 300.4 261.2 254.6Z" fill="black"/>
<path d="M364.8 293.8C364.4 293.6 363.8 293.4 363.3 293.2C363.5 293.2 363.9 293.4 364.8 293.8Z" fill="black"/>
<path d="M384.4 297.2C408.3 294.6 410.6 262.1 410.6 262.1C409.3 266.2 407.8 269.9 406.3 273.2C408.3 267.6 409.5 260.8 407.9 254.3C409.2 255.8 410.5 257.4 411.8 259.1C411.8 259.1 410.2 256.1 407.2 252.1C404.3 243.7 396.5 235.9 379.6 231.1C379.6 231.1 382.4 232.3 385.9 234.6C378.9 232.1 370.8 231.8 361.9 236.8C366.9 233.3 373.1 230.3 381 228.1C381 228.1 354.8 228.5 345.1 248.4C345.4 246.3 345.8 244.5 346.2 243.1C351.9 235 363.9 224.7 386.9 228C386.9 228 349.9 216.5 341.6 251.9C341.6 251.9 342.4 248.9 344.8 245.1C342.8 250.2 341.7 254.8 341.2 259.1C340.1 250.7 341 244.3 341 244.3C338.2 259.8 339.6 270.8 343.2 278.5C343.5 280.1 343.9 281.8 344.5 283.5C338.5 275.2 337.5 266.2 337.5 266.2C337.8 278.7 341.7 286.2 346.8 290.8C346.9 291.2 347 291.4 347 291.4C346.9 291.2 346.9 291 346.8 290.8C349.6 293.2 352.6 294.7 355.6 295.7C361.9 299 373.1 302.8 384.4 297.2ZM360.1 295C359.6 294.6 359.1 294.2 358.6 293.7C362.1 295.3 365.6 296.1 368.9 296.7C365.7 296.5 362.7 295.8 360.1 295ZM370.3 297.1C370.5 297.1 370.7 297 370.8 297C371 297 371.2 297.1 371.5 297.1C371.2 297.1 370.8 297.1 370.3 297.1ZM396.8 243.7C403.8 251.7 409 263.6 402.7 279.7C400.5 283.2 398 285.9 395.5 288.2C395.8 287.8 396.1 287.4 396.5 287C396.5 287 393.9 290.1 388.7 292.8C378.4 297.9 368.5 295.1 364.9 293.8C366.1 294.2 367.2 294.6 368.3 295.1C359.5 292.6 353.6 287.7 349.5 281.9C346.5 276.1 345.2 269.9 344.6 264.2C345.9 256.4 349.3 248.1 356.7 241.1C365.2 235.7 379.8 231 396.8 243.7ZM345.1 284.5C344.9 283.4 344.7 282.4 344.5 281.2C347.1 286 350.7 289.2 354.7 291.7C356.3 293 357.8 293.9 358.9 294.6C352.8 292.3 348.3 288.5 345.1 284.5Z" fill="black"/>
<path d="M373.7 231C373.7 231 399.1 227.4 410.6 254.6C410.7 254.6 405.5 224.1 373.7 231Z" fill="black"/>
<path d="M413 254.6C413 254.6 416.6 292.4 383.8 299.3C383.7 299.2 421.6 300.4 413 254.6Z" fill="black"/>
<path d="M337.2 381H262.9C260.8 381 259.2 379.1 259.5 377L267.1 334.2C267.4 332.6 268.8 331.3 270.5 331.3H329.7C331.4 331.3 332.8 332.5 333.1 334.2L340.7 377C340.9 379.1 339.3 381 337.2 381Z" fill="black"/>
<path d="M223.5 272.7C227.366 272.7 230.5 269.566 230.5 265.7C230.5 261.834 227.366 258.7 223.5 258.7C219.634 258.7 216.5 261.834 216.5 265.7C216.5 269.566 219.634 272.7 223.5 272.7Z" fill="black"/>
<path d="M375 272.7C378.866 272.7 382 269.566 382 265.7C382 261.834 378.866 258.7 375 258.7C371.134 258.7 368 261.834 368 265.7C368 269.566 371.134 272.7 375 272.7Z" fill="black"/>
</svg>
