<svg width="600" height="600" viewBox="0 0 600 600" fill="none" xmlns="http://www.w3.org/2000/svg">
<path d="M203.2 268.5L197.4 371H248.2L243.3 268.1L203.2 268.5Z" fill="white"/>
<path d="M203.2 268.5C203.2 268.5 202.9 335.2 197.4 378.2C197.4 378.2 197.5 291.8 203.2 268.5Z" fill="black"/>
<path d="M197.4 287.4C197.4 287.4 196.6 323.4 197.4 347.2C197.4 347.2 201.7 309.2 197.4 287.4Z" fill="black"/>
<path d="M204.7 276.2C204.7 276.2 200.1 346.6 200.3 367.1C200.3 367.1 207.7 278.7 207.7 268.7C207.7 268.7 206.4 272.7 204.7 276.2Z" fill="black"/>
<path d="M243.3 271.2C243.3 271.2 243 326.6 245.6 352.4C245.6 352.4 247.6 309.8 243.3 271.2Z" fill="black"/>
<path d="M243.3 268.1C243.3 268.1 245.2 345.9 248.2 381C248.2 381 251.9 295 243.3 268.1Z" fill="black"/>
<path d="M240.3 268.5C240.3 268.5 240 339.9 243.3 366C243.3 366 245.3 295.2 240.3 268.5Z" fill="black"/>
<path d="M357.1 268.5L351.4 371H402.2L397.3 268.1L357.1 268.5Z" fill="white"/>
<path d="M357.1 268.5C357.1 268.5 356.8 335.2 351.3 378.2C351.4 378.2 351.5 291.8 357.1 268.5Z" fill="black"/>
<path d="M351.4 287.4C351.4 287.4 350.6 323.4 351.4 347.2C351.4 347.2 355.7 309.2 351.4 287.4Z" fill="black"/>
<path d="M358.7 276.2C358.7 276.2 354.1 346.6 354.3 367.1C354.3 367.1 361.7 278.7 361.7 268.7C361.7 268.7 360.4 272.7 358.7 276.2Z" fill="black"/>
<path d="M397.3 271.2C397.3 271.2 397 326.6 399.6 352.4C399.6 352.4 401.6 309.8 397.3 271.2Z" fill="black"/>
<path d="M397.3 268.1C397.3 268.1 399.2 345.9 402.2 381C402.2 381 405.9 295 397.3 268.1Z" fill="black"/>
<path d="M394.3 268.5C394.3 268.5 394 339.9 397.3 366C397.3 366 399.3 295.2 394.3 268.5Z" fill="black"/>
<path d="M364.8 293.8C364.4 293.6 363.8 293.4 363.3 293.2C363.5 293.2 363.9 293.4 364.8 293.8Z" fill="black"/>
<path d="M337.2 381H262.9C260.8 381 259.2 379.1 259.5 377L267.1 334.2C267.4 332.6 268.8 331.3 270.5 331.3H329.7C331.4 331.3 332.8 332.5 333.1 334.2L340.7 377C340.9 379.1 339.3 381 337.2 381Z" fill="black"/>
<path d="M202.7 301.8C202.1 301.6 201.2 301.4 200.4 301.2C200.6 301.2 201.3 301.4 202.7 301.8Z" fill="black"/>
<path d="M172.1 276.2C172.1 276.2 225.6 273.7 250.3 276.2C250.3 276.2 184.3 278.9 172.1 276.2Z" fill="black"/>
<path d="M263.4 269.2C257.2 268.3 250.9 267.7 244.4 267.3C250.1 267.1 255.6 266.9 260.4 266.4C260.4 266.4 236.4 262.7 210.4 264.2C202.4 263.5 185.2 262.6 166.8 265.7C166.8 265.7 178.4 265.2 197.1 265.4C194.8 265.7 192.6 266 190.5 266.4C190.5 266.4 193.5 266.6 198.2 266.7C176.9 267.4 161.4 269.1 161.4 269.1C167.1 269.7 185.4 270.2 205.1 270.4C192 271.2 182.9 272.4 182.9 272.4L263.8 273.5C258.5 272.2 252.6 271.4 246.8 270.8C259.5 270.9 268.4 270.9 268.4 270.9C268.4 270.9 308 275.5 263.4 269.2Z" fill="black"/>
<path d="M202.7 262.6C202.7 262.6 245.2 261.2 265.4 263.8C265.4 263.9 225.4 256.9 202.7 262.6Z" fill="black"/>
<path d="M356.7 301.8C356.1 301.6 355.2 301.4 354.4 301.2C354.6 301.2 355.3 301.4 356.7 301.8Z" fill="black"/>
<path d="M326.1 276.2C326.1 276.2 379.6 273.7 404.3 276.2C404.3 276.2 338.3 278.9 326.1 276.2Z" fill="black"/>
<path d="M417.4 269.2C411.2 268.3 404.9 267.7 398.4 267.3C404.1 267.1 409.6 266.9 414.4 266.4C414.4 266.4 390.4 262.7 364.4 264.2C356.4 263.5 339.2 262.6 320.8 265.7C320.8 265.7 332.4 265.2 351.1 265.4C348.8 265.7 346.6 266 344.5 266.4C344.5 266.4 347.5 266.6 352.2 266.7C330.9 267.4 315.4 269.1 315.4 269.1C321.1 269.7 339.4 270.2 359.1 270.4C346 271.2 336.9 272.4 336.9 272.4L417.8 273.5C412.5 272.2 406.6 271.4 400.8 270.8C413.5 270.9 422.4 270.9 422.4 270.9C422.4 270.9 462 275.5 417.4 269.2Z" fill="black"/>
<path d="M356.7 262.6C356.7 262.6 399.2 261.2 419.4 263.8C419.4 263.9 379.4 256.9 356.7 262.6Z" fill="black"/>
</svg>
