<svg width="600" height="600" viewBox="0 0 600 600" fill="none" xmlns="http://www.w3.org/2000/svg">
<path d="M288.1 351.3L264.5 392.2H335.5L311.9 351.3C306.6 342.1 293.4 342.1 288.1 351.3Z" fill="black"/>
<path d="M192.4 286.6C214.4 311.8 249.2 317.3 270.2 299L190.4 208C169.3 226.2 170.3 261.4 192.4 286.6Z" fill="black"/>
<path d="M191.3 288.1C211.9 311.7 244.5 316.8 264.1 299.7L189.4 214.5C169.7 231.5 170.6 264.5 191.3 288.1Z" fill="white"/>
<path d="M213.1 272.4C217.905 272.4 221.8 268.505 221.8 263.7C221.8 258.895 217.905 255 213.1 255C208.295 255 204.4 258.895 204.4 263.7C204.4 268.505 208.295 272.4 213.1 272.4Z" fill="black"/>
<path d="M409.7 208L329.9 299C350.9 317.3 385.7 311.8 407.7 286.6C429.8 261.4 430.7 226.2 409.7 208Z" fill="black"/>
<path d="M410.6 214.5L336 299.7C355.6 316.8 388.2 311.7 408.8 288.1C429.5 264.5 430.3 231.5 410.6 214.5Z" fill="white"/>
<path d="M387 272.4C391.805 272.4 395.7 268.505 395.7 263.7C395.7 258.895 391.805 255 387 255C382.195 255 378.3 258.895 378.3 263.7C378.3 268.505 382.195 272.4 387 272.4Z" fill="black"/>
</svg>
