<svg width="600" height="600" viewBox="0 0 600 600" fill="none" xmlns="http://www.w3.org/2000/svg">
<path d="M316.1 369.7C319 371.1 322 371.9 325.2 371.9C332.8 371.9 339.7 367.4 345.1 360.1C346.6 358.1 344.6 354.9 342.8 356.4C338.2 360.3 332.9 362.5 327.4 362.5C317.5 362.5 308.7 353.1 302.6 341.4C301.5 339.3 298.5 339.3 297.4 341.4C291.4 353 282.5 362.5 272.6 362.5C267 362.5 261.8 360.3 257.1 356.4C255.3 354.9 253.4 358.1 254.8 360.1C260.1 367.5 267.1 371.9 274.7 371.9C277.9 371.9 280.9 371.1 283.8 369.7C283.8 369.7 291.7 365.8 297.7 357.6C298.9 356 301.2 355.9 302.5 357.4C304.9 360.5 309.3 365.2 316.1 369.7Z" fill="black"/>
<path d="M415 259.6C416.2 261.7 416.2 272.3 416.2 272.3C416.1 300.1 400.7 322.7 381.7 322.7C362.7 322.7 347.4 300 347.5 272.1C347.5 272.1 347.4 255.5 353.8 243.4L415 259.6Z" fill="black"/>
<path d="M381.8 277.601C394.3 277.601 406 275.301 416.2 271.301C416.2 271.601 416.2 272.001 416.2 272.301C416.1 300.101 400.7 322.701 381.7 322.701C362.7 322.701 347.4 300.101 347.5 272.101C347.5 271.801 347.5 271.401 347.5 271.101C357.7 275.201 369.3 277.601 381.8 277.601Z" fill="#006522"/>
<path d="M378.1 275.501C372.8 273.901 369 269.001 369.1 263.301C369.1 256.301 374.8 250.601 381.9 250.601C388.9 250.601 394.6 256.301 394.6 263.401C394.6 269.101 390.8 274.001 385.5 275.601C391.4 277.201 395.6 282.601 395.6 288.901C395.6 296.501 389.4 302.701 381.8 302.701C374.2 302.701 368 296.501 368 288.901C368 282.401 372.3 277.101 378.1 275.501Z" fill="white"/>
<path d="M346.6 238.6C382.6 257.5 415 250.5 419.7 249.4C419.8 249.4 419.8 249.5 419.8 249.5C419.7 249.6 419.4 249.7 419.3 249.9C421.1 255.4 427.1 263.6 439.9 265.3C439.9 265.3 424.8 269.4 417.2 261C417.2 261 415.7 267.3 424.2 274.9C424.2 274.9 406.7 270.2 405.1 257.7C372.5 267.1 350.2 242.2 346.6 238.7C346.4 238.7 346.6 238.5 346.6 238.6Z" fill="black"/>
<path d="M246.1 243.4C252.5 255.5 252.4 272.1 252.4 272.1C252.5 300 237.2 322.7 218.2 322.7C199.2 322.7 183.8 300.1 183.7 272.3C183.7 272.3 183.7 261.7 184.9 259.6L246.1 243.4Z" fill="black"/>
<path d="M252.4 271.101C252.4 271.401 252.4 271.801 252.4 272.101C252.5 300.101 237.2 322.701 218.2 322.701C199.2 322.701 183.8 300.101 183.7 272.301C183.7 272.001 183.7 271.601 183.7 271.301C193.9 275.301 205.6 277.601 218.1 277.601C230.6 277.601 242.2 275.201 252.4 271.101Z" fill="#006522"/>
<path d="M231.9 288.901C231.9 296.501 225.7 302.701 218.1 302.701C210.5 302.701 204.3 296.501 204.3 288.901C204.3 282.601 208.5 277.201 214.4 275.601C209.1 274.001 205.3 269.101 205.3 263.401C205.3 256.301 211 250.601 218 250.601C225.1 250.601 230.8 256.301 230.8 263.301C230.9 269.001 227.1 273.901 221.8 275.501C227.6 277.101 231.9 282.401 231.9 288.901Z" fill="white"/>
<path d="M253.2 238.7C249.6 242.2 227.4 267.1 194.7 257.7C193.1 270.2 175.6 274.9 175.6 274.9C184 267.2 182.6 261 182.6 261C174.9 269.3 159.9 265.3 159.9 265.3C172.7 263.7 178.6 255.5 180.5 249.9C180.4 249.7 180.1 249.6 180 249.5C180 249.5 180 249.4 180.1 249.4C184.8 250.5 217.2 257.5 253.2 238.6C253.3 238.5 253.4 238.7 253.2 238.7Z" fill="black"/>
</svg>
