<svg width="600" height="600" viewBox="0 0 600 600" fill="none" xmlns="http://www.w3.org/2000/svg">
<path d="M300 399.7C310.9 399.7 319.8 384 319.8 364.6C319.8 345.2 310.9 329.5 300 329.5C289.1 329.5 280.2 345.2 280.2 364.6C280.2 384 289.1 399.7 300 399.7Z" fill="black"/>
<path d="M212.1 295.9C224.1 298.6 234.4 303 241.3 307.9C243.2 309.3 245.9 308.9 247.3 307.1C252.6 300.4 256.6 292.2 258.7 282.9C264.9 255.1 251.3 228.4 228.3 223.3C205.3 218.2 181.6 236.6 175.4 264.4C173.3 273.7 173.5 282.9 175.5 291.1C176.1 293.4 178.3 294.9 180.6 294.4C188.9 292.8 200.1 293.2 212.1 295.9Z" fill="black"/>
<path d="M213.4 297.401C224.5 300.601 234 305.201 240.2 310.201C241.9 311.601 244.5 311.401 245.9 309.801C251.2 303.801 255.4 296.301 257.9 287.701C265.2 261.901 253.8 236.201 232.5 230.201C211.2 224.201 188 240.201 180.7 266.001C178.2 274.601 177.9 283.301 179.4 291.101C179.8 293.301 181.8 294.801 184 294.501C191.8 293.201 202.3 294.201 213.4 297.401Z" fill="white"/>
<path d="M219.2 279.901C224.668 279.901 229.1 275.468 229.1 270.001C229.1 264.533 224.668 260.101 219.2 260.101C213.732 260.101 209.3 264.533 209.3 270.001C209.3 275.468 213.732 279.901 219.2 279.901Z" fill="black"/>
<path d="M419.4 294.4C421.7 294.9 423.9 293.4 424.5 291.1C426.5 282.9 426.7 273.7 424.6 264.4C418.4 236.6 394.7 218.2 371.7 223.3C348.7 228.4 335.1 255.1 341.3 282.9C343.4 292.2 347.4 300.4 352.7 307.1C354.1 308.9 356.8 309.3 358.7 307.9C365.6 303 375.9 298.6 387.9 295.9C399.9 293.2 411.1 292.8 419.4 294.4Z" fill="black"/>
<path d="M416.1 294.3C418.3 294.6 420.3 293.1 420.7 290.9C422.1 283.1 421.8 274.5 419.4 265.8C412.1 240 388.9 224 367.6 230C346.3 236 334.9 261.8 342.2 287.5C344.7 296.1 348.8 303.6 354.2 309.6C355.6 311.2 358.2 311.4 359.9 310C366.1 305 375.6 300.4 386.7 297.2C397.7 294.2 408.2 293.2 416.1 294.3Z" fill="white"/>
<path d="M380.8 279.901C386.268 279.901 390.7 275.468 390.7 270.001C390.7 264.533 386.268 260.101 380.8 260.101C375.332 260.101 370.9 264.533 370.9 270.001C370.9 275.468 375.332 279.901 380.8 279.901Z" fill="black"/>
</svg>
