<svg width="600" height="600" viewBox="0 0 600 600" fill="none" xmlns="http://www.w3.org/2000/svg">
<path d="M299.9 316.9C260.8 316.9 228.5 334.4 222.1 357.3C220.9 361.4 224.1 365.7 228.5 365.7H371.5C375.8 365.7 379 361.6 377.9 357.3C371.4 334.4 339 316.9 299.9 316.9Z" fill="black"/>
<path d="M196.4 303.3C207.9 303.3 217.3 300.5 217.3 297.1C217.3 293.7 208 290.9 196.4 290.9C184.8 290.9 175.6 293.7 175.6 297.1C175.6 300.5 184.9 303.3 196.4 303.3Z" fill="#FF4D4D"/>
<path d="M403.7 303.3C415.2 303.3 424.6 300.5 424.6 297.1C424.6 293.7 415.3 290.9 403.7 290.9C392.2 290.9 382.8 293.7 382.8 297.1C382.8 300.5 392.2 303.3 403.7 303.3Z" fill="#FF4D4D"/>
<path d="M239.5 257.699C239.5 257.699 243.2 240.499 209 253.099C209 253.099 172.4 266.499 165.2 277.899C165.2 277.899 155 298.399 191.9 284.099C191.9 283.899 238.9 267.199 239.5 257.699Z" fill="black"/>
<path d="M237.6 259.3C237.6 259.3 240.9 243.3 208.1 255.6C208.1 255.6 173.1 268.7 166.3 279.3C166.3 279.3 156.8 298.5 192.2 284.5C192.1 284.5 237.2 268.2 237.6 259.3Z" fill="white"/>
<path d="M201.4 275C204.824 275 207.6 272.224 207.6 268.8C207.6 265.375 204.824 262.6 201.4 262.6C197.976 262.6 195.2 265.375 195.2 268.8C195.2 272.224 197.976 275 201.4 275Z" fill="black"/>
<path d="M408 284C444.9 298.3 434.7 277.8 434.7 277.8C427.6 266.5 391 253 391 253C356.8 240.4 360.5 257.6 360.5 257.6C361.1 267.2 408.1 283.9 408 284Z" fill="black"/>
<path d="M407.8 284.599C443.2 298.499 433.7 279.399 433.7 279.399C427 268.799 391.9 255.699 391.9 255.699C359.2 243.399 362.4 259.399 362.4 259.399C362.8 268.199 407.9 284.499 407.8 284.599Z" fill="white"/>
<path d="M398.6 275C402.024 275 404.8 272.224 404.8 268.8C404.8 265.375 402.024 262.6 398.6 262.6C395.176 262.6 392.4 265.375 392.4 268.8C392.4 272.224 395.176 275 398.6 275Z" fill="black"/>
</svg>
