<svg name="body-shot-12" width="600" height="600" viewBox="0 0 600 600" fill="none" xmlns="http://www.w3.org/2000/svg">
  <path
    d="M299.9 312.4C253.7 312.4 215.4 333.1 207.9 360.2C206.5 365 210.3 370.1 215.5 370.1H384.6C389.7 370.1 393.5 365.3 392.2 360.2C384.5 333.1 346.1 312.4 299.9 312.4Z"
    fill="black" />
  <path
    d="M183.6 308.2C200.6 308.2 214.4 304.1 214.4 299.1C214.4 294.1 200.7 290 183.6 290C166.5 290 152.9 294.1 152.9 299.1C153 304.1 166.7 308.2 183.6 308.2Z"
    fill="#FF4D4D" />
  <path
    d="M416.4 308.2C433.4 308.2 447.2 304.1 447.2 299.1C447.2 294.1 433.5 290 416.4 290C399.4 290 385.6 294.1 385.6 299.1C385.6 304.1 399.5 308.2 416.4 308.2Z"
    fill="#FF4D4D" />
  <path
    d="M404.7 281.7C444.1 303.7 433.5 273.5 433.5 273.5C426 256.7 387 236 387 236C350.6 216.5 354.2 241.9 354.2 241.9C354.6 255.6 404.8 281.5 404.7 281.7Z"
    fill="white" />
  <path
    d="M394.5 268.5C400.134 268.5 404.7 263.933 404.7 258.3C404.7 252.666 400.134 248.1 394.5 248.1C388.867 248.1 384.3 252.666 384.3 258.3C384.3 263.933 388.867 268.5 394.5 268.5Z"
    fill="black" />
  <path
    d="M246.1 241.8C246.1 241.8 249.7 216.4 213.3 235.9C213.3 235.9 174.2 256.6 166.8 273.4C166.8 273.4 156.2 303.7 195.6 281.6C195.4 281.5 245.6 255.6 246.1 241.8Z"
    fill="white" />
  <path
    d="M205.8 268.501C211.433 268.501 216 263.934 216 258.301C216 252.667 211.433 248.101 205.8 248.101C200.167 248.101 195.6 252.667 195.6 258.301C195.6 263.934 200.167 268.501 205.8 268.501Z"
    fill="black" />
</svg>