<svg width="600" height="600" viewBox="0 0 600 600" fill="none" xmlns="http://www.w3.org/2000/svg">
<path d="M299.9 312.4C253.7 312.4 215.4 333.1 207.9 360.2C206.5 365 210.3 370.1 215.5 370.1H384.6C389.7 370.1 393.5 365.3 392.2 360.2C384.5 333.1 346.1 312.4 299.9 312.4Z" fill="black"/>
<path d="M183.6 308.2C200.6 308.2 214.4 304.1 214.4 299.1C214.4 294.1 200.7 290 183.6 290C166.5 290 152.9 294.1 152.9 299.1C153 304.1 166.7 308.2 183.6 308.2Z" fill="#FF4D4D"/>
<path d="M416.4 308.2C433.4 308.2 447.2 304.1 447.2 299.1C447.2 294.1 433.5 290 416.4 290C399.4 290 385.6 294.1 385.6 299.1C385.6 304.1 399.5 308.2 416.4 308.2Z" fill="#FF4D4D"/>
<path d="M239.5 244.2C239.5 244.2 243.2 219.7 209 237.7C209 237.7 172.4 256.8 165.2 273C165.2 273 155 302.2 191.9 281.8C191.9 281.5 238.9 257.7 239.5 244.2Z" fill="black"/>
<path d="M237.6 246.5C237.6 246.5 240.9 223.7 208.1 241.2C208.1 241.2 173.1 259.8 166.3 274.9C166.3 274.9 156.8 302.2 192.2 282.3C192.1 282.3 237.2 259.1 237.6 246.5Z" fill="white"/>
<path d="M201.4 267.5C205.542 267.5 208.9 264.142 208.9 260C208.9 255.858 205.542 252.5 201.4 252.5C197.258 252.5 193.9 255.858 193.9 260C193.9 264.142 197.258 267.5 201.4 267.5Z" fill="black"/>
<path d="M408 281.601C444.9 301.9 434.7 272.8 434.7 272.8C427.6 256.7 391 237.5 391 237.5C356.8 219.6 360.5 244 360.5 244C361.1 257.7 408.1 281.501 408 281.601Z" fill="black"/>
<path d="M407.8 282.5C443.2 302.3 433.7 275.1 433.7 275.1C427 260 391.9 241.4 391.9 241.4C359.2 223.9 362.4 246.7 362.4 246.7C362.8 259.1 407.9 282.3 407.8 282.5Z" fill="white"/>
<path d="M398.6 267.5C402.742 267.5 406.1 264.142 406.1 260C406.1 255.858 402.742 252.5 398.6 252.5C394.458 252.5 391.1 255.858 391.1 260C391.1 264.142 394.458 267.5 398.6 267.5Z" fill="black"/>
</svg>
