<svg width="600" height="600" viewBox="0 0 600 600" fill="none" xmlns="http://www.w3.org/2000/svg">
<path d="M300 355.9C313.2 355.9 324.8 363.5 331.8 375.1C329.6 357 316.2 343.2 300 343.2C283.8 343.2 270.4 357.1 268.2 375.1C275.2 363.5 286.8 355.9 300 355.9Z" fill="black"/>
<path d="M173.4 225.1C173.4 225.1 208.6 196 246.5 225.1C246.4 225.1 210.5 217.6 173.4 225.1Z" fill="black"/>
<path d="M225.7 298.501H194.1C185.6 298.501 178.6 291.501 178.6 283.001V244.301C178.6 235.801 185.6 228.801 194.1 228.801H225.7C234.2 228.801 241.2 235.801 241.2 244.301V283.001C241.2 291.501 234.2 298.501 225.7 298.501Z" fill="black"/>
<path d="M217.7 259.1H210.5C206.9 259.1 203.9 256.1 203.9 252.5V245.3C203.9 241.7 206.9 238.7 210.5 238.7H217.7C221.3 238.7 224.3 241.7 224.3 245.3V252.5C224.3 256.2 221.3 259.1 217.7 259.1Z" fill="white"/>
<path d="M197.4 283.6H194.2C192.5 283.6 191.1 282.2 191.1 280.5V277.3C191.1 275.6 192.5 274.2 194.2 274.2H197.4C199.1 274.2 200.5 275.6 200.5 277.3V280.5C200.5 282.2 199.1 283.6 197.4 283.6Z" fill="white"/>
<path d="M225 274.7L230.8 275.5C231.8 275.6 232.1 277 231.2 277.5L226.2 280.7L225.4 286.5C225.3 287.5 223.9 287.8 223.4 286.9L220.2 281.9L214.4 281.1C213.4 281 213.1 279.6 214 279.1L219 275.9L219.8 270.1C219.9 269.1 221.3 268.8 221.8 269.7L225 274.7Z" fill="#B58A00"/>
<path d="M353.5 225.1C353.5 225.1 388.7 196 426.6 225.1C426.5 225.1 390.6 217.6 353.5 225.1Z" fill="black"/>
<path d="M405.8 298.501H374.2C365.7 298.501 358.7 291.501 358.7 283.001V244.301C358.7 235.801 365.7 228.801 374.2 228.801H405.8C414.3 228.801 421.3 235.801 421.3 244.301V283.001C421.3 291.501 414.3 298.501 405.8 298.501Z" fill="black"/>
<path d="M397.8 259.1H390.6C387 259.1 384 256.1 384 252.5V245.3C384 241.7 387 238.7 390.6 238.7H397.8C401.4 238.7 404.4 241.7 404.4 245.3V252.5C404.4 256.2 401.4 259.1 397.8 259.1Z" fill="white"/>
<path d="M377.5 283.6H374.3C372.6 283.6 371.2 282.2 371.2 280.5V277.3C371.2 275.6 372.6 274.2 374.3 274.2H377.5C379.2 274.2 380.6 275.6 380.6 277.3V280.5C380.6 282.2 379.2 283.6 377.5 283.6Z" fill="white"/>
<path d="M405.1 274.7L410.9 275.5C411.9 275.6 412.2 277 411.3 277.5L406.3 280.7L405.5 286.5C405.4 287.5 404 287.8 403.5 286.9L400.3 281.9L394.5 281.1C393.5 281 393.2 279.6 394.1 279.1L399.1 275.9L399.9 270.1C400 269.1 401.4 268.8 401.9 269.7L405.1 274.7Z" fill="#B58A00"/>
</svg>
