<svg width="600" height="600" viewBox="0 0 600 600" fill="none" xmlns="http://www.w3.org/2000/svg">
<path d="M300 355.9C313.2 355.9 324.8 363.5 331.8 375.1C329.6 357 316.2 343.2 300 343.2C283.8 343.2 270.4 357.1 268.2 375.1C275.2 363.5 286.8 355.9 300 355.9Z" fill="black"/>
<path d="M162.7 230.5C162.7 230.5 197.9 201.4 235.8 230.5C235.7 230.5 199.8 223 162.7 230.5Z" fill="black"/>
<path d="M215 303.9H183.4C174.9 303.9 167.9 296.9 167.9 288.4V249.7C167.9 241.2 174.9 234.2 183.4 234.2H215C223.5 234.2 230.5 241.2 230.5 249.7V288.4C230.5 296.9 223.5 303.9 215 303.9Z" fill="black"/>
<path d="M207 264.5H199.8C196.2 264.5 193.2 261.5 193.2 257.9V250.7C193.2 247.1 196.2 244.1 199.8 244.1H207C210.6 244.1 213.6 247.1 213.6 250.7V257.9C213.6 261.6 210.6 264.5 207 264.5Z" fill="white"/>
<path d="M186.7 289H183.5C181.8 289 180.4 287.6 180.4 285.9V282.7C180.4 281 181.8 279.6 183.5 279.6H186.7C188.4 279.6 189.8 281 189.8 282.7V285.9C189.8 287.6 188.4 289 186.7 289Z" fill="white"/>
<path d="M214.3 280.1L220.1 280.9C221.1 281 221.4 282.4 220.5 282.9L215.5 286.1L214.7 291.9C214.6 292.9 213.2 293.2 212.7 292.3L209.5 287.3L203.7 286.5C202.7 286.4 202.4 285 203.3 284.5L208.3 281.3L209.1 275.5C209.2 274.5 210.6 274.2 211.1 275.1L214.3 280.1Z" fill="#B58A00"/>
<path d="M364.3 230.5C364.3 230.5 399.5 201.4 437.4 230.5C437.3 230.5 401.4 223 364.3 230.5Z" fill="black"/>
<path d="M416.6 303.9H385C376.5 303.9 369.5 296.9 369.5 288.4V249.7C369.5 241.2 376.5 234.2 385 234.2H416.6C425.1 234.2 432.1 241.2 432.1 249.7V288.4C432.1 296.9 425.1 303.9 416.6 303.9Z" fill="black"/>
<path d="M408.6 264.5H401.4C397.8 264.5 394.8 261.5 394.8 257.9V250.7C394.8 247.1 397.8 244.1 401.4 244.1H408.6C412.2 244.1 415.2 247.1 415.2 250.7V257.9C415.2 261.6 412.2 264.5 408.6 264.5Z" fill="white"/>
<path d="M388.3 289H385.1C383.4 289 382 287.6 382 285.9V282.7C382 281 383.4 279.6 385.1 279.6H388.3C390 279.6 391.4 281 391.4 282.7V285.9C391.4 287.6 390 289 388.3 289Z" fill="white"/>
<path d="M415.9 280.1L421.7 280.9C422.7 281 423 282.4 422.1 282.9L417.1 286.1L416.3 291.9C416.2 292.9 414.8 293.2 414.3 292.3L411.1 287.3L405.3 286.5C404.3 286.4 404 285 404.9 284.5L409.9 281.3L410.7 275.5C410.8 274.5 412.2 274.2 412.7 275.1L415.9 280.1Z" fill="#B58A00"/>
</svg>
