<svg width="600" height="600" viewBox="0 0 600 600" fill="none" xmlns="http://www.w3.org/2000/svg">
<path d="M224.8 277.4H194.1V394.9H224.8V277.4Z" fill="white"/>
<path d="M405.9 277.4H375.2V394.9H405.9V277.4Z" fill="white"/>
<path d="M211.8 275.2C201.8 275.2 192.7 272 186 266.9C186.8 268.7 187.8 270.4 189 271.9C186.1 274.5 179 279.5 168.6 277.9C168.6 277.9 179.9 284.3 194.3 277.4C199.2 281.3 205.3 283.6 211.9 283.6C223.3 283.6 233.1 276.8 237.8 266.9C230.9 272.1 221.8 275.2 211.8 275.2Z" fill="black"/>
<path d="M388.2 275.2C398.2 275.2 407.3 272 414 266.9C413.2 268.7 412.2 270.4 411 271.9C413.9 274.5 421 279.5 431.4 277.9C431.4 277.9 420.1 284.3 405.7 277.4C400.8 281.3 394.7 283.6 388.1 283.6C376.7 283.6 366.9 276.8 362.2 266.9C369.1 272.1 378.2 275.2 388.2 275.2Z" fill="black"/>
<path d="M300 321.3C263.1 321.3 233.2 340.7 233.2 364.6H366.9C366.9 340.7 337 321.3 300 321.3Z" fill="white"/>
<path d="M341.5 330.599L334.2 339.099C333.9 339.499 333.2 339.399 333 338.899L328.9 325.899L328.8 325.599C320.1 322.899 310.3 321.399 300.1 321.399C289.8 321.399 280.1 322.899 271.4 325.599C271.3 325.599 271.3 325.599 271.2 325.599L271.1 325.899L267 338.899C266.8 339.399 266.2 339.499 265.8 339.099L258.5 330.599C246.5 336.799 237.8 345.499 234.6 355.599C233.2 359.999 236.4 364.499 241 364.499H359C363.6 364.499 366.8 359.999 365.4 355.599C362.2 345.599 353.5 336.799 341.5 330.599Z" fill="black"/>
</svg>
