<svg name="body-shot-14" width="600" height="600" viewBox="0 0 600 600" fill="none" xmlns="http://www.w3.org/2000/svg">
  <path
    d="M300.1 394.9C337 394.9 366.9 375.5 366.9 351.6C366.9 327.7 337 308.3 300.1 308.3C263.2 308.3 233.3 327.7 233.3 351.6C233.3 375.5 263.2 394.9 300.1 394.9Z"
    fill="white" />
  <path
    d="M355.1 327L342.6 339C341.2 340.3 338.6 340 337.8 338.4L326 311.7C318.1 309.5 309.3 308.3 300.1 308.3C290.9 308.3 282.1 309.5 274.1 311.7L262.2 338.3C261.5 339.9 258.8 340.3 257.4 338.9L244.9 327C237.5 334 233.2 342.3 233.2 351.4C233.2 375.3 263.2 394.7 300 394.7C336.8 394.7 366.8 375.3 366.8 351.4C366.8 342.5 362.5 334 355.1 327Z"
    fill="black" />
  <path
    d="M230.4 231.8C229.8 230.9 228.7 230.7 227.8 231.3C219.9 236.5 208 243.4 194.4 248.6C186.6 251.5 171 255.6 156 245.6C156 245.6 170.8 263.6 189 261.8C192.1 274.5 201.2 283.7 212 283.7C225.3 283.7 236.1 269.6 236.1 252.4C236.2 244.5 234 237.3 230.4 231.8Z"
    fill="black" />
  <path
    d="M216 255.9C218.6 255.9 220.7 253.8 220.7 251.2C220.7 248.6 218.6 246.5 216 246.5C213.4 246.5 211.3 248.6 211.3 251.2C211.3 253.8 213.4 255.9 216 255.9Z"
    fill="#8DC406" />
  <path
    d="M219.4 249.3C222.3 249.3 224.7 246.9 224.7 244C224.7 241.1 222.3 238.7 219.4 238.7C216.5 238.7 214.1 241.1 214.1 244C214 246.9 216.4 249.3 219.4 249.3Z"
    fill="white" />
  <path
    d="M207.6 262.2C209.3 262.2 210.6 260.8 210.6 259.2C210.6 257.5 209.2 256.2 207.6 256.2C205.9 256.2 204.6 257.6 204.6 259.2C204.6 260.9 205.9 262.2 207.6 262.2Z"
    fill="white" />
  <path
    d="M369.6 231.8C370.2 230.9 371.3 230.7 372.2 231.3C380.1 236.5 392 243.4 405.6 248.6C413.4 251.5 429 255.6 444 245.6C444 245.6 429.2 263.6 411 261.8C407.9 274.5 398.8 283.7 388 283.7C374.7 283.7 363.9 269.6 363.9 252.4C363.8 244.5 366 237.3 369.6 231.8Z"
    fill="black" />
  <path
    d="M388.7 251.2C388.7 248.6 386.6 246.5 384 246.5C381.4 246.5 379.3 248.6 379.3 251.2C379.3 253.8 381.4 255.9 384 255.9C386.6 255.9 388.7 253.8 388.7 251.2Z"
    fill="#8DC406" />
  <path
    d="M386 243.9C386 241 383.6 238.6 380.7 238.6C377.8 238.6 375.4 241 375.4 243.9C375.4 246.8 377.8 249.2 380.7 249.2C383.6 249.3 386 246.9 386 243.9Z"
    fill="white" />
  <path
    d="M395.4 259.199C395.4 257.499 394 256.199 392.4 256.199C390.7 256.199 389.4 257.599 389.4 259.199C389.4 260.899 390.8 262.199 392.4 262.199C394.1 262.199 395.4 260.899 395.4 259.199Z"
    fill="white" />
</svg>