<svg width="600" height="600" viewBox="0 0 600 600" fill="none" xmlns="http://www.w3.org/2000/svg">
<path d="M300.1 394.9C337 394.9 366.9 375.5 366.9 351.6C366.9 327.7 337 308.3 300.1 308.3C263.2 308.3 233.3 327.7 233.3 351.6C233.3 375.5 263.2 394.9 300.1 394.9Z" fill="white"/>
<path d="M355.1 327L342.6 339C341.2 340.3 338.6 340 337.8 338.4L326 311.7C318.1 309.5 309.3 308.3 300.1 308.3C290.9 308.3 282.1 309.5 274.1 311.7L262.2 338.3C261.5 339.9 258.8 340.3 257.4 338.9L244.9 327C237.5 334 233.2 342.3 233.2 351.4C233.2 375.3 263.2 394.7 300 394.7C336.8 394.7 366.8 375.3 366.8 351.4C366.8 342.5 362.5 334 355.1 327Z" fill="black"/>
<path d="M212.2 220.9C210.2 220.9 208.3 221.2 206.4 221.9C205.4 222.2 204.4 222.4 203.3 222.6C195 224 176.3 224.6 167.1 205.2C167.1 205.2 173.5 229.4 192.3 234.3C189.5 239.4 188 245.6 188 252.3C188 269.7 198.8 283.6 212.1 283.6C225.4 283.6 236.2 269.5 236.2 252.3C236.2 235.1 225.5 220.9 212.2 220.9Z" fill="black"/>
<path d="M213.7 283.5C226.182 283.5 236.3 270.158 236.3 253.7C236.3 237.242 226.182 223.9 213.7 223.9C201.218 223.9 191.1 237.242 191.1 253.7C191.1 270.158 201.218 283.5 213.7 283.5Z" fill="white"/>
<path d="M213.7 260.801C217.621 260.801 220.8 257.622 220.8 253.701C220.8 249.779 217.621 246.601 213.7 246.601C209.779 246.601 206.6 249.779 206.6 253.701C206.6 257.622 209.779 260.801 213.7 260.801Z" fill="black"/>
<path d="M363.9 252.3C363.9 269.6 374.7 283.6 388 283.6C401.3 283.6 412.1 269.6 412.1 252.3C412.1 245.6 410.5 239.4 407.8 234.3C426.6 229.4 433 205.2 433 205.2C423.8 224.6 405.1 223.9 396.8 222.6C395.7 222.4 394.7 222.2 393.7 221.9C391.8 221.3 389.9 220.9 387.9 220.9C374.6 220.9 363.9 235.1 363.9 252.3Z" fill="black"/>
<path d="M386.4 283.5C398.881 283.5 409 270.158 409 253.7C409 237.242 398.881 223.9 386.4 223.9C373.918 223.9 363.8 237.242 363.8 253.7C363.8 270.158 373.918 283.5 386.4 283.5Z" fill="white"/>
<path d="M386.4 260.801C390.321 260.801 393.5 257.622 393.5 253.701C393.5 249.779 390.321 246.601 386.4 246.601C382.479 246.601 379.3 249.779 379.3 253.701C379.3 257.622 382.479 260.801 386.4 260.801Z" fill="black"/>
</svg>
