<svg width="600" height="600" viewBox="0 0 600 600" fill="none" xmlns="http://www.w3.org/2000/svg">
<path d="M300.1 393.3C330.5 393.3 355.1 373.9 355.1 350C355.1 326.1 330.5 306.7 300.1 306.7C269.7 306.7 245.1 326.1 245.1 350C245 374 269.7 393.3 300.1 393.3Z" fill="#FF4040"/>
<path d="M300.1 347.6C321.2 347.6 339.4 356.9 348.7 370.6C352.8 364.6 355.2 357.6 355.2 350.2C355.2 326.3 330.5 306.9 300.2 306.9C269.8 306.9 245.2 326.3 245.2 350.2C245.2 357.6 247.5 364.5 251.7 370.6C260.7 356.8 279 347.6 300.1 347.6Z" fill="black"/>
<path d="M219.3 281.1C209 281.2 200 285.3 194 291.5C198.2 281.9 207.6 275 218.8 274.6C220.5 274.5 222 274.6 223.6 274.8C224 274.9 224.1 274.4 223.8 274.2C215.7 270.1 207.8 268.3 203.7 267.5C203.3 267.4 203.3 266.8 203.6 267C233.6 265 243.2 281.5 246.4 292.5C240.1 285.5 230.3 281.1 219.3 281.1Z" fill="black"/>
<path d="M379.7 279.5C369.4 279.6 360.4 283.7 354.4 289.9C358.6 280.3 368 273.4 379.2 273C380.9 272.9 382.4 273 384 273.2C384.4 273.3 384.5 272.8 384.2 272.6C376.1 268.5 368.2 266.7 364.1 265.9C363.7 265.8 363.7 265.2 364 265.4C394 263.4 403.6 279.9 406.8 290.9C400.5 283.9 390.7 279.5 379.7 279.5Z" fill="black"/>
<path d="M219.6 297.2C232.082 297.2 242.2 293.395 242.2 288.7C242.2 284.006 232.082 280.2 219.6 280.2C207.118 280.2 197 284.006 197 288.7C197 293.395 207.118 297.2 219.6 297.2Z" fill="white"/>
<path d="M195 308.5C199.694 308.5 203.5 304.694 203.5 300C203.5 295.306 199.694 291.5 195 291.5C190.306 291.5 186.5 295.306 186.5 300C186.5 304.694 190.306 308.5 195 308.5Z" fill="white"/>
<path d="M214.9 305.7C219.594 305.7 223.4 301.895 223.4 297.2C223.4 292.506 219.594 288.7 214.9 288.7C210.205 288.7 206.4 292.506 206.4 297.2C206.4 301.895 210.205 305.7 214.9 305.7Z" fill="white"/>
<path d="M206.4 324.3C210.432 324.3 213.7 321.032 213.7 317C213.7 312.969 210.432 309.7 206.4 309.7C202.368 309.7 199.1 312.969 199.1 317C199.1 321.032 202.368 324.3 206.4 324.3Z" fill="white"/>
<path d="M191.7 334.6C194.572 334.6 196.9 332.272 196.9 329.4C196.9 326.528 194.572 324.2 191.7 324.2C188.828 324.2 186.5 326.528 186.5 329.4C186.5 332.272 188.828 334.6 191.7 334.6Z" fill="white"/>
<path d="M380.5 296.2C392.982 296.2 403.1 292.395 403.1 287.7C403.1 283.006 392.982 279.2 380.5 279.2C368.018 279.2 357.9 283.006 357.9 287.7C357.9 292.395 368.018 296.2 380.5 296.2Z" fill="white"/>
<path d="M405.1 307.5C409.794 307.5 413.6 303.694 413.6 299C413.6 294.306 409.794 290.5 405.1 290.5C400.405 290.5 396.6 294.306 396.6 299C396.6 303.694 400.405 307.5 405.1 307.5Z" fill="white"/>
<path d="M385.2 304.7C389.894 304.7 393.7 300.895 393.7 296.2C393.7 291.506 389.894 287.7 385.2 287.7C380.506 287.7 376.7 291.506 376.7 296.2C376.7 300.895 380.506 304.7 385.2 304.7Z" fill="white"/>
<path d="M393.7 323.3C397.732 323.3 401 320.032 401 316C401 311.969 397.732 308.7 393.7 308.7C389.668 308.7 386.4 311.969 386.4 316C386.4 320.032 389.668 323.3 393.7 323.3Z" fill="white"/>
<path d="M408.4 333.6C411.272 333.6 413.6 331.272 413.6 328.4C413.6 325.528 411.272 323.2 408.4 323.2C405.528 323.2 403.2 325.528 403.2 328.4C403.2 331.272 405.528 333.6 408.4 333.6Z" fill="white"/>
</svg>
