<svg width="600" height="600" viewBox="0 0 600 600" fill="none" xmlns="http://www.w3.org/2000/svg">
<path d="M300.1 393.3C330.5 393.3 355.1 373.9 355.1 350C355.1 326.1 330.5 306.7 300.1 306.7C269.7 306.7 245.1 326.1 245.1 350C245 374 269.7 393.3 300.1 393.3Z" fill="#FF4040"/>
<path d="M300.1 347.6C321.2 347.6 339.4 356.9 348.7 370.6C352.8 364.6 355.2 357.6 355.2 350.2C355.2 326.3 330.5 306.9 300.2 306.9C269.8 306.9 245.2 326.3 245.2 350.2C245.2 357.6 247.5 364.5 251.7 370.6C260.7 356.8 279 347.6 300.1 347.6Z" fill="black"/>
<path d="M203.6 227.5C207.7 228.2 215.6 230 223.7 234.2C224 234.4 223.9 234.9 223.5 234.8C221.9 234.6 220.4 234.5 218.7 234.6C202.9 235.1 190.8 248.6 191.6 264.4C192.4 279.3 205 291 220 290.9C235.9 290.7 248.4 277.5 247.7 261.8C247.7 261.8 247.9 224 203.5 227C203.2 226.8 203.2 227.4 203.6 227.5Z" fill="black"/>
<path d="M219.7 291.5C234.888 291.5 247.2 279.188 247.2 264C247.2 248.812 234.888 236.5 219.7 236.5C204.512 236.5 192.2 248.812 192.2 264C192.2 279.188 204.512 291.5 219.7 291.5Z" fill="white"/>
<path d="M219.7 270C223.014 270 225.7 267.314 225.7 264C225.7 260.686 223.014 258 219.7 258C216.386 258 213.7 260.686 213.7 264C213.7 267.314 216.386 270 219.7 270Z" fill="black"/>
<path d="M364.1 229.1C368.2 229.8 376.1 231.6 384.2 235.8C384.5 236 384.4 236.5 384 236.4C382.4 236.2 380.9 236.1 379.2 236.2C363.4 236.7 351.3 250.2 352.1 266C352.9 280.9 365.5 292.6 380.5 292.5C396.4 292.3 408.9 279.1 408.2 263.4C408.2 263.4 408.4 225.6 364 228.6C363.7 228.3 363.7 229 364.1 229.1Z" fill="black"/>
<path d="M380.2 293.101C395.388 293.101 407.7 280.788 407.7 265.601C407.7 250.413 395.388 238.101 380.2 238.101C365.012 238.101 352.7 250.413 352.7 265.601C352.7 280.788 365.012 293.101 380.2 293.101Z" fill="white"/>
<path d="M380.2 271.601C383.514 271.601 386.2 268.914 386.2 265.601C386.2 262.287 383.514 259.601 380.2 259.601C376.886 259.601 374.2 262.287 374.2 265.601C374.2 268.914 376.886 271.601 380.2 271.601Z" fill="black"/>
</svg>
