<svg name="body-shot-3" width="600" height="600" viewBox="0 0 600 600" fill="none" xmlns="http://www.w3.org/2000/svg">
  <path
    d="M212.1 354.4H388.1C397.3 354.4 401.5 344.5 394.6 339.2C363.1 315.3 293.6 270.6 205.8 339.1C198.5 344.2 202.7 354.4 212.1 354.4Z"
    fill="black" />
  <path
    d="M256.5 260.499C256.5 260.499 251.4 243.699 214 250.999C214 250.999 176.5 257.799 178.1 278.499C178.1 278.499 178.9 299.099 218.4 289.699C218.3 289.599 264.8 278.899 256.5 260.499Z"
    fill="white" />
  <path
    d="M218.5 279.9C224.189 279.9 228.8 275.288 228.8 269.6C228.8 263.911 224.189 259.3 218.5 259.3C212.812 259.3 208.2 263.911 208.2 269.6C208.2 275.288 212.812 279.9 218.5 279.9Z"
    fill="black" />
  <path
    d="M381.8 289.6C421.2 299 422.1 278.4 422.1 278.4C423.5 257.7 386.2 250.9 386.2 250.9C348.8 243.6 343.7 260.4 343.7 260.4C335.3 278.9 381.8 289.6 381.8 289.6Z"
    fill="white" />
  <path
    d="M381.6 279.9C387.289 279.9 391.9 275.288 391.9 269.6C391.9 263.911 387.289 259.3 381.6 259.3C375.912 259.3 371.3 263.911 371.3 269.6C371.3 275.288 375.912 279.9 381.6 279.9Z"
    fill="black" />
</svg>