<svg width="600" height="600" viewBox="0 0 600 600" fill="none" xmlns="http://www.w3.org/2000/svg">
<path d="M212.1 354.4H388.1C397.3 354.4 401.5 344.5 394.6 339.2C363.1 315.3 291.6 277.9 205.8 339.1C198.5 344.2 202.7 354.4 212.1 354.4Z" fill="black"/>
<path d="M256.4 260.5C256.4 260.5 251.3 243.7 213.9 251C213.9 251 176.4 257.8 177.9 278.5C177.9 278.5 178.7 299.1 218.2 289.7C218.2 289.7 264.8 278.9 256.4 260.5Z" fill="black"/>
<path d="M256.4 260.5C256.4 260.5 251.3 243.7 213.9 251C213.9 251 176.4 257.8 177.9 278.5C177.9 278.5 178.7 299.1 218.2 289.7C218.2 289.7 264.8 278.9 256.4 260.5Z" fill="black"/>
<path d="M256.5 261.2C256.5 261.2 251.5 244.8 215 251.9C215 251.9 178.4 258.5 179.9 278.8C179.9 278.8 180.7 298.9 219.3 289.7C219.2 289.7 264.6 279.2 256.5 261.2Z" fill="white"/>
<path d="M218.6 278.1C222.742 278.1 226.1 274.742 226.1 270.6C226.1 266.457 222.742 263.1 218.6 263.1C214.458 263.1 211.1 266.457 211.1 270.6C211.1 274.742 214.458 278.1 218.6 278.1Z" fill="black"/>
<path d="M381.9 289.7C421.4 299.1 422.2 278.5 422.2 278.5C423.7 257.8 386.2 251 386.2 251C348.7 243.7 343.7 260.5 343.7 260.5C335.3 278.9 381.9 289.7 381.9 289.7Z" fill="black"/>
<path d="M381.9 289.7C421.4 299.1 422.2 278.5 422.2 278.5C423.7 257.8 386.2 251 386.2 251C348.7 243.7 343.7 260.5 343.7 260.5C335.3 278.9 381.9 289.7 381.9 289.7Z" fill="black"/>
<path d="M380.9 289.7C419.4 298.9 420.3 278.8 420.3 278.8C421.7 258.6 385.2 251.9 385.2 251.9C348.6 244.8 343.7 261.2 343.7 261.2C335.5 279.2 380.9 289.7 380.9 289.7Z" fill="white"/>
<path d="M381.5 278.1C385.642 278.1 389 274.742 389 270.6C389 266.457 385.642 263.1 381.5 263.1C377.358 263.1 374 266.457 374 270.6C374 274.742 377.358 278.1 381.5 278.1Z" fill="black"/>
</svg>
