<svg width="600" height="600" viewBox="0 0 600 600" fill="none" xmlns="http://www.w3.org/2000/svg">
<path d="M226.1 351H374C381.7 351 385.3 343.6 379.5 339.7C353 321.9 292.9 294 220.8 339.6C214.7 343.4 218.2 351 226.1 351Z" fill="black"/>
<path d="M256.5 261.2C256.5 261.2 251.5 244.8 215 251.9C215 251.9 178.4 258.5 179.9 278.8C179.9 278.8 180.7 298.9 219.3 289.7C219.2 289.7 264.6 279.2 256.5 261.2Z" fill="white"/>
<path d="M219.5 277C222.538 277 225 274.538 225 271.5C225 268.462 222.538 266 219.5 266C216.462 266 214 268.462 214 271.5C214 274.538 216.462 277 219.5 277Z" fill="black"/>
<path d="M380.9 289.7C419.4 298.9 420.3 278.8 420.3 278.8C421.7 258.6 385.2 251.9 385.2 251.9C348.6 244.8 343.7 261.2 343.7 261.2C335.5 279.2 380.9 289.7 380.9 289.7Z" fill="white"/>
<path d="M382.4 277C385.438 277 387.9 274.538 387.9 271.5C387.9 268.462 385.438 266 382.4 266C379.362 266 376.9 268.462 376.9 271.5C376.9 274.538 379.362 277 382.4 277Z" fill="black"/>
</svg>
