<svg width="600" height="600" viewBox="0 0 600 600" fill="none" xmlns="http://www.w3.org/2000/svg">
<path d="M302.7 372.4C317.2 372.4 328.9 396.2 328.9 374.5C328.9 352.8 317.2 335.3 302.7 335.3C288.2 335.3 276.5 352.9 276.5 374.5C276.5 396.1 288.2 372.4 302.7 372.4Z" fill="black"/>
<path d="M195.7 241C181.5 272.2 184.1 304 201.7 312C219.2 320 245 301.2 259.3 270C259.3 270 270.4 246.4 268.2 225.1C267.9 222.5 265.4 220.7 262.8 221.3C252.2 223.8 235.1 230.2 205.3 229.2C203.1 229.1 201 230.3 199.9 232.3C198.9 234.1 197.5 236.9 195.7 241Z" fill="black"/>
<path d="M207 289.7C209.8 289.7 212.1 287.4 212.1 284.6C212.1 281.8 209.8 279.5 207 279.5C204.2 279.5 201.9 281.8 201.9 284.6C202 287.4 204.2 289.7 207 289.7Z" fill="white"/>
<path d="M227.7 235.6L221.3 238.9C220.6 239.3 220.6 240.4 221.3 240.8L227.7 244.1C231.6 246.1 234.4 249.8 235.2 254L237.4 264.9C237.6 266.1 239.3 266.1 239.5 264.9L241.7 254C242.5 249.7 245.3 246.1 249.2 244.1L255.6 240.8C256.3 240.4 256.3 239.3 255.6 238.9L249.2 235.6C245.5 233.7 242.9 230.4 241.9 226.5C239.6 227 237.1 227.4 234.5 227.8C233.4 231.1 230.9 233.9 227.7 235.6Z" fill="white"/>
<path d="M400.2 232.4C399.1 230.4 397 229.3 394.8 229.3C364.9 230.3 347.9 223.9 337.3 221.4C334.7 220.8 332.2 222.5 331.9 225.2C329.7 246.5 340.8 270.1 340.8 270.1C355 301.3 380.8 320.1 398.4 312.1C415.9 304.1 418.6 272.3 404.4 241.1C402.5 236.9 401.1 234.1 400.2 232.4Z" fill="black"/>
<path d="M398 284.6C398 281.8 395.7 279.5 392.9 279.5C390.1 279.5 387.8 281.8 387.8 284.6C387.8 287.4 390.1 289.7 392.9 289.7C395.8 289.7 398 287.4 398 284.6Z" fill="white"/>
<path d="M372.3 235.6L378.7 238.9C379.4 239.3 379.4 240.4 378.7 240.8L372.3 244.1C368.4 246.1 365.6 249.8 364.8 254L362.6 264.9C362.4 266.1 360.7 266.1 360.5 264.9L358.3 254C357.5 249.7 354.7 246.1 350.8 244.1L344.4 240.8C343.7 240.4 343.7 239.3 344.4 238.9L350.8 235.6C354.5 233.7 357.1 230.4 358.1 226.5C360.4 227 362.9 227.4 365.5 227.8C366.7 231.1 369.1 233.9 372.3 235.6Z" fill="white"/>
</svg>
