<svg width="600" height="600" viewBox="0 0 600 600" fill="none" xmlns="http://www.w3.org/2000/svg">
<path d="M302.7 418.5C319.8 418.5 333.6 397.8 333.6 372.2C333.6 346.7 319.8 325.9 302.7 325.9C285.6 325.9 271.8 346.6 271.8 372.2C271.8 397.8 285.6 418.5 302.7 418.5Z" fill="black"/>
<path d="M259.2 270.1C273.4 238.9 270.8 207.1 253.2 199.1C235.7 191.1 209.9 209.9 195.6 241.1C181.4 272.3 184 304.1 201.6 312.1C219.2 320.1 245 301.3 259.2 270.1Z" fill="black"/>
<path d="M259.6 271.7C273.2 241.6 270.6 211 253.9 203.3C237.2 195.6 212.6 213.7 199 243.8C185.4 273.9 188 304.5 204.7 312.2C221.4 319.9 246 301.7 259.6 271.7Z" fill="white"/>
<path d="M229.3 267.4C234.657 267.4 239 263.057 239 257.7C239 252.343 234.657 248 229.3 248C223.943 248 219.6 252.343 219.6 257.7C219.6 263.057 223.943 267.4 229.3 267.4Z" fill="black"/>
<path d="M398.4 312.1C415.9 304.1 418.6 272.3 404.4 241.1C390.2 209.9 364.4 191.1 346.8 199.1C329.3 207.1 326.6 238.9 340.8 270.1C355 301.3 380.8 320.1 398.4 312.1Z" fill="black"/>
<path d="M395.3 312.1C412 304.4 414.6 273.8 401 243.7C387.4 213.6 362.8 195.5 346.1 203.2C329.4 210.9 326.8 241.5 340.4 271.6C354 301.7 378.6 319.9 395.3 312.1Z" fill="white"/>
<path d="M370.7 267.4C376.057 267.4 380.4 263.057 380.4 257.7C380.4 252.343 376.057 248 370.7 248C365.343 248 361 252.343 361 257.7C361 263.057 365.343 267.4 370.7 267.4Z" fill="black"/>
</svg>
