<svg width="600" height="600" viewBox="0 0 600 600" fill="none" xmlns="http://www.w3.org/2000/svg">
<path d="M302.7 372.7C310.1 372.7 317.3 373.4 324 374.7C326.8 375.2 328.4 371.6 326.1 369.9C319.5 365.1 311.4 362.2 302.7 362.2C294 362.2 286 365 279.3 369.9C277 371.6 278.5 375.3 281.4 374.7C288.2 373.4 295.3 372.7 302.7 372.7Z" fill="black"/>
<path d="M269.7 264.3C227.1 241.9 202.2 227.9 196.3 224.5C195.8 224.2 195.3 224.7 195.5 225.2C196.7 228.3 198 231.1 199.3 233.8C198 236.1 196.8 238.5 195.7 241C181.5 272.1 184.1 303.8 201.5 312C198.7 313.2 196.6 314.4 195.7 315.1C195.5 315.2 195.6 315.6 195.8 315.6H234C234.3 315.6 234.4 315.3 234.1 315.1C230.5 312.9 227 311.5 223.7 310.6C236.8 304.3 250.2 289.6 259.1 270.1C259.6 268.9 260.1 267.7 260.6 266.5C264.6 266.3 267.7 265.8 269.4 265.5C270.1 265.4 270.2 264.6 269.7 264.3Z" fill="black"/>
<path d="M207 290.5C210.3 290.5 212.9 287.8 212.9 284.6C212.9 281.3 210.2 278.7 207 278.7C203.8 278.7 201.1 281.4 201.1 284.6C201.1 287.9 203.8 290.5 207 290.5Z" fill="white"/>
<path d="M221.8 238.6L221.3 238.8C220.6 239.2 220.6 240.3 221.3 240.7L227.7 244C231.6 246 234.4 249.7 235.2 253.9L237.4 264.8C237.6 266 239.3 266 239.5 264.8L241.7 253.9C242 252.5 242.4 251.3 243.1 250.1L221.8 238.6Z" fill="white"/>
<path d="M330.3 264.3C372.9 241.9 397.8 227.9 403.7 224.5C404.2 224.2 404.7 224.7 404.5 225.2C403.3 228.3 402 231.1 400.7 233.8C402 236.1 403.2 238.5 404.3 241C418.5 272.1 415.9 303.8 398.5 312C401.3 313.2 403.4 314.4 404.3 315.1C404.5 315.2 404.4 315.6 404.2 315.6H366C365.7 315.6 365.6 315.3 365.9 315.1C369.5 312.9 373 311.5 376.3 310.6C363.2 304.3 349.8 289.6 340.9 270.1C340.4 268.9 339.9 267.7 339.4 266.5C335.4 266.3 332.3 265.8 330.6 265.5C329.9 265.4 329.8 264.6 330.3 264.3Z" fill="black"/>
<path d="M398.9 284.6C398.9 281.3 396.2 278.7 393 278.7C389.7 278.7 387.1 281.4 387.1 284.6C387.1 287.9 389.8 290.5 393 290.5C396.2 290.5 398.9 287.9 398.9 284.6Z" fill="white"/>
<path d="M378.2 238.6L378.7 238.8C379.4 239.2 379.4 240.3 378.7 240.7L372.3 244C368.4 246 365.6 249.7 364.8 253.9L362.6 264.8C362.4 266 360.7 266 360.5 264.8L358.3 253.9C358 252.5 357.6 251.3 356.9 250.1L378.2 238.6Z" fill="white"/>
</svg>
