<svg name="body-shot-5" width="600" height="600" viewBox="0 0 600 600" fill="none" xmlns="http://www.w3.org/2000/svg">
  <path
    d="M301.5 368.7C311.6 368.7 320.7 373.6 327.4 386.4C328.7 389 332.6 387.9 332.4 385C330.2 358.7 317.4 338.9 301.5 338.9C285.9 338.9 272.9 359 270.5 385.1C270.2 388 274.1 389.1 275.5 386.5C282.3 373.7 291.4 368.7 301.5 368.7Z"
    fill="black" />
  <path
    d="M263.8 253.1C200.8 252.2 154.1 285.2 154.1 285.2C157.2 284.8 160.2 284.4 163.2 284C166.1 298.3 175.3 310.3 187.7 317.1C183.8 319.3 181.5 321.2 181.5 321.2C214.8 314.8 242.6 321.2 242.6 321.2C240.3 319.3 237.9 317.7 235.6 316.3C250 307.8 259.7 292.2 259.7 274.2C259.7 268 258.5 262 256.4 256.6C261.2 254.4 263.8 253.1 263.8 253.1Z"
    fill="black" />
  <path
    d="M336.4 253.1C399.4 252.2 446.1 285.2 446.1 285.2C443 284.8 440 284.4 437 284C434.1 298.3 424.9 310.3 412.5 317.1C416.4 319.3 418.7 321.2 418.7 321.2C385.4 314.8 357.6 321.2 357.6 321.2C359.9 319.3 362.3 317.7 364.6 316.3C350.2 307.8 340.5 292.2 340.5 274.2C340.5 268 341.7 262 343.8 256.6C339 254.4 336.4 253.1 336.4 253.1Z"
    fill="black" />
  <path
    d="M201.2 308C204.5 308 207.1 305.3 207.1 302.1C207.1 298.8 204.4 296.2 201.2 296.2C197.9 296.2 195.3 298.9 195.3 302.1C195.3 305.3 197.9 308 201.2 308Z"
    fill="white" />
  <path
    d="M248.8 269.4L247.6 269C241.9 267.1 237.8 262.2 236.6 256.3L236.3 254.8C235.8 254.9 235.2 255 234.7 255L234.5 256.2C233.3 262.1 229.2 267 223.5 268.9L222.3 269.3C222 269.4 222 269.8 222.3 269.9L223.5 270.3C229.2 272.2 233.3 277.1 234.5 283L235.2 287C235.2 287.4 235.7 287.4 235.8 287L236.5 283C237.7 277.1 241.8 272.2 247.5 270.3L248.7 269.9C249.1 269.9 249.1 269.5 248.8 269.4Z"
    fill="white" />
  <path
    d="M379.3 308C382.6 308 385.2 305.3 385.2 302.1C385.2 298.8 382.5 296.2 379.3 296.2C376 296.2 373.4 298.9 373.4 302.1C373.4 305.3 376.1 308 379.3 308Z"
    fill="white" />
  <path
    d="M407.2 265.8C405.6 267.2 403.7 268.3 401.7 269L400.5 269.4C400.2 269.5 400.2 269.9 400.5 270L401.7 270.4C407.4 272.3 411.5 277.2 412.7 283.1L413.4 287.1C413.4 287.5 413.9 287.5 414 287.1L414.7 283.1C415.6 278.4 418.4 274.5 422.3 272C417.5 269.8 411.4 267.3 407.2 265.8Z"
    fill="white" />
</svg>