<svg width="600" height="600" viewBox="0 0 600 600" fill="none" xmlns="http://www.w3.org/2000/svg">
<path d="M237.4 313.7H190V386.8H237.4V313.7Z" fill="white"/>
<path d="M410 313.7H362.6V386.8H410V313.7Z" fill="white"/>
<path d="M210.9 312.3C192.7 312.3 176.4 304.3 165.4 291.6C172.4 309.9 190.2 322.9 210.9 322.9C231.7 322.9 249.4 309.9 256.4 291.6C245.4 304.3 229.1 312.3 210.9 312.3Z" fill="black"/>
<path d="M389.1 312.3C370.9 312.3 354.6 304.3 343.6 291.6C350.6 309.9 368.4 322.9 389.1 322.9C409.9 322.9 427.6 309.9 434.6 291.6C423.5 304.3 407.2 312.3 389.1 312.3Z" fill="black"/>
<path d="M301.5 367.4C308.9 367.4 315.4 370.2 319.2 374.4C319.2 357.3 311.4 343.7 301.5 343.7C291.8 343.7 283.8 357.5 283.7 374.4C287.6 370.2 294.1 367.4 301.5 367.4Z" fill="black"/>
</svg>
