<svg width="600" height="600" viewBox="0 0 600 600" fill="none" xmlns="http://www.w3.org/2000/svg">
<path d="M301.6 337.3C287.7 337.3 276.5 356.8 276.5 381H326.5C326.6 356.9 315.4 337.3 301.6 337.3Z" fill="black"/>
<path d="M210.9 322.9C237.8 322.9 259.7 301.1 259.7 274.1C259.7 247.2 237.9 225.3 210.9 225.3C183.9 225.3 162.1 247.1 162.1 274.1C162.1 301.1 184 322.9 210.9 322.9Z" fill="black"/>
<path d="M211.8 323.899C238.3 323.899 259.8 302.399 259.8 275.899C259.8 249.399 238.3 227.899 211.8 227.899C185.3 227.899 163.8 249.399 163.8 275.899C163.8 302.399 185.3 323.899 211.8 323.899Z" fill="white"/>
<path d="M211.8 283.4C216.936 283.4 221.1 279.236 221.1 274.1C221.1 268.964 216.936 264.8 211.8 264.8C206.664 264.8 202.5 268.964 202.5 274.1C202.5 279.236 206.664 283.4 211.8 283.4Z" fill="black"/>
<path d="M437.9 274.1C437.9 247.2 416.1 225.3 389.1 225.3C362.2 225.3 340.3 247.1 340.3 274.1C340.3 301 362.1 322.9 389.1 322.9C416 322.9 437.9 301.1 437.9 274.1Z" fill="black"/>
<path d="M436.2 275.899C436.2 249.399 414.7 227.899 388.2 227.899C361.7 227.899 340.2 249.399 340.2 275.899C340.2 302.399 361.7 323.899 388.2 323.899C414.7 323.899 436.2 302.399 436.2 275.899Z" fill="white"/>
<path d="M388.2 283.4C393.336 283.4 397.5 279.236 397.5 274.1C397.5 268.964 393.336 264.8 388.2 264.8C383.064 264.8 378.9 268.964 378.9 274.1C378.9 279.236 383.064 283.4 388.2 283.4Z" fill="black"/>
</svg>
