<svg width="600" height="600" viewBox="0 0 600 600" fill="none" xmlns="http://www.w3.org/2000/svg">
<path d="M337.3 350.1H262.8V355.9H337.3V350.1Z" fill="black"/>
<path d="M211.3 301.8C245.7 301.8 273.5 288.9 273.5 272.9C273.5 256.9 245.6 244 211.3 244C177 244 149 256.9 149 272.9C149 288.8 176.9 301.8 211.3 301.8Z" fill="black"/>
<path d="M211.046 298.036C241.394 298.036 266 286.644 266 272.518C266 258.392 241.394 247 211.046 247C180.698 247 156 258.392 156 272.518C156 286.553 180.606 298.036 211.046 298.036Z" fill="white"/>
<path d="M211.4 280.099C215.321 280.099 218.5 276.921 218.5 272.999C218.5 269.078 215.321 265.899 211.4 265.899C207.479 265.899 204.3 269.078 204.3 272.999C204.3 276.921 207.479 280.099 211.4 280.099Z" fill="black"/>
<path d="M388.2 301.8C422.6 301.8 450.4 288.9 450.4 272.9C450.4 256.9 422.5 244 388.2 244C353.9 244 326 256.9 326 272.9C326 288.8 353.9 301.8 388.2 301.8Z" fill="black"/>
<path d="M389 298.078C419.373 298.078 444 286.677 444 272.539C444 258.401 419.373 247 389 247C358.627 247 334 258.401 334 272.539C334 286.585 358.627 298.078 389 298.078Z" fill="white"/>
<path d="M388.6 280.099C392.521 280.099 395.7 276.921 395.7 272.999C395.7 269.078 392.521 265.899 388.6 265.899C384.679 265.899 381.5 269.078 381.5 272.999C381.5 276.921 384.679 280.099 388.6 280.099Z" fill="black"/>
</svg>
