<svg width="600" height="600" viewBox="0 0 600 600" fill="none" xmlns="http://www.w3.org/2000/svg">
<path d="M210.9 283.1C229.7 283.1 245 272.2 245 258.8C245 245.4 229.7 234.5 210.9 234.5C192.1 234.5 176.8 245.4 176.8 258.8C176.9 272.2 192.1 283.1 210.9 283.1Z" fill="black"/>
<path d="M212 283.1C230.2 283.1 245 272.5 245 259.5C245 246.5 230.2 235.9 212 235.9C193.8 235.9 179 246.5 179 259.5C179 272.5 193.8 283.1 212 283.1Z" fill="white"/>
<path d="M210.9 265.2C214.048 265.2 216.6 262.648 216.6 259.5C216.6 256.352 214.048 253.8 210.9 253.8C207.752 253.8 205.2 256.352 205.2 259.5C205.2 262.648 207.752 265.2 210.9 265.2Z" fill="black"/>
<path d="M423.1 258.7C423.1 245.3 407.8 234.4 389 234.4C370.2 234.4 354.9 245.3 354.9 258.7C354.9 272.1 370.2 283 389 283C407.8 283 423.1 272.2 423.1 258.7Z" fill="black"/>
<path d="M421 259.5C421 246.5 406.2 235.9 388 235.9C369.8 235.9 355 246.5 355 259.5C355 272.5 369.8 283.1 388 283.1C406.2 283.1 421 272.5 421 259.5Z" fill="white"/>
<path d="M389.1 265.201C392.248 265.201 394.8 262.649 394.8 259.501C394.8 256.353 392.248 253.801 389.1 253.801C385.952 253.801 383.4 256.353 383.4 259.501C383.4 262.649 385.952 265.201 389.1 265.201Z" fill="black"/>
<path d="M339.2 344.1C319.1 344.1 302.5 332.5 300.1 317.4C297.7 332.4 281.1 344.1 261 344.1C258.8 344.1 256.6 344 254.5 343.7C252.4 343.4 251.4 346.2 253.1 347.3C257.9 350.5 263.7 352.3 269.9 352.3C275.8 352.3 281.3 350.6 286 347.7C285.7 349.8 285.5 352 285.5 354.3C285.5 368.4 292 379.8 300.1 379.8C308.2 379.8 314.7 368.4 314.7 354.3C314.7 352 314.5 349.8 314.2 347.7C318.9 350.7 324.5 352.4 330.4 352.4C336.6 352.4 342.4 350.5 347.2 347.4C349 346.2 347.9 343.5 345.8 343.8C343.6 344 341.4 344.1 339.2 344.1Z" fill="black"/>
</svg>
