<svg width="600" height="600" viewBox="0 0 600 600" fill="none" xmlns="http://www.w3.org/2000/svg">
<path d="M210.9 283.1C229.7 283.1 245 272.2 245 258.8C245 245.4 229.7 234.5 210.9 234.5C192.1 234.5 176.8 245.4 176.8 258.8C176.9 272.2 192.1 283.1 210.9 283.1Z" fill="black"/>
<path d="M212 283.1C230.2 283.1 245 272.5 245 259.5C245 246.5 230.2 235.9 212 235.9C193.8 235.9 179 246.5 179 259.5C179 272.5 193.8 283.1 212 283.1Z" fill="white"/>
<path d="M210.9 267C215.042 267 218.4 263.642 218.4 259.5C218.4 255.358 215.042 252 210.9 252C206.758 252 203.4 255.358 203.4 259.5C203.4 263.642 206.758 267 210.9 267Z" fill="black"/>
<path d="M423.1 258.7C423.1 245.3 407.8 234.4 389 234.4C370.2 234.4 354.9 245.3 354.9 258.7C354.9 272.1 370.2 283 389 283C407.8 283 423.1 272.2 423.1 258.7Z" fill="black"/>
<path d="M421 259.5C421 246.5 406.2 235.9 388 235.9C369.8 235.9 355 246.5 355 259.5C355 272.5 369.8 283.1 388 283.1C406.2 283.1 421 272.5 421 259.5Z" fill="white"/>
<path d="M389.1 267C393.242 267 396.6 263.642 396.6 259.5C396.6 255.358 393.242 252 389.1 252C384.958 252 381.6 255.358 381.6 259.5C381.6 263.642 384.958 267 389.1 267Z" fill="black"/>
<path d="M353.9 327C353.9 322.6 351.6 320.3 350.1 323.1C345.2 332.1 336.1 338.2 325.8 338.2C315.7 338.2 307 332.5 302 324C301.6 322.6 300.8 321.9 300.1 321.9C299.4 321.9 298.6 322.6 298.2 324C293.2 332.6 284.4 338.2 274.4 338.2C264 338.2 254.9 332.2 250.1 323.1C248.6 320.3 246.3 322.6 246.3 327V327.1C246.3 343.9 258.9 351.5 274.5 351.5C274.8 351.5 275 351.5 275.3 351.5L269.8 399C269.6 400.2 270.6 401.2 271.7 401.2H328.6C329.8 401.2 330.7 400.2 330.5 399L325 351.5C325.3 351.5 325.5 351.5 325.8 351.5C341.3 351.6 353.9 343.9 353.9 327Z" fill="black"/>
</svg>
