<svg width="600" height="600" viewBox="0 0 600 600" fill="none" xmlns="http://www.w3.org/2000/svg">
<path d="M210.9 283.1C229.7 283.1 245 272.2 245 258.7C245 245.3 229.7 234.3 210.9 234.3C192.1 234.3 176.8 245.2 176.8 258.7C176.9 272.2 192.1 283.1 210.9 283.1Z" fill="white"/>
<path d="M210.9 268.1C215.65 268.1 219.5 264.25 219.5 259.5C219.5 254.751 215.65 250.9 210.9 250.9C206.15 250.9 202.3 254.751 202.3 259.5C202.3 264.25 206.15 268.1 210.9 268.1Z" fill="black"/>
<path d="M423.1 258.7C423.1 245.3 407.8 234.3 389 234.3C370.2 234.3 354.9 245.2 354.9 258.7C354.9 272.1 370.2 283.1 389 283.1C407.9 283.1 423.1 272.2 423.1 258.7Z" fill="white"/>
<path d="M389.1 268.1C393.85 268.1 397.7 264.25 397.7 259.5C397.7 254.751 393.85 250.9 389.1 250.9C384.35 250.9 380.5 254.751 380.5 259.5C380.5 264.25 384.35 268.1 389.1 268.1Z" fill="black"/>
<path d="M353.9 327C353.9 322.6 351.6 320.3 350.1 323.1C345.2 332.1 336.1 338.2 325.8 338.2C315.7 338.2 307 332.5 302 324C301.6 322.6 300.8 321.9 300.1 321.9C299.4 321.9 298.6 322.6 298.2 324C293.2 332.6 284.4 338.2 274.4 338.2C264 338.2 254.9 332.2 250.1 323.1C248.6 320.3 246.3 322.6 246.3 327V327.1C246.3 343.9 258.9 351.5 274.5 351.5C274.8 351.5 275 351.5 275.3 351.5L269.8 399C269.6 400.2 270.6 401.2 271.7 401.2H328.6C329.8 401.2 330.7 400.2 330.5 399L325 351.5C325.3 351.5 325.5 351.5 325.8 351.5C341.3 351.6 353.9 343.9 353.9 327Z" fill="black"/>
</svg>
