<svg name="body-shot-8" width="600" height="600" viewBox="0 0 600 600" fill="none" xmlns="http://www.w3.org/2000/svg">
  <path
    d="M299.9 381.1C312.658 381.1 323 366.684 323 348.9C323 331.117 312.658 316.7 299.9 316.7C287.142 316.7 276.8 331.117 276.8 348.9C276.8 366.684 287.142 381.1 299.9 381.1Z"
    fill="black" />
  <path d="M221.5 303.9C248.4 303.9 270.2 282.1 270.2 255.2H172.7C172.7 282.1 194.6 303.9 221.5 303.9Z" fill="black" />
  <path d="M200.7 258.4H175.7C177.4 281 198.3 300.6 221.6 300.6C244.9 300.6 265.8 281.8 266.5 258.4H242.3H200.7Z"
    fill="white" />
  <path
    d="M221.5 285.2C226.305 285.2 230.2 281.305 230.2 276.5C230.2 271.695 226.305 267.8 221.5 267.8C216.695 267.8 212.8 271.695 212.8 276.5C212.8 281.305 216.695 285.2 221.5 285.2Z"
    fill="black" />
  <path d="M378.7 303.9C405.6 303.9 427.4 282.1 427.4 255.2H330C330 282.1 351.9 303.9 378.7 303.9Z" fill="black" />
  <path d="M357.9 258.4H332.9C334.6 281 355.5 300.6 378.8 300.6C402.1 300.6 423 281.8 423.7 258.4H399.5H357.9Z"
    fill="white" />
  <path
    d="M378.7 285.2C383.505 285.2 387.4 281.305 387.4 276.5C387.4 271.695 383.505 267.8 378.7 267.8C373.895 267.8 370 271.695 370 276.5C370 281.305 373.895 285.2 378.7 285.2Z"
    fill="black" />
</svg>