<svg width="600" height="600" viewBox="0 0 600 600" fill="none" xmlns="http://www.w3.org/2000/svg">
<path d="M221.5 303.9C248.4 303.9 270.2 282.1 270.2 255.2H172.7C172.7 282.1 194.6 303.9 221.5 303.9Z" fill="black"/>
<path d="M222.1 304.3C248.1 304.3 269.2 283.9 269.2 258.8H175C175 283.9 196.1 304.3 222.1 304.3Z" fill="white"/>
<path d="M221.5 283.601C225.366 283.601 228.5 280.467 228.5 276.601C228.5 272.735 225.366 269.601 221.5 269.601C217.634 269.601 214.5 272.735 214.5 276.601C214.5 280.467 217.634 283.601 221.5 283.601Z" fill="black"/>
<path d="M378.5 303.9C405.4 303.9 427.2 282.1 427.2 255.2H329.7C329.7 282.1 351.6 303.9 378.5 303.9Z" fill="black"/>
<path d="M379.1 304.3C405.1 304.3 426.2 283.9 426.2 258.8H332C331.9 283.9 353.1 304.3 379.1 304.3Z" fill="white"/>
<path d="M378.4 283.601C382.266 283.601 385.4 280.467 385.4 276.601C385.4 272.735 382.266 269.601 378.4 269.601C374.534 269.601 371.4 272.735 371.4 276.601C371.4 280.467 374.534 283.601 378.4 283.601Z" fill="black"/>
<path d="M299.9 370.5C308.46 370.5 315.4 360.829 315.4 348.9C315.4 336.97 308.46 327.3 299.9 327.3C291.34 327.3 284.4 336.97 284.4 348.9C284.4 360.829 291.34 370.5 299.9 370.5Z" fill="black"/>
</svg>
