<svg width="600" height="600" viewBox="0 0 600 600" fill="none" xmlns="http://www.w3.org/2000/svg">
<path d="M299.9 336.8C287 336.8 276.7 355.5 276.7 378.6H323.3C323.3 355.5 312.9 336.8 299.9 336.8Z" fill="black"/>
<path d="M219.5 323.3C246 323.3 267.6 301.8 267.6 275.2C267.6 248.7 246.1 227.1 219.5 227.1C193 227.1 171.4 248.6 171.4 275.2C171.5 301.8 193 323.3 219.5 323.3Z" fill="black"/>
<path d="M219.5 318.199C243.2 318.199 262.4 298.999 262.4 275.299C262.4 251.599 243.2 232.399 219.5 232.399C195.8 232.399 176.6 251.599 176.6 275.299C176.6 298.999 195.8 318.199 219.5 318.199Z" fill="white"/>
<path d="M219.5 283.899C224.25 283.899 228.1 280.049 228.1 275.299C228.1 270.55 224.25 266.699 219.5 266.699C214.75 266.699 210.9 270.55 210.9 275.299C210.9 280.049 214.75 283.899 219.5 283.899Z" fill="black"/>
<path d="M380.5 323.3C407 323.3 428.5 301.8 428.5 275.2C428.5 248.7 407 227.1 380.5 227.1C354 227.1 332.4 248.6 332.4 275.2C332.4 301.8 354 323.3 380.5 323.3Z" fill="black"/>
<path d="M380.5 318.199C404.2 318.199 423.4 298.999 423.4 275.299C423.4 251.599 404.2 232.399 380.5 232.399C356.8 232.399 337.6 251.599 337.6 275.299C337.6 298.999 356.8 318.199 380.5 318.199Z" fill="white"/>
<path d="M380.5 283.899C385.25 283.899 389.1 280.049 389.1 275.299C389.1 270.55 385.25 266.699 380.5 266.699C375.75 266.699 371.9 270.55 371.9 275.299C371.9 280.049 375.75 283.899 380.5 283.899Z" fill="black"/>
</svg>
