<svg width="600" height="600" viewBox="0 0 600 600" fill="none" xmlns="http://www.w3.org/2000/svg">
<path d="M219.5 320.8C244.6 320.8 265 300.4 265 275.3C265 250.2 244.6 229.8 219.5 229.8C194.4 229.8 174 250.2 174 275.3C174 300.4 194.4 320.8 219.5 320.8Z" fill="black"/>
<path d="M380.5 320.8C405.6 320.8 426 300.4 426 275.3C426 250.2 405.6 229.8 380.5 229.8C355.4 229.8 335 250.2 335 275.3C335 300.4 355.4 320.8 380.5 320.8Z" fill="black"/>
<path d="M299.9 336.8C287 336.8 276.7 355.5 276.7 378.6H323.3C323.3 355.5 312.9 336.8 299.9 336.8Z" fill="black"/>
<path d="M219.5 318.2C243.2 318.2 262.4 299 262.4 275.3C262.4 251.6 243.2 232.4 219.5 232.4C195.8 232.4 176.6 251.6 176.6 275.3C176.6 299 195.8 318.2 219.5 318.2Z" fill="white"/>
<path d="M219.5 283.9C224.25 283.9 228.1 280.05 228.1 275.3C228.1 270.551 224.25 266.7 219.5 266.7C214.75 266.7 210.9 270.551 210.9 275.3C210.9 280.05 214.75 283.9 219.5 283.9Z" fill="black"/>
<path d="M380.5 318.2C404.2 318.2 423.4 299 423.4 275.3C423.4 251.6 404.2 232.4 380.5 232.4C356.8 232.4 337.6 251.6 337.6 275.3C337.6 299 356.8 318.2 380.5 318.2Z" fill="white"/>
<path d="M380.5 283.9C385.25 283.9 389.1 280.05 389.1 275.3C389.1 270.551 385.25 266.7 380.5 266.7C375.75 266.7 371.9 270.551 371.9 275.3C371.9 280.05 375.75 283.9 380.5 283.9Z" fill="black"/>
</svg>
