<svg name="body-fg-1" stroke="black" stroke-width="1" stroke-miterlimit="10" fill="#D9D9D9" width="600" height="600"
  viewBox="0 0 600 600" xmlns="http://www.w3.org/2000/svg">
  <path
    d="M298.8 168.6C299 169.7 300.6 169.7 300.8 168.5C303.3 146.3 308.7 72.5999 277 36.5999C277 36.5999 264.9 21.6999 249 28.3999C249 28.3999 221.1 34.2999 208.8 106.6C208.5 108.2 210.7 108.9 211.5 107.5C218.3 94.1999 232.6 70.8999 250.1 71.2999C250.1 71.3999 280.2 69.8999 298.8 168.6Z" />
  <path
    d="M206.3 207.9C207.2 208.5 208.4 207.4 207.6 206.5C193.7 189.1 145.4 133.1 97.4999 130.1C97.4999 130.1 78.3999 128.1 71.8999 144.1C71.8999 144.1 56.2999 168 98.7999 227.8C99.6999 229.1 101.8 228.1 101.3 226.5C96.6999 212.3 90.3999 185.7 103 173.6C103.1 173.7 123.3 151.3 206.3 207.9Z" />
  <path
    d="M168.6 301.2C169.7 301 169.7 299.4 168.5 299.2C146.3 296.7 72.5999 291.3 36.5999 323C36.5999 323 21.6999 335.1 28.3999 351C28.3999 351 34.2999 378.9 106.6 391.2C108.2 391.5 108.9 389.3 107.5 388.5C94.1999 381.7 70.8999 367.4 71.2999 349.9C71.3999 349.9 69.8999 319.8 168.6 301.2Z" />
  <path
    d="M207.9 393.7C208.5 392.8 207.4 391.6 206.5 392.4C189.1 406.3 133.1 454.6 130.1 502.5C130.1 502.5 128.1 521.6 144.1 528.1C144.1 528.1 168 543.7 227.8 501.2C229.1 500.3 228.1 498.2 226.5 498.7C212.3 503.3 185.7 509.6 173.6 497C173.7 496.9 151.3 476.7 207.9 393.7Z" />
  <path
    d="M301.2 431.4C301 430.3 299.4 430.3 299.2 431.5C296.7 453.7 291.3 527.4 323 563.4C323 563.4 335.1 578.3 351 571.6C351 571.6 378.9 565.7 391.2 493.4C391.5 491.8 389.3 491.1 388.5 492.5C381.7 505.8 367.4 529.1 349.9 528.7C349.9 528.6 319.8 530.1 301.2 431.4Z" />
  <path
    d="M393.7 392.1C392.8 391.5 391.6 392.6 392.4 393.5C406.3 410.9 454.6 466.9 502.5 469.9C502.5 469.9 521.6 471.9 528.1 455.9C528.1 455.9 543.7 432 501.2 372.2C500.3 370.9 498.2 371.9 498.7 373.5C503.3 387.7 509.6 414.3 497 426.4C496.9 426.3 476.7 448.7 393.7 392.1Z" />
  <path
    d="M431.4 298.8C430.3 299 430.3 300.6 431.5 300.8C453.7 303.3 527.4 308.7 563.4 277C563.4 277 578.3 264.9 571.6 249C571.6 249 565.7 221.1 493.4 208.8C491.8 208.5 491.1 210.7 492.5 211.5C505.8 218.3 529.1 232.6 528.7 250.1C528.6 250.1 530.1 280.2 431.4 298.8Z" />
  <path
    d="M392.1 206.3C391.5 207.2 392.6 208.4 393.5 207.6C410.9 193.7 466.9 145.4 469.9 97.4999C469.9 97.4999 471.9 78.3999 455.9 71.8999C455.9 71.8999 432 56.2999 372.2 98.7999C370.9 99.6999 371.9 101.8 373.5 101.3C387.7 96.6999 414.3 90.3999 426.4 103C426.3 103.1 448.7 123.3 392.1 206.3Z" />
  <path
    d="M196.8 61.1999L208.6 56.7999L202.4 67.6999L210.2 77.4999L197.9 74.9999L191 85.4999L189.6 72.9999L177.5 69.6999L188.9 64.4999L188.3 51.8999L196.8 61.1999Z" />
  <path
    d="M191.9 96.5999L195.3 89.6999L197.2 97.1999L204.9 98.2999L198.3 102.4L199.6 110L193.7 105L186.9 108.7L189.8 101.5L184.2 96.0999L191.9 96.5999Z" />
  <path
    d="M237.4 89.9999L240.8 82.9999L242.7 90.4999L250.4 91.5999L243.8 95.6999L245.1 103.3L239.2 98.3999L232.4 102L235.3 94.7999L229.7 89.3999L237.4 89.9999Z" />
  <path
    d="M58.1999 204.1L63.3999 192.7L66.6999 204.7L79.1999 206.1L68.6999 213.1L71.2999 225.4L61.3999 217.6L50.4999 223.8L54.8999 212L45.5999 203.5L58.1999 204.1Z" />
  <path
    d="M79.7999 232.6L77.1999 225.3L83.8999 229.3L90.0999 224.6L88.2999 232.2L94.6999 236.6L86.9999 237.3L84.6999 244.7L81.6999 237.6L73.8999 237.7L79.7999 232.6Z" />
  <path
    d="M107.2 195.7L104.7 188.4L111.4 192.4L117.5 187.7L115.8 195.3L122.1 199.7L114.4 200.4L112.2 207.8L109.1 200.7L101.4 200.8L107.2 195.7Z" />
  <path
    d="M61.1999 403.2L56.7999 391.4L67.6999 397.6L77.4999 389.8L74.9999 402.1L85.4999 409L72.9999 410.4L69.6999 422.5L64.4999 411.1L51.8999 411.7L61.1999 403.2Z" />
  <path
    d="M96.5999 408.1L89.6999 404.7L97.1999 402.8L98.2999 395.1L102.4 401.7L110 400.4L105 406.3L108.7 413.1L101.5 410.2L96.0999 415.8L96.5999 408.1Z" />
  <path
    d="M89.9999 362.6L82.9999 359.2L90.4999 357.3L91.5999 349.6L95.6999 356.2L103.3 354.9L98.3999 360.8L102 367.6L94.7999 364.7L89.3999 370.3L89.9999 362.6Z" />
  <path
    d="M204.1 541.8L192.7 536.6L204.7 533.3L206.1 520.8L213.1 531.3L225.4 528.7L217.6 538.6L223.8 549.5L212 545.1L203.5 554.4L204.1 541.8Z" />
  <path
    d="M232.6 520.2L225.3 522.8L229.3 516.1L224.6 509.9L232.2 511.7L236.6 505.3L237.3 513L244.7 515.3L237.6 518.3L237.7 526.1L232.6 520.2Z" />
  <path
    d="M195.7 492.8L188.4 495.3L192.4 488.6L187.7 482.5L195.3 484.2L199.7 477.9L200.4 485.6L207.8 487.8L200.7 490.9L200.8 498.6L195.7 492.8Z" />
  <path
    d="M403.2 538.8L391.4 543.2L397.6 532.3L389.8 522.5L402.1 525L409 514.5L410.4 527L422.5 530.3L411.1 535.5L411.7 548.1L403.2 538.8Z" />
  <path
    d="M408.1 503.4L404.7 510.3L402.8 502.8L395.1 501.7L401.7 497.6L400.4 490L406.3 495L413.1 491.3L410.2 498.5L415.8 503.9L408.1 503.4Z" />
  <path
    d="M362.6 510L359.2 517L357.3 509.5L349.6 508.4L356.2 504.3L354.9 496.7L360.8 501.6L367.6 498L364.7 505.2L370.3 510.6L362.6 510Z" />
  <path
    d="M541.8 395.9L536.6 407.3L533.3 395.3L520.8 393.9L531.3 386.9L528.7 374.6L538.6 382.4L549.5 376.2L545.1 388L554.4 396.5L541.8 395.9Z" />
  <path
    d="M520.2 367.4L522.8 374.7L516.1 370.7L509.9 375.4L511.7 367.8L505.3 363.4L513 362.7L515.3 355.3L518.3 362.4L526.1 362.3L520.2 367.4Z" />
  <path
    d="M492.8 404.3L495.3 411.6L488.6 407.6L482.5 412.3L484.2 404.7L477.9 400.3L485.6 399.6L487.8 392.2L490.9 399.3L498.6 399.2L492.8 404.3Z" />
  <path
    d="M538.8 196.8L543.2 208.6L532.3 202.4L522.5 210.2L525 197.9L514.5 191L527 189.6L530.3 177.5L535.5 188.9L548.1 188.3L538.8 196.8Z" />
  <path
    d="M503.4 191.9L510.3 195.3L502.8 197.2L501.7 204.9L497.6 198.3L490 199.6L495 193.7L491.3 186.9L498.5 189.8L503.9 184.2L503.4 191.9Z" />
  <path
    d="M510 237.4L517 240.8L509.5 242.7L508.4 250.4L504.3 243.8L496.7 245.1L501.6 239.2L498 232.4L505.2 235.3L510.6 229.7L510 237.4Z" />
  <path
    d="M395.9 58.1999L407.3 63.3999L395.3 66.6999L393.9 79.1999L386.9 68.6999L374.6 71.2999L382.4 61.3999L376.2 50.4999L388 54.8999L396.5 45.5999L395.9 58.1999Z" />
  <path
    d="M367.4 79.7999L374.7 77.1999L370.7 83.8999L375.4 90.0999L367.8 88.2999L363.4 94.6999L362.7 86.9999L355.3 84.6999L362.4 81.6999L362.3 73.8999L367.4 79.7999Z" />
  <path
    d="M404.3 107.2L411.6 104.7L407.6 111.4L412.3 117.5L404.7 115.8L400.3 122.1L399.6 114.4L392.2 112.2L399.3 109.1L399.2 101.4L404.3 107.2Z" />
</svg>