<svg width="600" height="600" viewBox="0 0 600 600" fill="none" xmlns="http://www.w3.org/2000/svg">
<path d="M430.578 66.9825L409.281 64.766L411.208 43.4688L396.271 58.6948L380.756 43.9506L383.358 65.1515L362.157 68.0425L375.841 76.4265C345.775 80.763 294.411 99.8438 300.578 179.444C300.578 179.444 310.022 116.997 378.154 83.1722L369.577 97.6274L389.718 90.3998L397.235 110.444L404.077 90.2071L424.411 96.7601L412.846 78.7393L430.578 66.9825Z" fill="#D9D9D9" stroke="#231F20" stroke-width="0.5" stroke-miterlimit="10"/>
<path d="M227.628 42.891L211.053 56.3825L197.368 40L197.561 61.3936L176.168 61.8755L193.032 75.0778L180.119 92.1349L195.73 88.4729C177.613 112.854 154.678 162.676 215.293 214.522C215.293 214.522 177.806 163.64 201.994 91.6531L206.138 107.939L215.196 88.5693L234.663 97.3388L225.219 78.1616L244.299 68.4285L223.291 63.8992L227.628 42.891Z" fill="#D9D9D9" stroke="#231F20" stroke-width="0.5" stroke-miterlimit="10"/>
<path d="M66.983 169.421L64.7665 190.719L43.4692 188.791L58.6953 203.728L43.9511 219.243L65.152 216.642L68.043 237.842L76.427 224.158C80.7635 254.225 99.8443 305.589 179.444 299.421C179.444 299.421 116.998 289.977 83.1727 221.845L97.6279 230.422L90.4003 210.281L110.445 202.765L90.2076 195.922L96.7606 175.589L78.7398 187.153L66.983 169.421Z" fill="#D9D9D9" stroke="#231F20" stroke-width="0.5" stroke-miterlimit="10"/>
<path d="M42.891 372.372L56.3825 388.947L40 402.631L61.3936 402.439L61.8755 423.832L75.0778 406.968L92.1349 419.881L88.4729 404.27C112.854 422.387 162.676 445.322 214.522 384.707C214.522 384.707 163.64 422.194 91.6531 398.006L107.939 393.862L88.4729 384.803L97.2424 365.337L78.0652 374.781L68.3321 355.7L63.8992 376.708L42.891 372.372Z" fill="#D9D9D9" stroke="#231F20" stroke-width="0.5" stroke-miterlimit="10"/>
<path d="M169.422 533.017L190.719 535.233L188.792 556.53L203.729 541.304L219.244 556.049L216.642 534.848L237.843 531.957L224.159 523.573C254.225 519.236 305.589 500.155 299.422 420.556C299.422 420.556 289.978 483.002 221.846 516.827L230.423 502.372L210.282 509.599L202.765 489.555L195.923 509.792L175.589 503.239L187.154 521.26L169.422 533.017Z" fill="#D9D9D9" stroke="#231F20" stroke-width="0.5" stroke-miterlimit="10"/>
<path d="M372.372 557.109L388.948 543.617L402.632 560L402.439 538.606L423.833 538.124L406.968 524.922L419.882 507.865L404.27 511.527C422.387 487.146 445.323 437.324 384.707 385.478C384.707 385.478 422.194 436.36 398.006 508.347L393.862 492.061L384.804 511.431L365.337 502.661L374.782 521.838L355.701 531.571L376.612 536.101L372.372 557.109Z" fill="#D9D9D9" stroke="#231F20" stroke-width="0.5" stroke-miterlimit="10"/>
<path d="M533.017 430.578L535.234 409.281L556.531 411.208L541.305 396.271L556.049 380.756L534.848 383.358L531.957 362.157L523.573 375.841C519.237 345.775 500.156 294.411 420.556 300.578C420.556 300.578 483.002 310.022 516.827 378.154L502.372 369.577L509.6 389.718L489.555 397.235L509.793 404.077L503.24 424.411L521.26 412.846L533.017 430.578Z" fill="#D9D9D9" stroke="#231F20" stroke-width="0.5" stroke-miterlimit="10"/>
<path d="M557.109 227.628L543.617 211.052L560 197.368L538.606 197.561L538.124 176.167L524.922 193.032L507.865 180.118L511.527 195.73C487.146 177.613 437.324 154.677 385.478 215.293C385.478 215.293 436.36 177.806 508.347 201.994L492.061 206.138L511.431 215.196L502.661 234.662L521.838 225.218L531.571 244.299L536.101 223.387L557.109 227.628Z" fill="#D9D9D9" stroke="#231F20" stroke-width="0.5" stroke-miterlimit="10"/>
</svg>
