<svg fill="#D9D9D9" stroke="#231F20" stroke-width="1" stroke-miterlimit="10" width="600" height="600" viewBox="0 0 600 600" fill="none" xmlns="http://www.w3.org/2000/svg">
    <path d="M430.578 66.9826L409.281 64.7661L411.208 43.4689L396.271 58.695L380.756 43.9507L383.358 65.1516L362.157 68.0426L375.841 76.4266C345.775 80.7632 294.411 99.8439 300.578 179.444C300.578 179.444 310.022 116.997 378.154 83.1723L369.577 97.6275L389.718 90.3999L397.235 110.444L404.077 90.2072L424.411 96.7602L412.847 78.7394L430.578 66.9826Z"/>
    <path d="M227.628 42.891L211.053 56.3825L197.368 40L197.561 61.3936L176.168 61.8755L193.032 75.0778L180.119 92.1349L195.73 88.4729C177.613 112.854 154.678 162.676 215.293 214.522C215.293 214.522 177.806 163.64 201.994 91.6531L206.138 107.939L215.197 88.5693L234.663 97.3388L225.219 78.1616L244.3 68.4285L223.291 63.8992L227.628 42.891Z"/>
    <path d="M66.983 169.422L64.7666 190.719L43.4693 188.792L58.6954 203.729L43.9512 219.244L65.1521 216.642L68.0431 237.843L76.4271 224.158C80.7636 254.225 99.8444 305.589 179.444 299.422C179.444 299.422 116.998 289.978 83.1728 221.846L97.628 230.422L90.4004 210.282L110.445 202.765L90.2077 195.923L96.7607 175.589L78.7399 187.153L66.983 169.422Z"/>
    <path d="M42.891 372.372L56.3825 388.947L40 402.631L61.3936 402.439L61.8755 423.832L75.0778 406.968L92.1349 419.881L88.4729 404.27C112.854 422.387 162.676 445.322 214.522 384.707C214.522 384.707 163.64 422.194 91.6531 398.006L107.939 393.862L88.4729 384.803L97.2424 365.337L78.0652 374.781L68.3321 355.7L63.8992 376.708L42.891 372.372Z"/>
    <path d="M169.422 533.017L190.719 535.233L188.792 556.531L203.729 541.305L219.244 556.049L216.642 534.848L237.843 531.957L224.159 523.573C254.225 519.236 305.589 500.156 299.422 420.556C299.422 420.556 289.978 483.002 221.846 516.827L230.423 502.372L210.282 509.6L202.765 489.555L195.923 509.792L175.589 503.239L187.153 521.26L169.422 533.017Z"/>
    <path d="M372.372 557.109L388.947 543.617L402.632 560L402.439 538.606L423.833 538.125L406.968 524.922L419.882 507.865L404.27 511.527C422.387 487.146 445.323 437.324 384.707 385.478C384.707 385.478 422.194 436.36 398.006 508.347L393.862 492.061L384.804 511.431L365.337 502.661L374.781 521.838L355.701 531.572L376.612 536.101L372.372 557.109Z"/>
    <path d="M533.017 430.578L535.234 409.281L556.531 411.208L541.305 396.271L556.049 380.756L534.848 383.358L531.957 362.157L523.573 375.841C519.237 345.775 500.156 294.411 420.556 300.578C420.556 300.578 483.002 310.022 516.827 378.154L502.372 369.577L509.6 389.718L489.555 397.235L509.793 404.077L503.24 424.411L521.26 412.847L533.017 430.578Z"/>
    <path d="M557.109 227.627L543.617 211.052L560 197.368L538.606 197.561L538.125 176.167L524.922 193.031L507.865 180.118L511.527 195.73C487.146 177.613 437.324 154.677 385.478 215.292C385.478 215.292 436.36 177.805 508.347 201.994L492.061 206.137L511.431 215.196L502.661 234.662L521.838 225.218L531.572 244.299L536.101 223.387L557.109 227.627Z"/>
</svg>
