<svg name="body-fg-2" fill="#D9D9D9" stroke="black" stroke-width="1" stroke-miterlimit="10" width="600" height="600"
  viewBox="0 0 600 600" xmlns="http://www.w3.org/2000/svg">
  <path
    d="M189.027 234.634L254.492 219.63L217.249 275.449L251.723 333.055L187.062 314.925L143.031 365.475L140.263 298.402L78.5486 272.145L141.513 248.835L147.408 181.94L189.027 234.634Z" />
  <path
    d="M288.341 394.055L336.837 424.421L280.75 435.674L266.817 491.136L238.773 441.301L181.703 445.141L220.464 403.075L199.119 350.024L251.098 373.96L295.04 337.164L288.341 394.055Z" />
  <path
    d="M338.356 463.718L355.146 474.257L335.766 478.097L330.943 497.299L321.297 480.062L301.559 481.401L314.956 466.844L307.543 448.535L325.495 456.752L340.678 444.069L338.356 463.718Z" />
  <path
    d="M377.295 499.085L383.994 509.356L372.115 506.498L364.435 516.054L363.452 503.819L352.02 499.442L363.273 494.798L363.899 482.563L371.847 491.851L383.636 488.636L377.295 499.085Z" />
  <path
    d="M415.699 491.494L425.166 499.264L412.931 500.157L408.465 511.499L403.91 500.157L391.674 499.442L401.052 491.583L398.016 479.705L408.376 486.224L418.647 479.615L415.699 491.494Z" />
  <path
    d="M194.832 183.012L193.939 163.185L208.139 176.939L226.627 170.062L217.964 187.835L230.289 203.286L210.73 200.517L199.834 216.95L196.44 197.48L177.327 192.211L194.832 183.012Z" />
  <path
    d="M201.798 130.854L206.443 119.512L210.819 130.943L223.055 131.836L213.587 139.607L216.535 151.485L206.175 144.876L195.815 151.306L198.94 139.428L189.563 131.569L201.798 130.854Z" />
  <path
    d="M173.755 103.525L174.826 91.3784L182.418 100.935L194.296 98.1661L187.598 108.348L193.939 118.886L182.15 115.582L174.112 124.87L173.576 112.635L162.323 107.901L173.755 103.525Z" />
  <path
    d="M132.225 397.806L162.769 395.663L142.049 418.258L153.481 446.659L125.616 433.888L102.127 453.536L105.699 423.081L79.7096 406.826L109.718 400.753L117.22 371.013L132.225 397.806Z" />
  <path
    d="M320.225 267.59L342.107 289.025L311.473 288.489L297.897 315.997L288.877 286.703L258.511 282.237L283.608 264.643L278.517 234.455L302.988 252.854L330.139 238.564L320.225 267.59Z" />
  <path
    d="M189.027 234.634L254.492 219.63L217.249 275.449L251.723 333.055L187.062 314.925L143.031 365.475L140.263 298.402L78.5486 272.145L141.513 248.835L147.408 181.94L189.027 234.634Z" />
  <path
    d="M288.341 394.055L336.837 424.421L280.75 435.674L266.817 491.136L238.773 441.301L181.703 445.141L220.464 403.075L199.119 350.024L251.098 373.96L295.04 337.164L288.341 394.055Z" />
  <path
    d="M338.356 463.718L355.146 474.257L335.766 478.097L330.943 497.299L321.297 480.062L301.559 481.401L314.956 466.844L307.543 448.535L325.495 456.752L340.678 444.069L338.356 463.718Z" />
  <path
    d="M377.295 499.085L383.994 509.356L372.115 506.498L364.435 516.054L363.452 503.819L352.02 499.442L363.273 494.798L363.899 482.563L371.847 491.851L383.636 488.636L377.295 499.085Z" />
  <path
    d="M415.699 491.494L425.166 499.264L412.931 500.157L408.465 511.499L403.91 500.157L391.674 499.442L401.052 491.583L398.016 479.705L408.376 486.224L418.647 479.615L415.699 491.494Z" />
  <path
    d="M194.832 183.012L193.939 163.185L208.139 176.939L226.627 170.062L217.964 187.835L230.289 203.286L210.73 200.517L199.834 216.95L196.44 197.48L177.327 192.211L194.832 183.012Z" />
  <path
    d="M201.798 130.854L206.443 119.512L210.819 130.943L223.055 131.836L213.587 139.607L216.535 151.485L206.175 144.876L195.815 151.306L198.94 139.428L189.563 131.569L201.798 130.854Z" />
  <path
    d="M173.755 103.525L174.826 91.3784L182.418 100.935L194.296 98.1661L187.598 108.348L193.939 118.886L182.15 115.582L174.112 124.87L173.576 112.635L162.323 107.901L173.755 103.525Z" />
  <path
    d="M132.225 397.806L162.769 395.663L142.049 418.258L153.481 446.659L125.616 433.888L102.127 453.536L105.699 423.081L79.7096 406.826L109.718 400.753L117.22 371.013L132.225 397.806Z" />
  <path
    d="M320.225 267.59L342.107 289.025L311.473 288.489L297.897 315.997L288.877 286.703L258.511 282.237L283.608 264.643L278.517 234.455L302.988 252.854L330.139 238.564L320.225 267.59Z" />
</svg>