<svg stroke="black" stroke-width="1" stroke-miterlimit="10" fill="#D9D9D9" width="600" height="600" viewBox="0 0 600 600" xmlns="http://www.w3.org/2000/svg">
    <path d="M321.055 143.427L344.506 131.785L320.889 120.06L329.953 100.351L311.741 108.75C309.746 84.634 304.673 67.5864 298.769 67.5864C292.864 67.5864 287.792 84.634 285.796 108.833L267.584 100.434L276.648 120.143L253.031 131.785L276.482 143.427L267.584 162.804L285.63 154.488C287.542 179.518 292.698 197.481 298.769 197.481C304.839 197.481 309.995 179.602 311.908 154.488L329.953 162.804L321.055 143.427Z"/>
    <path d="M175.277 202.304L176.941 176.192L154.987 190.745L142.43 173.115L140.6 193.073C118.729 182.762 101.349 178.604 98.4385 183.76C95.4448 188.915 107.752 201.805 127.627 215.609L111.328 227.169L132.866 229.164L131.203 255.443L152.991 240.973L165.298 258.353L167.128 238.561C189.747 249.372 207.876 253.946 210.87 248.707C213.863 243.468 200.974 230.079 180.267 215.859L196.483 204.383L175.277 202.304Z"/>
    <path d="M153.323 358.061L131.536 343.591L133.199 369.87L111.661 371.865L127.96 383.424C108.085 397.229 95.7774 410.202 98.7712 415.274C101.765 420.43 119.062 416.189 140.933 405.961L142.762 425.919L155.319 408.206L177.273 422.759L175.61 396.647L196.816 394.651L180.683 383.175C201.389 368.955 214.362 355.566 211.285 350.327C208.208 345.088 190.163 349.579 167.544 360.473L165.714 340.681L153.323 358.061Z"/>
    <path d="M277.23 454.858L253.78 466.5L277.397 478.226L268.332 497.934L286.544 489.535C288.623 513.651 293.613 530.782 299.517 530.782C305.421 530.782 310.494 513.735 312.49 489.535L330.702 497.934L321.637 478.226L345.255 466.5L321.804 454.858L330.702 435.482L312.656 443.798C310.744 418.767 305.588 400.805 299.517 400.805C293.446 400.805 288.291 418.684 286.378 443.798L268.332 435.482L277.23 454.858Z"/>
    <path d="M423.008 395.981L421.345 422.093L443.299 407.541L455.856 425.253L457.686 405.295C479.556 415.607 496.937 419.765 499.847 414.609C502.841 409.453 490.533 396.564 470.658 382.759L486.957 371.2L465.419 369.204L467.082 342.926L445.295 357.396L432.987 340.015L431.158 359.807C408.539 348.997 390.41 344.423 387.416 349.662C384.422 354.901 397.312 368.289 418.019 382.51L401.803 393.986L423.008 395.981Z"/>
    <path d="M444.962 240.308L466.75 254.777L465.087 228.499L486.625 226.503L470.326 214.944C490.201 201.14 502.508 188.167 499.515 183.094C496.521 177.938 479.224 182.18 457.353 192.408L455.523 172.45L442.966 190.163L421.012 175.527L422.676 201.639L401.47 203.635L417.686 215.111C396.979 229.331 384.007 242.719 387.084 247.958C390.16 253.197 408.206 248.707 430.825 237.813L432.655 257.605L444.962 240.308Z"/>
</svg>
