<svg fill="#D9D9D9" stroke="black" stroke-width="1" stroke-miterlimit="10" width="600" height="600" viewBox="0 0 600 600" fill="none" xmlns="http://www.w3.org/2000/svg">
    <path d="M111.2 130.4L122.5 148.5L126.5 132.4L134.6 152.5L114 177.2L146.2 174.9L163.2 202.2L170.3 174L202.5 214.6C206.3 210.3 210.3 206.2 214.6 202.5L174 170.3L202.1 163.2L174.8 146.2L177.1 114L152.4 134.6L132.3 126.5L148.4 122.5L130.3 111.2L131.8 89.9002L115.5 103.6L95.7 95.6002L103.7 115.4L90 131.9L111.2 130.4Z"/>
    <path d="M134.2 327.6L119.3 302.7L170.7 308.6C170.5 305.7 170.4 302.9 170.4 299.9C170.4 297 170.5 294.1 170.7 291.2L119.3 297.1L134.2 272.2L102.9 279.5L81.7 255.3L78.9 287.4L58.9 295.9L67.4 281.7L46.7 286.5L32.7 270.4L30.8 291.7L11.1 300L30.7 308.3L32.6 329.6L46.6 313.5L67.3 318.3L58.8 304.1L78.8 312.6L81.6 344.7L102.8 320.4L134.2 327.6Z"/>
    <path d="M255.3 81.7002L279.6 102.9L272.3 134.2L297.2 119.3L291.3 170.7C294.2 170.5 297 170.4 300 170.4C303 170.4 306 170.5 308.9 170.7L303 119.6L327.8 134.5L320.5 103.2L344.6 81.7002L312.5 78.9002L304 58.9002L318.2 67.4002L313.4 46.7002L329.5 32.7002L308.2 30.8002L299.9 11.2002L291.6 30.8002L270.3 32.7002L286.4 46.7002L281.6 67.4002L295.8 58.9002L287.3 78.9002L255.3 81.7002Z"/>
    <path d="M426.2 170.5L385.7 202.7C390 206.5 394 210.5 397.7 214.7L429.9 174.2L437 202.3L454 175L486.2 177.3L465.6 152.6L473.7 132.5L477.7 148.6L489 130.5L510.3 132L496.6 115.7L504.6 95.9002L484.8 103.9L468.5 90.2002L470 111.5L451.9 122.8L468 126.8L447.9 134.9L423 114.2L425.3 146.4L398 163.4L426.2 170.5Z"/>
    <path d="M488.7 469.9L477.4 451.8L473.4 467.9L465.3 447.8L485.9 423.1L453.7 425.4L436.7 398.1L429.6 426.2L397.4 385.6C393.6 389.9 389.6 393.9 385.3 397.6L426 429.9L397.8 437L425.1 454L422.8 486.2L447.5 465.6L467.6 473.7L451.5 477.7L469.6 489L468.1 510.3L484.4 496.6L504.2 504.6L496.2 484.8L509.9 468.5L488.7 469.9Z"/>
    <path d="M569.3 291.8L567.4 270.5L553.4 286.6L532.7 281.8L541.2 296L521.2 287.5L518.4 255.4L497.2 279.7L465.9 272.4L480.8 297.3L429.4 291.4C429.6 294.2 429.7 297.1 429.7 300C429.7 303 429.6 306 429.4 308.9L480.6 303L465.6 328L496.9 320.7L518.1 345L520.9 312.9L540.9 304.4L532.4 318.6L553.1 313.8L567.1 329.9L569 308.6L588.6 300.3L569.3 291.8Z"/>
    <path d="M344.7 518.4L320.4 497.2L327.7 465.9L302.9 480.8L308.8 429.3C305.9 429.5 303 429.6 300 429.6C297.1 429.6 294.2 429.5 291.3 429.3L297.2 480.7L272.3 465.8L279.6 497.1L255.3 518.4L287.4 521.2L295.9 541.2L281.7 532.7L286.5 553.4L270.5 567.4L291.8 569.3L300.1 588.9L308.4 569.3L329.7 567.4L313.6 553.4L318.4 532.7L304.2 541.2L312.7 521.2L344.7 518.4Z"/>
    <path d="M174 429.7L214.6 397.5C210.3 393.7 206.2 389.7 202.5 385.4L170.3 426L163.2 397.8L146.2 425.1L114 422.8L134.6 447.5L126.5 467.6L122.5 451.5L111.2 469.7L90 468.2L103.7 484.5L95.7 504.3L115.5 496.3L131.8 510L130.3 488.7L148.4 477.4L132.3 473.4L152.4 465.3L177.1 485.9L174.8 453.7L202.1 436.7L174 429.7Z"/>
</svg>
