<svg name="body-fg-5" fill="#D9D9D9" stroke="black" stroke-width="1" stroke-miterlimit="10" width="600" height="600"
  viewBox="0 0 600 600" xmlns="http://www.w3.org/2000/svg">
  <path
    d="M461.428 461.261C463.257 459.432 415.108 408.123 347.749 339.683C431.906 334.194 499.681 321.637 499.681 299.184C499.681 276.731 431.823 264.174 347.666 258.686C415.191 190.246 463.424 138.854 461.511 136.941C459.598 135.028 408.289 183.344 339.766 250.786C334.194 166.546 321.637 98.688 299.184 98.688C276.732 98.688 264.174 166.463 258.686 250.62C190.246 183.178 138.937 135.028 137.107 136.941C135.278 138.771 183.51 190.163 250.952 258.686C166.629 264.174 98.7712 276.731 98.7712 299.184C98.7712 321.637 166.629 334.194 250.786 339.683C183.344 408.04 135.195 459.349 137.107 461.261C138.937 463.091 190.246 414.942 258.686 347.583C264.174 431.823 276.732 499.598 299.184 499.598C321.721 499.598 334.194 431.657 339.683 347.417C408.206 414.859 459.515 463.091 461.428 461.261Z" />
</svg>