<svg width="600" height="600" viewBox="0 0 600 600" fill="none" xmlns="http://www.w3.org/2000/svg">
<path d="M250.1 67.6999L270 69.2999C274.4 69.6999 275.9 75.2999 272.3 77.7999L255.9 89.0999L254.3 109C253.9 113.4 248.3 114.9 245.8 111.3L234.5 94.8999L214.6 93.2999C210.2 92.8999 208.7 87.2999 212.3 84.7999L228.7 73.4999L230.3 53.5999C230.7 49.1999 236.3 47.6999 238.8 51.2999L250.1 67.6999Z" fill="#D9D9D9" stroke="black" stroke-width="0.4224" stroke-miterlimit="10"/>
<path d="M265.4 132.8L281.6 134.1C285.2 134.4 286.4 139 283.5 141L270.1 150.2L268.8 166.4C268.5 170 263.9 171.2 261.9 168.3L252.7 154.9L236.5 153.6C232.9 153.3 231.7 148.7 234.6 146.7L248 137.5L249.3 121.3C249.6 117.7 254.2 116.5 256.2 119.4L265.4 132.8Z" fill="#D9D9D9" stroke="black" stroke-width="0.3439" stroke-miterlimit="10"/>
<path d="M140.6 123.8L158.6 115.2C162.6 113.3 166.7 117.5 164.8 121.4L156.2 139.4L164.8 157.4C166.7 161.4 162.5 165.5 158.6 163.6L140.6 155L122.6 163.6C118.6 165.5 114.5 161.3 116.4 157.4L125 139.4L116.4 121.4C114.5 117.4 118.7 113.3 122.6 115.2L140.6 123.8Z" fill="#D9D9D9" stroke="black" stroke-width="0.4224" stroke-miterlimit="10"/>
<path d="M186.4 172.5L201.1 165.5C204.3 164 207.7 167.3 206.2 170.6L199.2 185.3L206.2 200C207.7 203.2 204.4 206.6 201.1 205.1L186.4 198.1L171.7 205.1C168.5 206.6 165.1 203.3 166.6 200L173.6 185.3L166.6 170.6C165.1 167.4 168.4 164 171.7 165.5L186.4 172.5Z" fill="#D9D9D9" stroke="black" stroke-width="0.3439" stroke-miterlimit="10"/>
<path d="M73.9 227.1L85.2 210.7C87.7 207.1 93.4 208.6 93.7 213L95.3 232.9L111.7 244.2C115.3 246.7 113.8 252.4 109.4 252.7L89.5 254.3L78.2 270.7C75.7 274.3 70 272.8 69.7 268.4L68.1 248.5L51.7 237.2C48.1 234.7 49.6 229 54 228.7L73.9 227.1Z" fill="#D9D9D9" stroke="black" stroke-width="0.4224" stroke-miterlimit="10"/>
<path d="M137.9 246.4L147.1 233C149.1 230.1 153.7 231.3 154 234.9L155.3 251.1L168.7 260.3C171.6 262.3 170.4 266.9 166.8 267.2L150.6 268.5L141.4 281.9C139.4 284.8 134.8 283.6 134.5 280L133.2 263.8L119.8 254.6C116.9 252.6 118.1 248 121.7 247.7L137.9 246.4Z" fill="#D9D9D9" stroke="black" stroke-width="0.3439" stroke-miterlimit="10"/>
<path d="M67.7 349.9L69.3 330C69.7 325.6 75.3 324.1 77.8 327.7L89.1 344.1L109 345.7C113.4 346.1 114.9 351.7 111.3 354.2L94.9 365.5L93.3 385.4C92.9 389.8 87.3 391.3 84.8 387.7L73.5 371.3L53.6 369.7C49.2 369.3 47.7 363.7 51.3 361.2L67.7 349.9Z" fill="#D9D9D9" stroke="black" stroke-width="0.4224" stroke-miterlimit="10"/>
<path d="M132.8 334.6L134.1 318.4C134.4 314.8 139 313.6 141 316.5L150.2 329.9L166.4 331.2C170 331.5 171.2 336.1 168.3 338.1L154.9 347.3L153.6 363.5C153.3 367.1 148.7 368.3 146.7 365.4L137.5 352L121.3 350.7C117.7 350.4 116.5 345.8 119.4 343.8L132.8 334.6Z" fill="#D9D9D9" stroke="black" stroke-width="0.3439" stroke-miterlimit="10"/>
<path d="M123.8 459.4L115.2 441.4C113.3 437.4 117.5 433.3 121.4 435.2L139.4 443.8L157.4 435.2C161.4 433.3 165.5 437.5 163.6 441.4L155 459.4L163.6 477.4C165.5 481.4 161.3 485.5 157.4 483.6L139.4 475L121.4 483.6C117.4 485.5 113.3 481.3 115.2 477.4L123.8 459.4Z" fill="#D9D9D9" stroke="black" stroke-width="0.4224" stroke-miterlimit="10"/>
<path d="M172.5 413.6L165.5 398.9C164 395.7 167.3 392.3 170.6 393.8L185.3 400.8L200 393.8C203.2 392.3 206.6 395.6 205.1 398.9L198.1 413.6L205.1 428.3C206.6 431.5 203.3 434.9 200 433.4L185.3 426.4L170.6 433.4C167.4 434.9 164 431.6 165.5 428.3L172.5 413.6Z" fill="#D9D9D9" stroke="black" stroke-width="0.3439" stroke-miterlimit="10"/>
<path d="M227.1 526.1L210.7 514.8C207.1 512.3 208.6 506.6 213 506.3L232.9 504.7L244.2 488.3C246.7 484.7 252.4 486.2 252.7 490.6L254.3 510.5L270.7 521.8C274.3 524.3 272.8 530 268.4 530.3L248.5 531.9L237.2 548.3C234.7 551.9 229 550.4 228.7 546L227.1 526.1Z" fill="#D9D9D9" stroke="black" stroke-width="0.4224" stroke-miterlimit="10"/>
<path d="M246.4 462.1L233 452.9C230.1 450.9 231.3 446.3 234.9 446L251.1 444.7L260.3 431.3C262.3 428.4 266.9 429.6 267.2 433.2L268.5 449.4L281.9 458.6C284.8 460.6 283.6 465.2 280 465.5L263.8 466.8L254.6 480.2C252.6 483.1 248 481.9 247.7 478.3L246.4 462.1Z" fill="#D9D9D9" stroke="black" stroke-width="0.3439" stroke-miterlimit="10"/>
<path d="M349.9 532.3L330 530.7C325.6 530.3 324.1 524.7 327.7 522.2L344.1 510.9L345.7 491C346.1 486.6 351.7 485.1 354.2 488.7L365.5 505.1L385.4 506.7C389.8 507.1 391.3 512.7 387.7 515.2L371.3 526.5L369.7 546.4C369.3 550.8 363.7 552.3 361.2 548.7L349.9 532.3Z" fill="#D9D9D9" stroke="black" stroke-width="0.4224" stroke-miterlimit="10"/>
<path d="M334.6 467.2L318.4 465.9C314.8 465.6 313.6 461 316.5 459L329.9 449.8L331.2 433.6C331.5 430 336.1 428.8 338.1 431.7L347.3 445.1L363.5 446.4C367.1 446.7 368.3 451.3 365.4 453.3L352 462.5L350.7 478.7C350.4 482.3 345.8 483.5 343.8 480.6L334.6 467.2Z" fill="#D9D9D9" stroke="black" stroke-width="0.3439" stroke-miterlimit="10"/>
<path d="M459.4 476.2L441.4 484.8C437.4 486.7 433.3 482.5 435.2 478.6L443.8 460.6L435.2 442.6C433.3 438.6 437.5 434.5 441.4 436.4L459.4 445L477.4 436.4C481.4 434.5 485.5 438.7 483.6 442.6L475 460.6L483.6 478.6C485.5 482.6 481.3 486.7 477.4 484.8L459.4 476.2Z" fill="#D9D9D9" stroke="black" stroke-width="0.4224" stroke-miterlimit="10"/>
<path d="M413.6 427.5L398.9 434.5C395.7 436 392.3 432.7 393.8 429.4L400.8 414.7L393.8 400C392.3 396.8 395.6 393.4 398.9 394.9L413.6 401.9L428.3 394.9C431.5 393.4 434.9 396.7 433.4 400L426.4 414.7L433.4 429.4C434.9 432.6 431.6 436 428.3 434.5L413.6 427.5Z" fill="#D9D9D9" stroke="black" stroke-width="0.3439" stroke-miterlimit="10"/>
<path d="M526.1 372.9L514.8 389.3C512.3 392.9 506.6 391.4 506.3 387L504.7 367.1L488.3 355.8C484.7 353.3 486.2 347.6 490.6 347.3L510.5 345.7L521.8 329.3C524.3 325.7 530 327.2 530.3 331.6L531.9 351.5L548.3 362.8C551.9 365.3 550.4 371 546 371.3L526.1 372.9Z" fill="#D9D9D9" stroke="black" stroke-width="0.4224" stroke-miterlimit="10"/>
<path d="M462.1 353.6L452.9 367C450.9 369.9 446.3 368.7 446 365.1L444.7 348.9L431.3 339.7C428.4 337.7 429.6 333.1 433.2 332.8L449.4 331.5L458.6 318.1C460.6 315.2 465.2 316.4 465.5 320L466.8 336.2L480.2 345.4C483.1 347.4 481.9 352 478.3 352.3L462.1 353.6Z" fill="#D9D9D9" stroke="black" stroke-width="0.3439" stroke-miterlimit="10"/>
<path d="M532.3 250.1L530.7 270C530.3 274.4 524.7 275.9 522.2 272.3L510.9 255.9L491 254.3C486.6 253.9 485.1 248.3 488.7 245.8L505.1 234.5L506.7 214.6C507.1 210.2 512.7 208.7 515.2 212.3L526.5 228.7L546.4 230.3C550.8 230.7 552.3 236.3 548.7 238.8L532.3 250.1Z" fill="#D9D9D9" stroke="black" stroke-width="0.4224" stroke-miterlimit="10"/>
<path d="M467.2 265.4L465.9 281.6C465.6 285.2 461 286.4 459 283.5L449.8 270.1L433.6 268.8C430 268.5 428.8 263.9 431.7 261.9L445.1 252.7L446.4 236.5C446.7 232.9 451.3 231.7 453.3 234.6L462.5 248L478.7 249.3C482.3 249.6 483.5 254.2 480.6 256.2L467.2 265.4Z" fill="#D9D9D9" stroke="black" stroke-width="0.3439" stroke-miterlimit="10"/>
<path d="M476.2 140.6L484.8 158.6C486.7 162.6 482.5 166.7 478.6 164.8L460.6 156.2L442.6 164.8C438.6 166.7 434.5 162.5 436.4 158.6L445 140.6L436.4 122.6C434.5 118.6 438.7 114.5 442.6 116.4L460.6 125L478.6 116.4C482.6 114.5 486.7 118.7 484.8 122.6L476.2 140.6Z" fill="#D9D9D9" stroke="black" stroke-width="0.4224" stroke-miterlimit="10"/>
<path d="M427.5 186.4L434.5 201.1C436 204.3 432.7 207.7 429.4 206.2L414.7 199.2L400 206.2C396.8 207.7 393.4 204.4 394.9 201.1L401.9 186.4L394.9 171.7C393.4 168.5 396.7 165.1 400 166.6L414.7 173.6L429.4 166.6C432.6 165.1 436 168.4 434.5 171.7L427.5 186.4Z" fill="#D9D9D9" stroke="black" stroke-width="0.3439" stroke-miterlimit="10"/>
<path d="M372.9 73.8998L389.3 85.1998C392.9 87.6998 391.4 93.3998 387 93.6998L367.1 95.2998L355.8 111.7C353.3 115.3 347.6 113.8 347.3 109.4L345.7 89.4998L329.3 78.1998C325.7 75.6998 327.2 69.9998 331.6 69.6998L351.5 68.0998L362.8 51.6998C365.3 48.0998 371 49.5998 371.3 53.9998L372.9 73.8998Z" fill="#D9D9D9" stroke="black" stroke-width="0.4224" stroke-miterlimit="10"/>
<path d="M353.6 137.9L367 147.1C369.9 149.1 368.7 153.7 365.1 154L348.9 155.3L339.7 168.7C337.7 171.6 333.1 170.4 332.8 166.8L331.5 150.6L318.1 141.4C315.2 139.4 316.4 134.8 320 134.5L336.2 133.2L345.4 119.8C347.4 116.9 352 118.1 352.3 121.7L353.6 137.9Z" fill="#D9D9D9" stroke="black" stroke-width="0.3439" stroke-miterlimit="10"/>
</svg>
