<svg fill="#D9D9D9" stroke="black" stroke-width="1" stroke-miterlimit="10" width="600" height="600" viewBox="0 0 600 600" fill="none" xmlns="http://www.w3.org/2000/svg">
    <path d="M300 242.7L446.3 128.9C462.5 118.5 481.5 137.5 471.1 153.7L357.3 300L471.1 446.3C481.5 462.5 462.5 481.5 446.3 471.1L300 357.3L153.7 471.1C137.5 481.5 118.5 462.5 128.9 446.3L242.7 300L128.9 153.7C118.5 137.5 137.5 118.5 153.7 128.9L300 242.7Z"/>
    <path d="M327.4 118.9C327.4 107.1 320 97.1001 309.6 93.2001C320 89.3001 327.4 79.3001 327.4 67.5001C327.4 52.4001 315.1 40.1001 300 40.1001C284.9 40.1001 272.6 52.4001 272.6 67.5001C272.6 79.3001 280 89.3001 290.4 93.2001C280 97.1001 272.6 107.1 272.6 118.9C272.6 130.7 280 140.7 290.4 144.6C280 148.5 272.6 158.5 272.6 170.3C272.6 185.4 284.9 197.7 300 197.7C315.1 197.7 327.4 185.4 327.4 170.3C327.4 158.5 320 148.5 309.6 144.6C320 140.6 327.4 130.6 327.4 118.9ZM286.9 85.2001L291.8 70.2001L279 60.9001C278.8 60.8001 278.9 60.5001 279.1 60.5001H294.9L299.8 45.5001C299.9 45.3001 300.1 45.3001 300.2 45.5001L305.1 60.5001H320.9C321.1 60.5001 321.2 60.7001 321 60.9001L308.2 70.2001L313.1 85.2001C313.2 85.4001 313 85.5001 312.8 85.4001L300 76.1001L287.2 85.4001C287.1 85.5001 286.9 85.4001 286.9 85.2001ZM313.2 165.2L305.1 171.1L308.2 180.6C308.2 180.7 308.1 180.8 308 180.7L299.9 174.8L291.8 180.7C291.7 180.8 291.6 180.7 291.6 180.6L294.7 171.1L286.6 165.2C286.5 165.1 286.6 165 286.7 165H296.7L299.8 155.5C299.8 155.4 300 155.4 300 155.5L303.1 165H313.1C313.3 165 313.3 165.2 313.2 165.2ZM316.5 113.2L306.5 120.5L310.3 132.3C310.3 132.4 310.2 132.6 310.1 132.5L300.1 125.2L290.1 132.5C290 132.6 289.8 132.5 289.9 132.3L293.7 120.5L283.7 113.2C283.6 113.1 283.6 112.9 283.8 112.9H296L299.8 101.1C299.8 101 300 101 300.1 101.1L303.9 112.9H316.3C316.5 112.9 316.6 113.1 316.5 113.2Z"/>
    <path d="M118.9 272.6C107.1 272.6 97.1 280 93.2 290.4C89.3 280 79.3 272.6 67.5 272.6C52.4 272.6 40.1 284.9 40.1 300C40.1 315.1 52.4 327.4 67.5 327.4C79.3 327.4 89.3 320 93.2 309.6C97.1 320 107.1 327.4 118.9 327.4C130.7 327.4 140.7 320 144.6 309.6C148.5 320 158.5 327.4 170.3 327.4C185.4 327.4 197.7 315.1 197.7 300C197.7 284.9 185.4 272.6 170.3 272.6C158.5 272.6 148.5 280 144.6 290.4C140.6 280 130.6 272.6 118.9 272.6ZM85.2 313.1L70.2 308.2L60.9 321C60.8 321.2 60.5 321.1 60.5 320.9V305.1L45.5 300.2C45.3 300.1 45.3 299.9 45.5 299.8L60.5 294.9V279.1C60.5 278.9 60.7 278.8 60.9 279L70.2 291.8L85.2 286.9C85.4 286.8 85.5 287 85.4 287.2L76.1 300L85.4 312.8C85.5 312.9 85.4 313.1 85.2 313.1ZM165.2 286.8L171.1 294.9L180.6 291.8C180.7 291.8 180.8 291.9 180.7 292L174.8 300.1L180.7 308.2C180.8 308.3 180.7 308.4 180.6 308.4L171.1 305.3L165.2 313.4C165.1 313.5 165 313.4 165 313.3V303.3L155.5 300.2C155.4 300.2 155.4 300 155.5 300L165 296.9V286.9C165 286.7 165.2 286.7 165.2 286.8ZM113.2 283.5L120.5 293.5L132.3 289.7C132.4 289.7 132.6 289.8 132.5 289.9L125.2 299.9L132.5 309.9C132.6 310 132.5 310.2 132.3 310.1L120.5 306.3L113.2 316.3C113.1 316.4 112.9 316.4 112.9 316.2V304L101.1 300.2C101 300.2 101 300 101.1 299.9L112.9 296.1V283.7C112.9 283.5 113.1 283.4 113.2 283.5Z"/>
    <path d="M272.6 481.1C272.6 492.9 280 502.9 290.4 506.8C280 510.7 272.6 520.7 272.6 532.5C272.6 547.6 284.9 559.9 300 559.9C315.1 559.9 327.4 547.6 327.4 532.5C327.4 520.7 320 510.7 309.6 506.8C320 502.9 327.4 492.9 327.4 481.1C327.4 469.3 320 459.3 309.6 455.4C320 451.5 327.4 441.5 327.4 429.7C327.4 414.6 315.1 402.3 300 402.3C284.9 402.3 272.6 414.6 272.6 429.7C272.6 441.5 280 451.5 290.4 455.4C280 459.4 272.6 469.4 272.6 481.1ZM313.1 514.8L308.2 529.8L321 539.1C321.2 539.2 321.1 539.5 320.9 539.5H305.1L300.2 554.5C300.1 554.7 299.9 554.7 299.8 554.5L294.9 539.5H279.1C278.9 539.5 278.8 539.3 279 539.1L291.8 529.8L286.9 514.8C286.8 514.6 287 514.5 287.2 514.6L300 523.9L312.8 514.6C312.9 514.5 313.1 514.6 313.1 514.8ZM286.8 434.8L294.9 428.9L291.8 419.4C291.8 419.3 291.9 419.2 292 419.3L300.1 425.2L308.2 419.3C308.3 419.2 308.4 419.3 308.4 419.4L305.3 428.9L313.4 434.8C313.5 434.9 313.4 435 313.3 435H303.3L300.2 444.5C300.2 444.6 300 444.6 300 444.5L296.9 435H286.9C286.7 435 286.7 434.8 286.8 434.8ZM283.5 486.8L293.5 479.5L289.7 467.7C289.7 467.6 289.8 467.4 289.9 467.5L299.9 474.8L309.9 467.5C310 467.4 310.2 467.5 310.1 467.7L306.3 479.5L316.3 486.8C316.4 486.9 316.4 487.1 316.2 487.1H304L300.2 498.9C300.2 499 300 499 299.9 498.9L296.1 487.1H283.7C283.5 487.1 283.4 486.9 283.5 486.8Z"/>
    <path d="M481.1 327.4C492.9 327.4 502.9 320 506.8 309.6C510.7 320 520.7 327.4 532.5 327.4C547.6 327.4 559.9 315.1 559.9 300C559.9 284.9 547.6 272.6 532.5 272.6C520.7 272.6 510.7 280 506.8 290.4C502.9 280 492.9 272.6 481.1 272.6C469.3 272.6 459.3 280 455.4 290.4C451.5 280 441.5 272.6 429.7 272.6C414.6 272.6 402.3 284.9 402.3 300C402.3 315.1 414.6 327.4 429.7 327.4C441.5 327.4 451.5 320 455.4 309.6C459.4 320 469.4 327.4 481.1 327.4ZM514.8 286.9L529.8 291.8L539.1 279C539.2 278.8 539.5 278.9 539.5 279.1V294.9L554.5 299.8C554.7 299.9 554.7 300.1 554.5 300.2L539.5 305.1V320.9C539.5 321.1 539.3 321.2 539.1 321L529.8 308.2L514.8 313.1C514.6 313.2 514.5 313 514.6 312.8L523.9 300L514.6 287.2C514.5 287.1 514.6 286.9 514.8 286.9ZM434.8 313.2L428.9 305.1L419.4 308.2C419.3 308.2 419.2 308.1 419.3 308L425.2 299.9L419.3 291.8C419.2 291.7 419.3 291.6 419.4 291.6L428.9 294.7L434.8 286.6C434.9 286.5 435 286.6 435 286.7V296.7L444.5 299.8C444.6 299.8 444.6 300 444.5 300L435 303.1V313.1C435 313.3 434.8 313.3 434.8 313.2ZM486.8 316.5L479.5 306.5L467.7 310.3C467.6 310.3 467.4 310.2 467.5 310.1L474.8 300.1L467.5 290.1C467.4 290 467.5 289.8 467.7 289.9L479.5 293.7L486.8 283.7C486.9 283.6 487.1 283.6 487.1 283.8V296L498.9 299.8C499 299.8 499 300 498.9 300.1L487.1 303.9V316.3C487.1 316.5 486.9 316.6 486.8 316.5Z"/>
</svg>
