<svg width="600" height="600" viewBox="0 0 600 600" fill="none" xmlns="http://www.w3.org/2000/svg">
<path d="M499.911 260.114C492.775 247.031 482.529 236.602 470.636 229.284C480.608 186.836 455.541 142.924 413.185 130.482C398.822 126.274 384.276 126.091 370.645 129.293C347.683 92.2423 298.923 78.8858 260.134 100.11C247.052 107.245 236.623 117.492 229.304 129.384C186.856 119.413 142.944 144.479 130.502 186.836C126.294 201.198 126.111 215.744 129.313 229.375C92.2625 252.337 78.906 301.098 100.13 339.887C107.266 352.969 117.512 363.398 129.405 370.716C119.433 413.165 144.499 457.076 186.856 469.518C201.219 473.726 215.765 473.909 229.395 470.707C252.358 507.758 301.118 521.115 339.907 499.89C352.989 492.755 363.418 482.509 370.737 470.616C413.185 480.588 457.097 455.521 469.538 413.165C473.746 398.802 473.929 384.256 470.728 370.625C507.778 347.663 521.043 298.902 499.911 260.114ZM465.33 355.073C462.677 349.309 459.384 343.912 455.541 338.88C454.352 337.325 451.882 338.606 452.522 340.436C454.992 348.212 456.365 356.445 456.548 364.77C450.693 370.259 444.014 375.108 436.604 379.041H436.513C434.775 379.956 435.598 382.518 437.519 382.335C443.74 381.511 449.869 380.048 455.907 377.761C455.267 382.975 454.169 388.19 452.522 393.404C441.727 428.076 411.812 451.587 377.872 455.704C380.068 449.758 381.623 443.628 382.446 437.316C382.721 435.395 380.068 434.572 379.153 436.31C375.311 443.537 370.554 450.307 364.79 456.345C356.74 456.162 348.598 454.881 340.547 452.319H340.456C338.626 451.77 337.345 454.149 338.901 455.338C343.841 459.181 349.238 462.474 355.093 465.127C350.976 468.329 346.494 471.256 341.645 473.818C309.443 490.742 271.752 486.168 244.856 465.127C250.62 462.474 256.017 459.181 261.049 455.338C262.604 454.149 261.323 451.679 259.493 452.319C251.717 454.789 243.484 456.162 235.159 456.345C229.67 450.49 224.821 443.811 220.888 436.401V436.31C219.973 434.572 217.411 435.395 217.594 437.316C218.417 443.537 219.881 449.666 222.168 455.704C216.954 455.064 211.739 453.966 206.525 452.319C171.853 441.524 148.342 411.609 144.225 377.669C150.171 379.865 156.301 381.42 162.613 382.243C164.534 382.518 165.357 379.865 163.619 378.95C156.392 375.108 149.622 370.351 143.584 364.587C143.767 356.537 145.048 348.395 147.61 340.344V340.253C148.159 338.423 145.78 337.142 144.591 338.697C140.748 343.638 137.455 349.035 134.802 354.89C131.6 350.773 128.673 346.291 126.111 341.442C109.187 309.24 113.761 271.549 134.802 244.653C137.455 250.416 140.748 255.814 144.591 260.845C145.78 262.401 148.25 261.12 147.61 259.29C145.14 251.514 143.767 243.281 143.584 234.956C149.439 229.467 156.118 224.618 163.528 220.684H163.619C165.357 219.77 164.534 217.208 162.613 217.391C156.392 218.214 150.263 219.678 144.225 221.965C144.865 216.751 145.963 211.536 147.61 206.322C158.405 171.649 188.32 148.138 222.26 144.022C220.064 149.968 218.509 156.097 217.686 162.41C217.411 164.331 220.064 165.154 220.979 163.416C224.821 156.189 229.578 149.419 235.342 143.381C243.392 143.564 251.534 144.845 259.585 147.407H259.676C261.506 147.955 262.787 145.577 261.232 144.388C256.291 140.545 250.894 137.252 245.039 134.599C249.156 131.397 253.638 128.47 258.487 125.908C290.689 108.984 328.38 113.558 355.276 134.599C349.513 137.252 344.115 140.545 339.084 144.388C337.528 145.577 338.809 148.047 340.639 147.407C348.415 144.936 356.648 143.564 364.973 143.381C370.462 149.236 375.311 155.914 379.245 163.325V163.416C380.159 165.154 382.721 164.331 382.538 162.41C381.715 156.189 380.251 150.06 377.964 144.022C383.178 144.662 388.393 145.76 393.607 147.407C428.279 158.202 451.791 188.116 455.907 222.057C449.961 219.861 443.832 218.306 437.519 217.482C435.598 217.208 434.775 219.861 436.513 220.776C443.74 224.618 450.51 229.375 456.548 235.139C456.365 243.189 455.084 251.331 452.522 259.382V259.473C451.974 261.303 454.352 262.584 455.541 261.028C459.384 256.088 462.677 250.691 465.33 244.836C468.532 248.953 471.459 253.435 474.021 258.284C490.945 290.394 486.371 328.177 465.33 355.073Z" fill="#D9D9D9"/>
<path d="M211.3 67.7001L227.5 62.4001L219.2 77.2001L229.2 91.0001L212.5 87.7001L202.5 101.5L200.5 84.5001L184.3 79.3001L199.8 72.2001V55.1001L211.3 67.7001Z" fill="#D9D9D9"/>
<path d="M73 198.4L80.8 183.2L85.4 199.6L102.2 202.3L88 211.7L90.7 228.6L77.3 218L62.1 225.7L68 209.8L56 197.7L73 198.4Z" fill="#D9D9D9"/>
<path d="M67.7 388.7L62.4 372.5L77.2 380.8L91 370.8L87.7 387.5L101.5 397.5L84.5 399.5L79.3 415.7L72.2 400.2H55.1L67.7 388.7Z" fill="#D9D9D9"/>
<path d="M198.4 527L183.2 519.2L199.6 514.6L202.3 497.8L211.7 512L228.6 509.3L218 522.7L225.7 537.9L209.8 532L197.7 544L198.4 527Z" fill="#D9D9D9"/>
<path d="M388.7 532.3L372.5 537.6L380.8 522.8L370.8 509L387.5 512.3L397.5 498.5L399.5 515.5L415.7 520.7L400.2 527.8V544.9L388.7 532.3Z" fill="#D9D9D9"/>
<path d="M527 401.6L519.2 416.8L514.6 400.4L497.8 397.7L512 388.3L509.3 371.4L522.7 382L537.9 374.3L532 390.2L544 402.3L527 401.6Z" fill="#D9D9D9"/>
<path d="M532.3 211.3L537.6 227.5L522.8 219.2L509 229.2L512.3 212.5L498.5 202.5L515.5 200.5L520.7 184.3L527.8 199.8H544.9L532.3 211.3Z" fill="#D9D9D9"/>
<path d="M401.6 73.0001L416.8 80.8001L400.4 85.4001L397.7 102.2L388.3 88.0001L371.4 90.7001L382 77.3001L374.3 62.1001L390.2 68.0001L402.3 56.0001L401.6 73.0001Z" fill="#D9D9D9"/>
<path d="M499.911 260.114C492.775 247.031 482.529 236.602 470.636 229.284C480.608 186.836 455.541 142.924 413.185 130.482C398.822 126.274 384.276 126.091 370.645 129.293C347.683 92.2423 298.923 78.8858 260.134 100.11C247.052 107.245 236.623 117.492 229.304 129.384C186.856 119.413 142.944 144.479 130.502 186.836C126.294 201.198 126.111 215.744 129.313 229.375C92.2625 252.337 78.906 301.098 100.13 339.887C107.266 352.969 117.512 363.398 129.405 370.716C119.433 413.165 144.499 457.076 186.856 469.518C201.219 473.726 215.765 473.909 229.395 470.707C252.358 507.758 301.118 521.115 339.907 499.89C352.989 492.755 363.418 482.509 370.737 470.616C413.185 480.588 457.097 455.521 469.538 413.165C473.746 398.802 473.929 384.256 470.728 370.625C507.778 347.663 521.043 298.902 499.911 260.114ZM465.33 355.073C462.677 349.309 459.384 343.912 455.541 338.88C454.352 337.325 451.882 338.606 452.522 340.436C454.992 348.212 456.365 356.445 456.548 364.77C450.693 370.259 444.014 375.108 436.604 379.041H436.513C434.775 379.956 435.598 382.518 437.519 382.335C443.74 381.511 449.869 380.048 455.907 377.761C455.267 382.975 454.169 388.19 452.522 393.404C441.727 428.076 411.812 451.587 377.872 455.704C380.068 449.758 381.623 443.628 382.446 437.316C382.721 435.395 380.068 434.572 379.153 436.31C375.311 443.537 370.554 450.307 364.79 456.345C356.74 456.162 348.598 454.881 340.547 452.319H340.456C338.626 451.77 337.345 454.149 338.901 455.338C343.841 459.181 349.238 462.474 355.093 465.127C350.976 468.329 346.494 471.256 341.645 473.818C309.443 490.742 271.752 486.168 244.856 465.127C250.62 462.474 256.017 459.181 261.049 455.338C262.604 454.149 261.323 451.679 259.493 452.319C251.717 454.789 243.484 456.162 235.159 456.345C229.67 450.49 224.821 443.811 220.888 436.401V436.31C219.973 434.572 217.411 435.395 217.594 437.316C218.417 443.537 219.881 449.666 222.168 455.704C216.954 455.064 211.739 453.966 206.525 452.319C171.853 441.524 148.342 411.609 144.225 377.669C150.171 379.865 156.301 381.42 162.613 382.243C164.534 382.518 165.357 379.865 163.619 378.95C156.392 375.108 149.622 370.351 143.584 364.587C143.767 356.537 145.048 348.395 147.61 340.344V340.253C148.159 338.423 145.78 337.142 144.591 338.697C140.748 343.638 137.455 349.035 134.802 354.89C131.6 350.773 128.673 346.291 126.111 341.442C109.187 309.24 113.761 271.549 134.802 244.653C137.455 250.416 140.748 255.814 144.591 260.845C145.78 262.401 148.25 261.12 147.61 259.29C145.14 251.514 143.767 243.281 143.584 234.956C149.439 229.467 156.118 224.618 163.528 220.684H163.619C165.357 219.77 164.534 217.208 162.613 217.391C156.392 218.214 150.263 219.678 144.225 221.965C144.865 216.751 145.963 211.536 147.61 206.322C158.405 171.649 188.32 148.138 222.26 144.022C220.064 149.968 218.509 156.097 217.686 162.41C217.411 164.331 220.064 165.154 220.979 163.416C224.821 156.189 229.578 149.419 235.342 143.381C243.392 143.564 251.534 144.845 259.585 147.407H259.676C261.506 147.955 262.787 145.577 261.232 144.388C256.291 140.545 250.894 137.252 245.039 134.599C249.156 131.397 253.638 128.47 258.487 125.908C290.689 108.984 328.38 113.558 355.276 134.599C349.513 137.252 344.115 140.545 339.084 144.388C337.528 145.577 338.809 148.047 340.639 147.407C348.415 144.936 356.648 143.564 364.973 143.381C370.462 149.236 375.311 155.914 379.245 163.325V163.416C380.159 165.154 382.721 164.331 382.538 162.41C381.715 156.189 380.251 150.06 377.964 144.022C383.178 144.662 388.393 145.76 393.607 147.407C428.279 158.202 451.791 188.116 455.907 222.057C449.961 219.861 443.832 218.306 437.519 217.482C435.598 217.208 434.775 219.861 436.513 220.776C443.74 224.618 450.51 229.375 456.548 235.139C456.365 243.189 455.084 251.331 452.522 259.382V259.473C451.974 261.303 454.352 262.584 455.541 261.028C459.384 256.088 462.677 250.691 465.33 244.836C468.532 248.953 471.459 253.435 474.021 258.284C490.945 290.394 486.371 328.177 465.33 355.073Z" stroke="black" stroke-width="0.5" stroke-miterlimit="10"/>
<path d="M211.3 67.7001L227.5 62.4001L219.2 77.2001L229.2 91.0001L212.5 87.7001L202.5 101.5L200.5 84.5001L184.3 79.3001L199.8 72.2001V55.1001L211.3 67.7001Z" stroke="black" stroke-width="0.5" stroke-miterlimit="10"/>
<path d="M73 198.4L80.8 183.2L85.4 199.6L102.2 202.3L88 211.7L90.7 228.6L77.3 218L62.1 225.7L68 209.8L56 197.7L73 198.4Z" stroke="black" stroke-width="0.5" stroke-miterlimit="10"/>
<path d="M67.7 388.7L62.4 372.5L77.2 380.8L91 370.8L87.7 387.5L101.5 397.5L84.5 399.5L79.3 415.7L72.2 400.2H55.1L67.7 388.7Z" stroke="black" stroke-width="0.5" stroke-miterlimit="10"/>
<path d="M198.4 527L183.2 519.2L199.6 514.6L202.3 497.8L211.7 512L228.6 509.3L218 522.7L225.7 537.9L209.8 532L197.7 544L198.4 527Z" stroke="black" stroke-width="0.5" stroke-miterlimit="10"/>
<path d="M388.7 532.3L372.5 537.6L380.8 522.8L370.8 509L387.5 512.3L397.5 498.5L399.5 515.5L415.7 520.7L400.2 527.8V544.9L388.7 532.3Z" stroke="black" stroke-width="0.5" stroke-miterlimit="10"/>
<path d="M527 401.6L519.2 416.8L514.6 400.4L497.8 397.7L512 388.3L509.3 371.4L522.7 382L537.9 374.3L532 390.2L544 402.3L527 401.6Z" stroke="black" stroke-width="0.5" stroke-miterlimit="10"/>
<path d="M532.3 211.3L537.6 227.5L522.8 219.2L509 229.2L512.3 212.5L498.5 202.5L515.5 200.5L520.7 184.3L527.8 199.8H544.9L532.3 211.3Z" stroke="black" stroke-width="0.5" stroke-miterlimit="10"/>
<path d="M401.6 73.0001L416.8 80.8001L400.4 85.4001L397.7 102.2L388.3 88.0001L371.4 90.7001L382 77.3001L374.3 62.1001L390.2 68.0001L402.3 56.0001L401.6 73.0001Z" stroke="black" stroke-width="0.5" stroke-miterlimit="10"/>
</svg>
