<svg name="body-fg-9" fill="#D9D9D9" stroke="black" stroke-width="1" stroke-miterlimit="10" width="600" height="600"
  viewBox="0 0 600 600" xmlns="http://www.w3.org/2000/svg">
  <path d="M434.9 184.2L413.1 188.9L408.9 213.4L404.8 188.9L383 184.2L404.8 179.5L408.9 155L413.1 179.5L434.9 184.2Z" />
  <path
    d="M437.9 147.7L400.3 134.6L374.4 164.7L387.5 127.2L357.4 101.2L394.9 114.3L420.9 84.2002L407.8 121.8L437.9 147.7Z" />
  <path
    d="M311.2 543.9L292.3 519.1L262.9 529.3L280.7 503.7L261.8 478.9L291.7 487.9L309.5 462.3L310.1 493.5L340 502.5L310.5 512.7L311.2 543.9Z" />
  <path
    d="M170.9 404L170.5 384.7L152.1 379.1L170.3 372.8L169.9 353.5L181.5 368.9L199.7 362.6L188.7 378.4L200.4 393.7L181.9 388.2L170.9 404Z" />
  <path
    d="M104 350.5L108 380.8L131.9 388L107.6 393.6L101.5 423.6L97.4001 393.3L73.6001 386.1L97.9001 380.5L104 350.5Z" />
  <path
    d="M283.1 51.5L300.5 79.3L324.8 57.2L313.9 88.2L346.3 93.4L315.3 104.2L331.4 132.8L303.7 115.3L291.3 145.7L287.7 113.1L256.2 122.5L279.5 99.3L252.6 80.5L285.2 84.2L283.1 51.5Z" />
  <path
    d="M189.4 408.2L197.3 447.8L234.9 433.1L208.8 463.9L243.8 484.1L203.4 482.9L209.4 522.8L185.2 490.6L157.7 520.2L167.8 481.1L127.6 478.1L164.4 461.6L141.7 428.3L177.5 446.8L189.4 408.2Z" />
  <path
    d="M500.6 168.7L487.3 193.6L514.2 202.3L486.4 207.5L496.5 233.9L475.1 215.4L460.7 239.7L461.8 211.5L433.8 215.4L456.6 198.7L436.1 179.2L463.4 186.6L465.8 158.4L477 184.4L500.6 168.7Z" />
  <path
    d="M229.1 149L201.7 132L177 152.9L184.7 121.6L157.2 104.6L189.4 102.2L197.1 70.7998L209.3 100.7L241.5 98.2998L216.9 119.2L229.1 149Z" />
  <path
    d="M102.7 474.4C110.708 474.4 117.2 467.908 117.2 459.9C117.2 451.892 110.708 445.4 102.7 445.4C94.6918 445.4 88.2 451.892 88.2 459.9C88.2 467.908 94.6918 474.4 102.7 474.4Z" />
  <path
    d="M258.9 202.3C274.53 202.3 287.2 189.63 287.2 174C287.2 158.371 274.53 145.7 258.9 145.7C243.27 145.7 230.6 158.371 230.6 174C230.6 189.63 243.27 202.3 258.9 202.3Z" />
  <path
    d="M381.3 89.0001C391.352 89.0001 399.5 80.8517 399.5 70.8001C399.5 60.7485 391.352 52.6001 381.3 52.6001C371.248 52.6001 363.1 60.7485 363.1 70.8001C363.1 80.8517 371.248 89.0001 381.3 89.0001Z" />
  <path
    d="M269.1 464.3C282.355 464.3 293.1 453.555 293.1 440.3C293.1 427.045 282.355 416.3 269.1 416.3C255.845 416.3 245.1 427.045 245.1 440.3C245.1 453.555 255.845 464.3 269.1 464.3Z" />
  <path
    d="M384.7 514.8C396.685 514.8 406.4 505.084 406.4 493.1C406.4 481.115 396.685 471.4 384.7 471.4C372.715 471.4 363 481.115 363 493.1C363 505.084 372.715 514.8 384.7 514.8Z" />
</svg>