<svg width="550" height="550" viewBox="0 0 275 275" fill="none" xmlns="http://www.w3.org/2000/svg">
<path d="M137.524 170.85C141.793 170.85 145.189 164.69 145.189 157.074H129.811C129.811 164.69 133.255 170.85 137.524 170.85Z" fill="black"/>
<path d="M100.608 148.196C112.772 148.196 122.632 138.336 122.632 126.173C122.632 114.01 112.772 104.15 100.608 104.15C88.4454 104.15 78.5852 114.01 78.5852 126.173C78.5852 138.336 88.4454 148.196 100.608 148.196Z" fill="black"/>
<path d="M100.608 145.819C111.459 145.819 120.255 137.023 120.255 126.173C120.255 115.323 111.459 106.527 100.608 106.527C89.7581 106.527 80.9622 115.323 80.9622 126.173C80.9622 137.023 89.7581 145.819 100.608 145.819Z" fill="white"/>
<path d="M105.896 126.173L113.755 121.662C111.863 116.229 106.721 112.299 100.608 112.299C92.944 112.299 86.6863 118.509 86.6863 126.222C86.6863 133.935 92.8955 140.144 100.608 140.144C106.672 140.144 111.863 136.215 113.755 130.781L105.896 126.173Z" fill="black"/>
<path d="M174.391 148.196C186.554 148.196 196.415 138.336 196.415 126.173C196.415 114.01 186.554 104.15 174.391 104.15C162.228 104.15 152.368 114.01 152.368 126.173C152.368 138.336 162.228 148.196 174.391 148.196Z" fill="black"/>
<path d="M174.391 145.819C185.242 145.819 194.038 137.023 194.038 126.173C194.038 115.323 185.242 106.527 174.391 106.527C163.541 106.527 154.745 115.323 154.745 126.173C154.745 137.023 163.541 145.819 174.391 145.819Z" fill="white"/>
<path d="M179.679 126.173L187.537 121.662C185.646 116.229 180.504 112.299 174.391 112.299C166.727 112.299 160.469 118.509 160.469 126.222C160.469 133.935 166.678 140.144 174.391 140.144C180.455 140.144 185.646 136.215 187.537 130.781L179.679 126.173Z" fill="black"/>
</svg>
