<svg width="600" height="600" viewBox="0 0 600 600" fill="none" xmlns="http://www.w3.org/2000/svg">
<path d="M226.1 351H374C381.7 351 385.3 343.6 379.5 339.7C353 321.9 292.9 294 220.8 339.6C214.7 343.4 218.2 351 226.1 351Z" fill="black"/>
<path d="M226.1 351H374C381.7 351 385.3 343.6 379.5 339.7C353 321.9 292.9 294 220.8 339.6C214.7 343.4 218.2 351 226.1 351Z" stroke="black" stroke-width="0.1479" stroke-miterlimit="10"/>
<path d="M193.7 293.5V358H245.7V278.2L193.7 293.5Z" fill="white"/>
<path d="M406.3 293.5V358H354.3V278.2L406.3 293.5Z" fill="white"/>
<path d="M220.493 288.281C241.347 282.678 257.892 276.795 257.448 275.141C257.004 273.488 239.738 276.69 218.885 282.294C198.031 287.898 181.486 293.781 181.93 295.434C182.374 297.087 199.64 293.885 220.493 288.281Z" fill="black"/>
<path d="M418.001 295.416C418.445 293.763 401.9 287.88 381.047 282.276C360.193 276.673 342.928 273.47 342.483 275.124C342.039 276.777 358.584 282.66 379.438 288.264C400.291 293.867 417.557 297.07 418.001 295.416Z" fill="black"/>
</svg>
