<?xml version="1.0" encoding="utf-8"?>

<svg version="1.1" xmlns="http://www.w3.org/2000/svg" xmlns:xlink="http://www.w3.org/1999/xlink" x="0px" y="0px"
  viewBox="0 0 566.9 566.9" style="enable-background:new 0 0 566.9 566.9;" xml:space="preserve">
  <style type="text/css">
    .st1 {
      fill: #FFF;
      stroke: #000000;
      stroke-miterlimit: 10;
    }
  </style>
  <g>
    <polygon class="st1" points="218.3,196.6 291.6,179.8 249.9,242.3 288.5,306.8 216.1,286.5 166.8,343.1 163.7,268 94.6,238.6 
		165.1,212.5 171.7,137.6 	" />
    <polygon class="st1" points="329.5,375.1 383.8,409.1 321,421.7 305.4,483.8 274,428 210.1,432.3 253.5,385.2 229.6,325.8 
		287.8,352.6 337,311.4 	" />
    <polygon class="st1" points="385.5,453.1 404.3,464.9 382.6,469.2 377.2,490.7 366.4,471.4 344.3,472.9 359.3,456.6 351,436.1 
		371.1,445.3 388.1,431.1 	" />
    <polygon class="st1" points="429.1,492.7 436.6,504.2 423.3,501 414.7,511.7 413.6,498 400.8,493.1 413.4,487.9 414.1,474.2 
		423,484.6 436.2,481 	" />
    <polygon class="st1" points="472.1,484.2 482.7,492.9 469,493.9 464,506.6 458.9,493.9 445.2,493.1 455.7,484.3 452.3,471 
		463.9,478.3 475.4,470.9 	" />
    <polygon class="st1" points="224.8,138.8 223.8,116.6 239.7,132 260.4,124.3 250.7,144.2 264.5,161.5 242.6,158.4 230.4,176.8 
		226.6,155 205.2,149.1 	" />
    <polygon class="st1" points="232.6,80.4 237.8,67.7 242.7,80.5 256.4,81.5 245.8,90.2 249.1,103.5 237.5,96.1 225.9,103.3 
		229.4,90 218.9,81.2 	" />
    <polygon class="st1" points="201.2,49.8 202.4,36.2 210.9,46.9 224.2,43.8 216.7,55.2 223.8,67 210.6,63.3 201.6,73.7 201,60 
		188.4,54.7 	" />
    <polygon class="st1" points="154.7,379.3 188.9,376.9 165.7,402.2 178.5,434 147.3,419.7 121,441.7 125,407.6 95.9,389.4 
		129.5,382.6 137.9,349.3 	" />
    <polygon class="st1" points="365.2,233.5 389.7,257.5 355.4,256.9 340.2,287.7 330.1,254.9 296.1,249.9 324.2,230.2 318.5,196.4 
		345.9,217 376.3,201 	" />
  </g>
</svg>