<?xml version="1.0" encoding="utf-8"?>

<svg version="1.1" xmlns="http://www.w3.org/2000/svg" xmlns:xlink="http://www.w3.org/1999/xlink" x="0px" y="0px"
  viewBox="0 0 566.9 566.9" style="enable-background:new 0 0 566.9 566.9;" xml:space="preserve">
  <style type="text/css">
    .st1 {
      fill: #FFF;
      stroke: #000000;
      stroke-miterlimit: 10;
    }
  </style>
  <g>
    <path class="st1" d="M474.7,232.3c-3.1-2.4-4.4-6.4-3.2-10.1c22.8-72.8-30.2-84.4-30.2-84.4c-31.5-8.1-55.7,11.5-68.7,26.1
		c10.4-16.5,23-45.8,6-74.1c0,0-26.2-47.4-89.5-4.9c-3.2,2.2-7.5,2.1-10.6-0.2c-15.1-11.1-60.4-38-92,9.4c0,0-20.2,32,3.7,69.1
		c-13.2-14.5-37.1-33.4-68-25.4c0,0-53,11.7-30.2,84.4c1.2,3.7-0.1,7.8-3.2,10.1c-14.9,11.3-53.6,47.1-17.2,90.9
		c0,0,19.4,22.2,53.2,18.9c-16.4,9-34.3,24.7-36.5,51.1c0,0-6.4,53.8,69.8,56.3c3.9,0.1,7.3,2.7,8.5,6.4
		c5.8,17.8,26.8,66.2,80.2,46.2c0,0,29-11.7,36-46.8c7,35.1,36,46.8,36,46.8c53.3,20,74.4-28.3,80.2-46.2c1.2-3.7,4.6-6.3,8.5-6.4
		c76.2-2.5,69.8-56.3,69.8-56.3c-2.2-26.2-19.9-41.9-36.2-50.9c32.5,2.3,51.1-19.1,51.1-19.1C528.3,279.4,489.6,243.7,474.7,232.3z
		 M307.2,308.8c-5.3-1.1-10.4,2.5-11.1,7.8l-13.6,104.7l-13.6-104.7c-0.7-5.3-5.8-9-11.1-7.8l-96,20.7l92.2-46.3
		c4.8-2.4,6.5-8.4,3.7-13L201.4,178c0,0-0.4-0.7-1.2-1.8c0.4,0.4,0.7,0.8,1.1,1.1l75.4,80.3c3.7,3.9,9.9,3.9,13.6-0.1l71.5-79.2
		l-56.1,91.8c-2.8,4.6-1.1,10.6,3.7,13l90.9,45.7L307.2,308.8z" />
  </g>
</svg>