<?xml version="1.0" encoding="utf-8"?>
<svg version="1.1" xmlns="http://www.w3.org/2000/svg" xmlns:xlink="http://www.w3.org/1999/xlink" x="0px" y="0px"
  viewBox="0 0 566.9 566.9" style="enable-background:new 0 0 566.9 566.9;" xml:space="preserve">
  <style type="text/css">
    .st1 {
      fill: #FFF;
      stroke: none;
      stroke-miterlimit: 10;
    }
  </style>
  <g>
    <path class="st1" d="M536.1,223.4c0,0-10.4-19.9-73.2-32.4c-1.5-0.3-2.1,1.8-0.7,2.4c15.4,6.5,37.9,19.3,37.9,39c0,0,2,26-59,43
		c0,0-28.3,12.3-147.2,9.3c-0.3,0-5-0.4-1.8-5.7l0,0c30.5-19.7,131.4-90.5,151.7-179.1c0,0,8.5-33.9-24.7-37.5
		c0,0-21.5-6.7-74.7,28.9c-1.2,0.8-0.2,2.7,1.2,2.2c15.5-6.3,40.5-13.2,54.4,0.8c0,0,19.8,17-11.3,72.1c0,0-11.4,28.8-97.9,111
		c-0.2,0.1-5.6,3.5-5-3.1l0,0c7.7-35.7,28.8-156.9-19.4-233.8c0,0-18-30-44-9c0,0-19.9,10.4-32.4,73.2c-0.3,1.5,1.8,2.1,2.4,0.7
		c6.5-15.4,19.3-37.9,39-37.9c0,0,26-2,43,59c0,0,12.3,28.4,9.3,147.5c0,0.3-0.9,6.8-5.6,1.7l0,0c-19.4-30.2-90.4-131.6-179.3-152
		c0,0-33.9-8.5-37.5,24.7c0,0-6.7,21.5,28.9,74.7c0.8,1.2,2.7,0.2,2.2-1.2c-6.3-15.5-13.2-40.5,0.8-54.4c0,0,17-19.8,72.1,11.3
		c0,0,28.9,11.4,111.5,98.4c0.6,0.7,4.2,5-2.8,4.6l0,0c-34.6-7.5-157.1-29.4-234.6,19.2c0,0-30,18-9,44c0,0,10.4,19.9,73.2,32.4
		c1.5,0.3,2.1-1.8,0.7-2.4c-15.4-6.5-37.9-19.3-37.9-39c0,0-2-26,59-43c0,0,28.5-12.3,148.5-9.3c0.1,0,4.9,1.2,1.7,4.9l0,0
		c-28.9,18.5-132.3,90.1-153,179.9c0,0-8.5,33.9,24.7,37.5c0,0,21.5,6.7,74.7-28.9c1.2-0.8,0.2-2.7-1.2-2.2
		c-15.5,6.3-40.5,13.2-54.4-0.8c0,0-19.8-17,11.3-72.1c0,0,11.5-29,98.9-112c0.3-0.2,4.9-3.6,4.3,2.3l0,0
		c-7.3,33.2-30.1,157.3,19,235.6c0,0,18,30,44,9c0,0,19.9-10.4,32.4-73.2c0.3-1.5-1.8-2.1-2.4-0.7c-6.5,15.4-19.3,37.9-39,37.9
		c0,0-26,2-43-59c0,0-12.4-28.6-9.3-149.2c0.1-0.4,1.1-5.9,4.8-1.2l0,0c18.3,28.7,90,132.5,180,153.1c0,0,33.9,8.5,37.5-24.7
		c0,0,6.7-21.5-28.9-74.7c-0.8-1.2-2.7-0.2-2.2,1.2c6.3,15.5,13.2,40.5-0.8,54.4c0,0-17,19.8-72.1-11.3c0,0-29-11.5-112.1-99
		c-0.1-0.2-2.5-4.2,4.8-3.7v0c36.4,7.8,156.7,28.4,233.2-19.5C527.1,267.4,557.1,249.4,536.1,223.4z" />
  </g>
</svg>