<svg width="1100" height="1100" viewBox="0 0 275 275" fill="none" xmlns="http://www.w3.org/2000/svg">
<path d="M260.835 113.027C256.421 110.65 251.279 110.068 246.428 111.135C237.454 113.124 214.266 118.266 188.071 124.184C184.578 124.96 181.037 123.165 179.63 119.867C179.582 119.721 179.533 119.576 179.436 119.479C177.884 116.083 179.194 112.057 182.395 110.068C199.907 99.2988 218.875 87.5596 232.845 78.5368C235.998 76.4994 238.618 73.6859 240.267 70.2902C243.566 63.6444 245.749 52.3902 233.282 39.9233C233.282 39.9233 221.349 29.0087 207.96 32.9379C203.158 34.3447 199.131 37.5948 196.415 41.8152C191.418 49.6252 178.515 69.9021 164.01 92.8471C162.07 95.9032 158.189 97.1159 154.842 95.7091C154.794 95.7091 154.745 95.6606 154.745 95.6606C151.301 94.2539 149.361 90.6157 150.185 86.9774C154.988 66.8945 160.13 44.9198 163.671 28.5721C164.447 24.8854 164.301 21.0531 163.089 17.4634C160.712 10.4781 154.26 0.970215 136.651 0.970215C136.651 0.970215 120.449 1.69786 113.803 13.9222C111.426 18.3366 110.844 23.4786 111.911 28.3295C113.9 37.3523 119.091 60.6368 125.009 87.026C125.833 90.6157 123.893 94.2054 120.497 95.5636C120.206 95.6606 119.915 95.8062 119.624 95.9032C116.229 97.3585 112.299 96.0972 110.359 92.9441C99.5899 75.4322 87.8021 56.4165 78.7793 42.4458C76.7419 39.2927 73.9284 36.6732 70.5327 35.0238C63.8869 31.7252 52.6327 29.5423 40.1658 42.0092C40.1658 42.0092 29.2512 53.9425 33.1805 67.3311C34.5872 72.1336 37.8374 76.1598 42.0577 78.8764C49.8192 83.8243 69.7566 96.5338 92.4105 110.844C95.5151 112.833 96.6793 116.762 95.224 120.158C95.1755 120.255 95.127 120.4 95.0785 120.497C93.6717 123.893 90.0335 125.785 86.4923 124.912C66.6035 120.158 45.0168 115.113 28.8631 111.62C25.1764 110.844 21.3442 110.99 17.7545 112.202C10.7206 114.579 1.21274 120.983 1.21274 138.64C1.21274 138.64 1.94038 154.842 14.1648 161.488C18.5791 163.865 23.7211 164.447 28.5721 163.38C37.4493 161.391 60.2002 156.346 86.1042 150.525C89.6939 149.7 93.3322 151.689 94.6904 155.133C94.7389 155.327 94.8359 155.473 94.8845 155.667C96.2912 159.062 95.03 162.943 91.9254 164.884C74.656 175.459 55.9799 187.052 42.2032 195.978C39.0501 198.016 36.4306 200.829 34.7813 204.225C31.4826 210.871 29.2997 222.125 41.7666 234.592C41.7666 234.592 53.6999 245.506 67.0886 241.577C71.891 240.17 75.9173 236.92 78.6338 232.7C83.4847 225.084 95.9032 205.583 109.971 183.317C111.911 180.213 115.889 179 119.236 180.455C119.527 180.601 119.818 180.698 120.109 180.795C123.505 182.201 125.397 185.84 124.524 189.429C119.818 209.124 114.822 230.42 111.378 246.379C110.602 250.066 110.747 253.898 111.96 257.488C114.337 264.522 120.74 274.03 138.397 274.03C138.397 274.03 154.6 273.302 161.245 261.078C163.622 256.663 164.204 251.521 163.137 246.671C161.197 237.793 156.152 215.188 150.331 189.429C149.555 185.888 151.398 182.298 154.745 180.94C155.182 180.746 155.618 180.601 156.055 180.407C159.451 178.903 163.477 180.116 165.417 183.317C175.992 200.49 187.44 218.923 196.269 232.603C198.307 235.756 201.12 238.375 204.516 240.025C211.162 243.323 222.416 245.506 234.883 233.039C234.883 233.039 245.797 221.106 241.868 207.717C240.461 202.915 237.211 198.889 232.991 196.172C225.278 191.273 205.583 178.709 183.075 164.496C180.067 162.604 178.806 158.771 180.164 155.473C180.31 155.133 180.455 154.794 180.552 154.454C181.862 150.913 185.597 148.924 189.235 149.797C208.93 154.503 230.177 159.451 246.185 162.895C249.872 163.671 253.704 163.525 257.294 162.313C264.328 159.936 273.836 153.532 273.836 135.875C273.787 135.875 273.06 119.673 260.835 113.027Z" fill="#FFC0CB"/>
</svg>
