<?xml version="1.0" encoding="utf-8"?>

<svg version="1.1" xmlns="http://www.w3.org/2000/svg" xmlns:xlink="http://www.w3.org/1999/xlink" x="0px" y="0px"
  viewBox="0 0 566.9 566.9" style="enable-background:new 0 0 566.9 566.9;" xml:space="preserve">
  <style type="text/css">
    .st1 {
      fill: #FFF;
      stroke: none;
      stroke-miterlimit: 10;
    }
  </style>
  <g>
    <path class="st1" d="M491.5,218.2c-71.7-22.8-125.4,41.2-125.4,41.2c-0.5,0.7-1,1.5-1.4,2.1c-2.7,4.5-6.8,7.9-11.8,9.5l-30.8,10.1
		c-3.3,1.1-6.8,1.5-10.3,1.1c-4.5-6.6-11.1-11.5-18.9-13.8c-1-2.7-1.5-5.6-1.5-8.4v-32.4c0-5.2,2-10.2,5.4-14.1
		c0.5-0.6,1.1-1.3,1.6-2c0,0,44-71,0-132c0,0-13-17-28,0c0,0-50,49,0,132c0,0,0.6,1,1.6,2.3c2.9,3.7,4.4,8.3,4.4,13v32.8
		c0,3-0.8,5.8-2,8.5c-8.5,2.1-15.7,7.3-20.5,14.4c-2.8,0.1-5.7-0.3-8.4-1.2l-30.8-10.1c-5-1.6-9.1-5.1-11.8-9.5
		c-0.4-0.7-0.9-1.4-1.4-2.1c0,0-53.7-64-125.4-41.2c0,0-20.2,7-8.7,26.6c0,0,31,62.8,125.4,41.2c0,0,1.1-0.2,2.7-0.8
		c4.4-1.6,9.3-1.6,13.7-0.1l31.2,10.2c2.9,0.9,5.4,2.6,7.6,4.7c0,0.6-0.1,1.3-0.1,1.9c0,8.7,3.2,16.7,8.5,22.9
		c-0.8,2-1.9,3.8-3.1,5.5l-19.4,25.9c-3.1,4.2-7.7,7-12.8,8.1c-0.8,0.2-1.6,0.4-2.5,0.6c0,0-77.8,30.4-79.2,105.6
		c0,0,0.2,21.4,22.4,16.8c0,0,69.4-9.2,79.2-105.6c0,0,0.1-1.1,0.1-2.8c-0.1-4.7,1.4-9.3,4.3-13.1l19.7-26.2c1.5-2,3.4-3.7,5.6-4.9
		c3.8,1.4,8,2.2,12.3,2.2c5,0,9.8-1.1,14.1-2.9c2.7,1.4,5.1,3.2,6.9,5.7l19.7,26.2c2.8,3.8,4.4,8.4,4.3,13.1c0,1.7,0.1,2.8,0.1,2.8
		c9.8,96.4,79.2,105.6,79.2,105.6c22.2,4.6,22.4-16.8,22.4-16.8c-1.4-75.2-79.2-105.6-79.2-105.6c-0.9-0.2-1.7-0.5-2.5-0.6
		c-5.1-1.1-9.7-3.9-12.8-8.1l-19.4-25.9c-1.9-2.5-3.3-5.3-4-8.3c4-5.7,6.3-12.6,6.3-20.1c0,0,0-0.1,0-0.1c0.1-0.1,0.1-0.1,0.2-0.2
		c2.4-2.9,5.5-5.2,9.1-6.4l31.2-10.2c4.5-1.5,9.3-1.5,13.7,0.1c1.6,0.6,2.7,0.8,2.7,0.8c94.5,21.6,125.4-41.2,125.4-41.2
		C511.7,225.3,491.5,218.2,491.5,218.2z" />
  </g>
</svg>