<?xml version="1.0" encoding="utf-8"?>
<svg version="1.1" xmlns="http://www.w3.org/2000/svg" xmlns:xlink="http://www.w3.org/1999/xlink" x="0px" y="0px"
  viewBox="0 0 566.9 566.9" style="enable-background:new 0 0 566.9 566.9;" xml:space="preserve">
  <style type="text/css">
    .st1 {
      fill: #FFF;
      stroke: none;
      stroke-miterlimit: 10;
    }
  </style>
  <g>
    <path class="st1" d="M286.4,291.8c6.1-20.9,28-82.3,80.2-114.8c1-0.7,1.2-2.1,0.2-2.9c-10.4-8.9-60.5-54.6-80.6-123.8
		c-0.5-1.7-3-1.8-3.5,0c-6.1,20.1-28.5,84.2-77.3,119.8c-1,0.7-1,2.2,0,2.9c10.8,7.8,60.6,47.2,77.5,118.7
		C283.3,293.5,285.8,293.6,286.4,291.8z" />
    <path class="st1" d="M274.9,298.3c-18-12.4-69.5-52.2-84.1-111.9c-0.3-1.2-1.6-1.8-2.7-1.1c-11.7,7.1-70.7,40.4-142.8,38.1
		c-1.8-0.1-2.6,2.3-1.1,3.3c17.3,12,71.1,53.3,89.7,110.7c0.4,1.2,1.8,1.7,2.8,0.9c10.8-7.8,63.7-42.9,137-36.6
		C275.6,301.8,276.4,299.4,274.9,298.3z" />
    <path class="st1" d="M277,310.3c-17.3,13.3-71.2,49.9-132.5,45.3c-1.2-0.1-2.2,1-1.9,2.2c3.1,13.4,16.6,79.8-8,147.6
		c-0.6,1.7,1.3,3.2,2.8,2.1c16.8-12.7,72.6-51.1,133.1-51.1c1.2,0,2.1-1.2,1.8-2.4c-4.1-12.7-21.1-73.9,7.5-141.6
		C280.5,310.8,278.5,309.2,277,310.3z" />
    <path class="st1" d="M288.7,313.6c7.3,20.5,25.8,83,2.7,140c-0.5,1.1,0.3,2.4,1.5,2.5c13.7,1.1,81,8.6,138.1,52.7
		c1.4,1.1,3.4-0.3,2.8-2c-7-19.9-26.5-84.8-8-142.3c0.4-1.2-0.5-2.4-1.7-2.4c-13.3,0-76.8-2.5-132.5-50.4
		C290.2,310.4,288.1,311.8,288.7,313.6z" />
    <path class="st1" d="M295,301.9c21.8-1,86.9-0.5,134.7,38.2c1,0.8,2.4,0.4,2.8-0.7c5-12.8,31.8-75,90.6-116.7
		c1.5-1.1,0.7-3.4-1.1-3.3c-21,0.9-88.8,0.6-138.5-33.8c-1-0.7-2.4-0.2-2.8,1c-3.9,12.8-24.7,72.7-86.9,112.1
		C292.4,299.5,293.2,302,295,301.9z" />
  </g>
</svg>