<?xml version="1.0" encoding="utf-8"?>
<svg version="1.1" xmlns="http://www.w3.org/2000/svg" xmlns:xlink="http://www.w3.org/1999/xlink" x="0px" y="0px"
  viewBox="0 0 566.9 566.9" style="enable-background:new 0 0 566.9 566.9;" xml:space="preserve">
  <style type="text/css">
    .st1 {
      fill: #FFF;
      stroke: none;
    }
  </style>
  <g>
    <path class="st1" d="M521.2,237.6c-8.4-4.6-18.3-5.7-27.6-3.6c-17.2,3.8-61.5,13.7-111.8,25c-6.7,1.5-13.5-2-16.2-8.2
		c-0.1-0.3-0.2-0.5-0.3-0.8c-2.9-6.5-0.4-14.3,5.7-18c33.5-20.6,69.8-43.1,96.6-60.4c6.1-3.9,11-9.3,14.2-15.8
		c6.3-12.7,10.5-34.3-13.4-58.2c0,0-22.9-20.9-48.5-13.4c-9.2,2.7-16.9,8.9-22.1,17c-9.5,15-34.3,53.8-62.1,97.8
		c-3.7,5.9-11.1,8.1-17.6,5.5c-0.1,0-0.2-0.1-0.2-0.1c-6.6-2.7-10.4-9.7-8.7-16.6c9.2-38.5,19-80.5,25.8-111.9
		c1.5-7.1,1.2-14.4-1.1-21.3C329.5,41.2,317.2,23,283.4,23c0,0-31,1.4-43.7,24.8c-4.6,8.4-5.7,18.3-3.6,27.6
		c3.8,17.3,13.7,61.9,25.1,112.4c1.5,6.8-2.1,13.8-8.6,16.4c-0.6,0.2-1.1,0.5-1.7,0.7c-6.5,2.7-14,0.4-17.7-5.6
		c-20.6-33.6-43.2-69.9-60.5-96.8c-3.9-6.1-9.3-11-15.8-14.2c-12.7-6.3-34.3-10.5-58.2,13.4c0,0-20.9,22.9-13.4,48.5
		c2.7,9.2,8.9,16.9,17,22.1c14.8,9.5,53.1,33.8,96.5,61.2c6,3.8,8.2,11.3,5.4,17.8c-0.1,0.2-0.2,0.5-0.3,0.7
		c-2.7,6.5-9.7,10.1-16.5,8.5C149.3,251.3,108,241.6,77,235c-7.1-1.5-14.4-1.2-21.3,1.1c-13.5,4.5-31.7,16.9-31.7,50.6
		c0,0,1.4,31,24.8,43.7c8.4,4.6,18.3,5.7,27.6,3.6c17-3.8,60.6-13.4,110.1-24.6c6.9-1.6,13.8,2.2,16.4,8.8c0.1,0.3,0.3,0.7,0.4,1
		c2.7,6.5,0.3,14-5.7,17.6c-33.1,20.4-68.9,42.5-95.3,59.6c-6.1,3.9-11,9.3-14.2,15.8c-6.3,12.7-10.5,34.3,13.4,58.2
		c0,0,22.9,20.9,48.5,13.4c9.2-2.7,16.9-8.9,22.1-17c9.3-14.6,33.1-52,60.1-94.6c3.8-5.9,11.3-8.2,17.7-5.4c0.5,0.2,1.1,0.5,1.6,0.7
		c6.5,2.7,10.1,9.7,8.5,16.5c-9,37.7-18.5,78.5-25.1,109.1c-1.5,7.1-1.2,14.4,1.1,21.3c4.5,13.5,16.9,31.7,50.6,31.7
		c0,0,31-1.4,43.7-24.8c4.6-8.4,5.7-18.3,3.6-27.6c-3.8-17-13.4-60.3-24.5-109.7c-1.5-6.8,2-13.7,8.5-16.3c0.8-0.3,1.7-0.7,2.5-1.1
		c6.5-2.9,14.2-0.5,17.9,5.6c20.2,32.9,42.2,68.2,59.1,94.4c3.9,6.1,9.3,11,15.8,14.2c12.7,6.3,34.3,10.5,58.2-13.4
		c0,0,20.9-22.9,13.4-48.5c-2.7-9.2-8.9-16.9-17-22.1c-14.7-9.4-52.5-33.5-95.6-60.7c-5.8-3.7-8.2-10.9-5.6-17.3
		c0.3-0.7,0.5-1.3,0.8-2c2.5-6.8,9.7-10.6,16.7-8.9c37.7,9,78.4,18.5,109,25.1c7.1,1.5,14.4,1.2,21.3-1.1
		c13.5-4.5,31.7-16.9,31.7-50.6C546.1,281.4,544.7,250.4,521.2,237.6z" />
  </g>
</svg>