<?xml version="1.0" encoding="utf-8"?>

<svg version="1.1" xmlns="http://www.w3.org/2000/svg" xmlns:xlink="http://www.w3.org/1999/xlink" x="0px" y="0px"
  viewBox="0 0 566.9 566.9" style="enable-background:new 0 0 566.9 566.9;" xml:space="preserve">
  <style type="text/css">
    .st1 {
      fill: #FFF;
      stroke: #000000;
      stroke-width: 0.8588;
      stroke-miterlimit: 10;
    }
  </style>
  <g>
    <polygon class="st1" points="551.2,214.9 511.8,215.8 498.8,178.6 487.5,216.3 448.1,217.3 471.5,233.5 452.6,233.9 436.9,189.1 
		423.3,234.6 375.9,235.7 402.9,254.4 319,254.4 292.4,172.7 320.3,193 305.6,147.9 344,120 296.6,120 290.7,102 313.8,118.7 
		301.6,81.3 333.4,58.1 294.1,58.1 281.9,20.7 269.7,58.1 230.4,58.1 262.2,81.3 250.1,118.7 273.1,102 267.2,120 219.8,120 
		258.2,147.9 243.5,193 271.4,172.7 244.8,254.4 161.7,254.4 189.8,236.9 142.5,233.5 131.1,187.4 113.2,231.3 94.4,229.9 
		118.6,214.9 79.3,212.1 69.9,173.8 55,210.3 15.8,207.4 45.9,232.8 31,269.3 64.5,248.5 94.5,273.9 87.7,246.3 102.2,258.5 
		84.3,302.4 124.6,277.4 160.9,308 152.6,274.5 221.9,324.9 196,404.7 187,373.4 170.8,418 123.4,416.4 160.8,445.6 154.3,463.3 
		146.5,436 133,473 93.7,471.6 124.7,495.8 111.2,532.8 143.9,510.8 174.9,535 164,497.2 196.7,475.2 168.2,474.2 183.9,463.6 
		221.3,492.8 208.2,447.2 247.5,420.7 211.7,419.4 281.9,368.4 352.1,419.4 316.9,420.7 356.3,447.2 343.2,492.8 380.6,463.6 
		396.2,474.2 367.8,475.2 400.4,497.2 389.6,535 420.6,510.8 453.2,532.8 439.8,495.8 470.8,471.6 431.5,473 418,436 410.1,463.3 
		403.7,445.6 441.1,416.4 393.7,418 377.5,373.4 368.2,405.8 341.9,324.9 411.4,274.4 401.3,308.1 439,279.3 478,306.3 462.3,261.6 
		477.3,250.1 469.2,277.4 500.5,253.5 532.9,275.9 519.8,238.8 	" />
  </g>
</svg>