<?xml version="1.0" encoding="utf-8"?>

<svg version="1.1" xmlns="http://www.w3.org/2000/svg" xmlns:xlink="http://www.w3.org/1999/xlink" x="0px" y="0px"
  viewBox="0 0 566.9 566.9" style="enable-background:new 0 0 566.9 566.9;" xml:space="preserve">
  <style type="text/css">
    .st1 {
      fill: #FFF;
      stroke: #000000;
      stroke-miterlimit: 10;
    }
  </style>
  <g>
    <path class="st1" d="M283.5,35.5c-137,0-248,111-248,248s111,248,248,248s248-111,248-248S420.5,35.5,283.5,35.5z M374.7,438.8
		l-80.4-58.4c-6.4-4.7-15.2-4.7-21.6,0l-80.4,58.4c-14.4,10.5-33.8-3.6-28.3-20.5l30.7-94.6c2.5-7.6-0.2-15.9-6.7-20.5l-80.4-58.4
		c-14.4-10.5-7-33.2,10.8-33.2h99.4c8,0,15-5.1,17.5-12.7l30.7-94.6c5.5-16.9,29.4-16.9,34.9,0l30.7,94.6
		c2.5,7.6,9.5,12.7,17.5,12.7h99.4c17.8,0,25.2,22.8,10.8,33.2l-80.4,58.4c-6.4,4.7-9.1,13-6.7,20.5l30.7,94.6
		C408.5,435.2,389.1,449.2,374.7,438.8z" />
  </g>
</svg>