<?xml version="1.0" encoding="utf-8"?>
<svg version="1.1" xmlns="http://www.w3.org/2000/svg" xmlns:xlink="http://www.w3.org/1999/xlink" x="0px" y="0px"
  viewBox="0 0 566.9 566.9" style="enable-background:new 0 0 566.9 566.9;" xml:space="preserve">
  <style type="text/css">
    .st1 {
      fill: #FFF;
      stroke: none;
      stroke-miterlimit: 10;
    }
  </style>
  <g>
    <path class="st1" d="M525.7,283h-76.4c-2.4,0-3.5-3-1.8-4.6c0.6-0.6,1.3-1.2,1.9-1.8c0,0,83.5-71,8.9-164.6c-1-1.2-2.8-1.3-3.9-0.2
		l-53.5,53.5c-1.7,1.7-4.6,0.4-4.5-2c0-0.6,0.1-1.2,0.1-1.9c0,0,8.9-109.2-110.1-122.7c-1.6-0.2-2.9,1.1-2.9,2.6v75
		c0,2.4-2.9,3.5-4.6,1.8c-0.5-0.6-1.1-1.2-1.6-1.8c0,0-71-83.5-164.6-8.9c-1.2,1-1.3,2.8-0.2,3.9l54.2,54.2c1.7,1.7,0.4,4.6-2,4.5
		c-1-0.1-2.1-0.1-3.1-0.1c0,0-109.2-8.9-122.7,110.1c-0.2,1.6,1.1,2.9,2.6,2.9h74.9c2.4,0,3.5,2.9,1.8,4.5c0,0,0,0-0.1,0
		c0,0-83.5,71-8.9,164.6c1,1.2,2.8,1.3,3.9,0.2l53.5-53.5c1.7-1.7,4.6-0.4,4.5,2c-0.1,1.2-0.1,2.4-0.2,3.7
		c0,0-8.9,109.2,110.1,122.7c1.6,0.2,2.9-1.1,2.9-2.6v-75.9c0-2.4,2.9-3.5,4.6-1.8c0.6,0.6,1.1,1.2,1.7,1.8c0,0,71,83.5,164.6,8.9
		c1.2-1,1.3-2.8,0.2-3.9l-53.3-53.3c-1.7-1.7-0.4-4.6,2-4.5c0.6,0,1.2,0.1,1.9,0.1c0,0,109.2,8.9,122.7-110.1
		C528.4,284.4,527.2,283,525.7,283z" />
  </g>
</svg>