<svg width="600" height="600" viewBox="0 0 600 600" fill="none" xmlns="http://www.w3.org/2000/svg">
<path d="M337.2 381H262.9C260.8 381 259.2 379.1 259.5 377L267.1 334.2C267.4 332.6 268.8 331.3 270.5 331.3H329.7C331.4 331.3 332.8 332.5 333.1 334.2L340.7 377C340.9 379.1 339.3 381 337.2 381Z" fill="black"/>
<path d="M244.6 283.7H203.5C199.5 283.7 196.2 280.5 196.2 276.4V275.8C196.2 271.8 199.4 268.5 203.5 268.5H244.6C248.6 268.5 251.9 271.7 251.9 275.8V276.4C251.9 280.4 248.6 283.7 244.6 283.7Z" fill="white"/>
<path d="M210.6 301.8C210.2 301.6 209.6 301.4 209.1 301.2C209.2 301.2 209.7 301.4 210.6 301.8Z" fill="black"/>
<path d="M250.9 269.2C246.8 268.3 242.6 267.7 238.3 267.3C242.1 267.1 245.7 266.9 248.9 266.4C248.9 266.4 233 262.7 215.7 264.2C210.4 263.5 199 262.6 186.8 265.7C186.8 265.7 194.5 265.2 206.9 265.4C205.4 265.7 203.9 266 202.5 266.4C202.5 266.4 204.5 266.6 207.6 266.7C193.5 267.4 183.2 269.1 183.2 269.1C187 269.7 199.1 270.2 212.2 270.4C203.5 271.2 197.5 272.4 197.5 272.4L251.2 273.5C247.7 272.2 243.8 271.4 239.9 270.8C248.3 270.9 254.2 270.9 254.2 270.9C254.2 270.9 280.5 275.5 250.9 269.2Z" fill="black"/>
<path d="M197.3 283.7C201.4 284.6 205.6 285.2 209.9 285.6C206.1 285.8 202.5 286 199.3 286.5C199.3 286.5 215.2 290.2 232.5 288.7C237.8 289.4 249.2 290.3 261.4 287.2C261.4 287.2 253.7 287.7 241.3 287.5C242.8 287.2 244.3 286.9 245.7 286.5C245.7 286.5 243.7 286.3 240.6 286.2C254.7 285.5 265 283.8 265 283.8C261.2 283.2 249.1 282.7 236 282.5C244.7 281.7 250.7 280.5 250.7 280.5L197 279.4C200.5 280.7 204.4 281.5 208.3 282.1C199.9 282 194 282 194 282C194 282 167.7 277.4 197.3 283.7Z" fill="black"/>
<path d="M210.6 262.6C210.6 262.6 238.8 261.2 252.2 263.8C252.2 263.9 225.7 256.9 210.6 262.6Z" fill="black"/>
<path d="M396 283.7H354.9C350.9 283.7 347.6 280.5 347.6 276.4V275.8C347.6 271.8 350.8 268.5 354.9 268.5H396C400 268.5 403.3 271.7 403.3 275.8V276.4C403.2 280.4 400 283.7 396 283.7Z" fill="white"/>
<path d="M362 301.8C361.6 301.6 361 301.4 360.5 301.2C360.6 301.2 361.1 301.4 362 301.8Z" fill="black"/>
<path d="M402.3 269.2C398.2 268.3 394 267.7 389.7 267.3C393.5 267.1 397.1 266.9 400.3 266.4C400.3 266.4 384.4 262.7 367.1 264.2C361.8 263.5 350.4 262.6 338.2 265.7C338.2 265.7 345.9 265.2 358.3 265.4C356.8 265.7 355.3 266 353.9 266.4C353.9 266.4 355.9 266.6 359 266.7C344.9 267.4 334.6 269.1 334.6 269.1C338.4 269.7 350.5 270.2 363.6 270.4C354.9 271.2 348.9 272.4 348.9 272.4L402.6 273.5C399.1 272.2 395.2 271.4 391.3 270.8C399.7 270.9 405.6 270.9 405.6 270.9C405.6 270.9 431.9 275.5 402.3 269.2Z" fill="black"/>
<path d="M348.6 283.7C352.7 284.6 356.9 285.2 361.2 285.6C357.4 285.8 353.8 286 350.6 286.5C350.6 286.5 366.5 290.2 383.8 288.7C389.1 289.4 400.5 290.3 412.7 287.2C412.7 287.2 405 287.7 392.6 287.5C394.1 287.2 395.6 286.9 397 286.5C397 286.5 395 286.3 391.9 286.2C406 285.5 416.3 283.8 416.3 283.8C412.5 283.2 400.4 282.7 387.3 282.5C396 281.7 402 280.5 402 280.5L348.3 279.4C351.8 280.7 355.7 281.5 359.6 282.1C351.2 282 345.3 282 345.3 282C345.3 282 319 277.4 348.6 283.7Z" fill="black"/>
<path d="M362 262.6C362 262.6 390.2 261.2 403.6 263.8C403.6 263.9 377.1 256.9 362 262.6Z" fill="black"/>
</svg>
