<svg width="600" height="600" viewBox="0 0 600 600" fill="none" xmlns="http://www.w3.org/2000/svg">
<path d="M300.1 393.3C330.5 393.3 355.1 373.9 355.1 350C355.1 326.1 330.5 306.7 300.1 306.7C269.7 306.7 245.1 326.1 245.1 350C245 374 269.7 393.3 300.1 393.3Z" fill="#FF4040"/>
<path d="M300.1 347.6C321.2 347.6 339.4 356.9 348.7 370.6C352.8 364.6 355.2 357.6 355.2 350.2C355.2 326.3 330.5 306.9 300.2 306.9C269.8 306.9 245.2 326.3 245.2 350.2C245.2 357.6 247.5 364.5 251.7 370.6C260.7 356.8 279 347.6 300.1 347.6Z" fill="black"/>
<path d="M244.6 261C244.6 261 233.3 224.9 191.9 241.3C191.6 241.4 191.7 241.8 192.2 241.8C196.4 241.2 204.4 240.6 213.4 242C213.4 242 225.9 243.6 232.7 257C232.7 257 218.3 243.6 194.1 256.1C194.1 256.1 215.2 249.2 233.6 264.6C233.6 264.6 221.3 259.1 202.7 268.4C202.7 268.4 225.4 263 237.6 271C237.6 271 219.2 266.4 198.7 278.8C198.7 278.8 223.5 267.7 244.7 275.9C245.3 276.1 245.9 275.8 246.1 275.2C246.3 272.9 246.8 267.9 244.6 261Z" fill="black"/>
<path d="M353.9 275.2C354.1 275.8 354.7 276.1 355.3 275.9C376.5 267.7 401.3 278.8 401.3 278.8C380.8 266.4 362.4 271 362.4 271C374.6 263 397.3 268.4 397.3 268.4C378.7 259.1 366.4 264.6 366.4 264.6C384.8 249.2 405.9 256.1 405.9 256.1C381.7 243.6 367.3 257 367.3 257C374.1 243.6 386.6 242 386.6 242C395.6 240.6 403.6 241.2 407.8 241.8C408.3 241.8 408.4 241.4 408.1 241.3C366.7 224.9 355.4 261 355.4 261C353.2 267.9 353.7 272.9 353.9 275.2Z" fill="black"/>
</svg>
