<svg width="600" height="600" viewBox="0 0 600 600" fill="none" xmlns="http://www.w3.org/2000/svg">
<path d="M226.1 351H374C381.7 351 385.3 343.6 379.5 339.7C353 321.9 292.9 294 220.8 339.6C214.7 343.4 218.2 351 226.1 351Z" fill="black"/>
<path d="M379.6 258.9L378.3 262.3L374.9 263.6C372.5 264.6 372.5 267.9 374.9 268.9L378.3 270.2L379.6 273.6C380.6 276 383.9 276 384.9 273.6L386.2 270.2L389.6 268.9C392 267.9 392 264.6 389.6 263.6L386.2 262.3L384.9 258.9C384.1 256.4 380.6 256.4 379.6 258.9Z" fill="white"/>
<path d="M226.1 351H374C381.7 351 385.3 343.6 379.5 339.7C353 321.9 292.9 294 220.8 339.6C214.7 343.4 218.2 351 226.1 351Z" stroke="black" stroke-width="0.1479" stroke-miterlimit="10"/>
<path d="M253 258H194.2C193.6 258 193 258.1 192.5 258.4C184.4 262.7 177.4 269.2 178 278.5C178 278.5 178.8 299.1 218.3 289.7C218.3 289.7 264.9 278.9 256.5 260.5C256.5 260.5 256.5 260.5 256.5 260.4C255.9 258.9 254.5 258 253 258Z" fill="black"/>
<path d="M225 263.5L221.6 262.2L220.3 258.8C220.2 258.4 220 258.1 219.7 257.9H215.5C215.3 258.2 215.1 258.4 214.9 258.8L213.6 262.2L210.2 263.5C207.8 264.5 207.8 267.8 210.2 268.8L213.6 270.1L214.9 273.5C215.9 275.9 219.2 275.9 220.2 273.5L221.5 270.1L224.9 268.8C227.4 267.9 227.4 264.5 225 263.5Z" fill="white"/>
<path d="M347 258H405.8C406.4 258 407 258.1 407.5 258.4C415.6 262.7 422.6 269.2 422 278.5C422 278.5 421.2 299.1 381.7 289.7C381.7 289.7 335.1 278.9 343.5 260.5C343.5 260.5 343.5 260.5 343.5 260.4C344.1 258.9 345.5 258 347 258Z" fill="black"/>
<path d="M375 263.5L378.4 262.2L379.7 258.8C379.8 258.4 380 258.1 380.3 257.9H384.5C384.7 258.2 384.9 258.4 385.1 258.8L386.4 262.2L389.8 263.5C392.2 264.5 392.2 267.8 389.8 268.8L386.4 270.1L385.1 273.5C384.1 275.9 380.8 275.9 379.8 273.5L378.5 270.1L375.1 268.8C372.6 267.9 372.6 264.5 375 263.5Z" fill="white"/>
</svg>
