<svg name="baddie-face" width="113" height="112" viewBox="0 0 113 112" fill="none" xmlns="http://www.w3.org/2000/svg">
  <path
    d="M39.0136 68.4303C47.1874 68.4303 53.8136 60.9534 53.8136 51.7303C53.8136 42.5071 47.1874 35.0303 39.0136 35.0303C30.8398 35.0303 24.2136 42.5071 24.2136 51.7303C24.2136 60.9534 30.8398 68.4303 39.0136 68.4303Z"
    fill="white" />
  <path
    d="M47.3137 59.1305C49.2467 59.1305 50.8137 57.4739 50.8137 55.4305C50.8137 53.387 49.2467 51.7305 47.3137 51.7305C45.3807 51.7305 43.8137 53.387 43.8137 55.4305C43.8137 57.4739 45.3807 59.1305 47.3137 59.1305Z"
    fill="black" />
  <path
    d="M74.0136 68.4303C82.1874 68.4303 88.8136 60.9534 88.8136 51.7303C88.8136 42.5071 82.1874 35.0303 74.0136 35.0303C65.8398 35.0303 59.2136 42.5071 59.2136 51.7303C59.2136 60.9534 65.8398 68.4303 74.0136 68.4303Z"
    fill="white" />
  <path
    d="M65.7136 59.1305C67.6466 59.1305 69.2136 57.4739 69.2136 55.4305C69.2136 53.387 67.6466 51.7305 65.7136 51.7305C63.7806 51.7305 62.2136 53.387 62.2136 55.4305C62.2136 57.4739 63.7806 59.1305 65.7136 59.1305Z"
    fill="black" />
</svg>