<svg width="8" height="9" viewBox="0 0 8 9" fill="none" xmlns="http://www.w3.org/2000/svg">
<path d="M2.70017 3.20002L3.60016 0.9C3.70016 0.7 4.00016 0.7 4.00016 0.9L4.90015 3.20002C4.90015 3.30002 5.00016 3.29999 5.00016 3.29999L7.30015 4.20002C7.50015 4.30002 7.50015 4.60001 7.30015 4.60001L5.00016 5.50001C4.90016 5.50001 4.90015 5.60001 4.90015 5.60001L4.00016 7.9C3.90016 8.1 3.60016 8.1 3.60016 7.9L2.70017 5.60001C2.70017 5.50001 2.60016 5.50001 2.60016 5.50001L0.300146 4.60001C0.100146 4.50001 0.100146 4.20002 0.300146 4.20002L2.60016 3.29999C2.70016 3.29999 2.70017 3.30002 2.70017 3.20002Z" fill="white"/>
</svg>
