<svg width="113" height="112" viewBox="0 0 113 112" fill="none" xmlns="http://www.w3.org/2000/svg">
<path d="M56.5136 0L63.2136 13.5L73.7136 2.7L75.8136 17.6L89.2136 10.6L86.6136 25.5L101.514 22.9L94.4136 36.2L109.414 38.4L98.5136 48.9L112.114 55.6L98.5136 62.2L109.414 72.7L94.4136 74.9L101.514 88.2L86.6136 85.7L89.2136 100.5L75.8136 93.5L73.7136 108.4L63.2136 97.6L56.5136 111.2L49.9136 97.6L39.3136 108.4L37.2136 93.5L23.8136 100.5L26.4136 85.7L11.5136 88.2L18.6136 74.9L3.61357 72.7L14.5136 62.2L0.913574 55.6L14.5136 48.9L3.61357 38.4L18.6136 36.2L11.5136 22.9L26.4136 25.5L23.8136 10.6L37.2136 17.6L39.3136 2.7L49.9136 13.5L56.5136 0Z" fill="#CCCCCC"/>
</svg>
