<svg width="311" height="310" viewBox="0 0 311 310" fill="none" xmlns="http://www.w3.org/2000/svg">
<path d="M213.16 179.8L254.36 190.8L209.06 169.7L259.06 173.2L220.06 162L310.76 155L217.96 147.8L259.06 136.7L209.26 141.1L254.36 119.1L214.96 128.9L290.06 77.5L206.06 117.7L236.16 87.5L195.16 116.2L223.26 74.6L193.96 102.8L233.26 20.7L180.66 97.6L191.66 56.4L170.56 101.7L173.96 51.7L162.76 90.7L155.76 0L148.66 92.8L137.56 51.7L141.96 101.5L119.96 56.4L129.76 95.8L78.26 20.7L118.56 104.7L88.36 74.6L117.06 115.6L75.46 87.5L103.66 116.8L21.56 77.5L98.36 130.1L57.26 119.1L102.56 140.2L52.46 136.7L91.56 147.9L0.76001 155L93.66 162.1L52.46 173.2L102.36 168.8L57.26 190.8L96.66 181L21.56 232.5L105.56 192.2L75.46 222.4L116.46 193.7L88.36 235.3L117.56 207.1L78.26 289.2L130.96 212.4L119.96 253.5L141.06 208.2L137.56 258.3L148.76 219.2L155.76 310L162.96 217.1L173.96 258.2L169.66 208.4L191.66 253.5L181.86 214.1L233.26 289.2L193.06 205.2L223.26 235.3L194.56 194.3L236.16 222.4L207.96 193.1L290.06 232.5L213.16 179.8Z" fill="#D0D0D0"/>
</svg>
