<svg width="1100" height="1100" viewBox="0 0 275 275" fill="none" xmlns="http://www.w3.org/2000/svg">
<path d="M260.059 149.652L267.724 139.756L255.984 144.122L251.23 132.528L249.63 142.133C245.409 134.08 239.394 126.804 231.633 120.934C205.243 100.948 168.279 104.683 146.353 128.55C144.17 126.367 141.162 125.009 137.864 124.912C150.573 94.0599 178.903 70.5328 214.363 65.6333C216.255 65.3908 218.098 65.1968 219.942 65.0027L211.695 71.2604L224.162 70.0477L225.763 82.4661L230.953 71.0664L242.499 75.8688L235.222 65.6818L245.167 58.1144L232.7 59.3271L231.147 47.0542L225.957 58.4539L214.412 53.6515L220.087 61.6071C211.404 58.8905 201.993 58.0174 192.388 59.3271C159.596 63.887 136.117 92.6046 137.476 125.009C134.177 125.009 131.121 126.319 128.89 128.453C116.083 97.6011 119.479 60.9764 141.065 32.4529C142.181 30.9491 143.394 29.4938 144.607 28.087L143.248 38.3225L151.204 28.6206L161.1 36.2851L156.734 24.5458L168.328 19.7919L156.006 17.706L157.656 5.2876L149.7 14.941L139.804 7.27648L144.17 19.0158L132.576 23.7697L142.181 25.3705C134.129 29.5908 126.852 35.606 120.983 43.3675C100.997 69.7566 104.732 106.721 128.599 128.647C126.416 130.83 125.057 133.838 124.96 137.136C94.1083 124.427 70.5812 96.0973 65.6818 60.6369C65.4392 58.745 65.2452 56.9016 65.0512 55.0583L71.3089 63.3049L70.0961 50.838L82.5146 49.2371L71.1148 44.0466L75.9173 32.5014L65.7303 39.7778L58.1628 29.8334L59.3756 42.3003L47.0542 43.9011L58.4539 49.0916L53.6514 60.6369L61.607 54.9613C58.8905 63.6445 58.0173 73.0553 59.327 82.6601C63.8869 115.453 92.6045 138.931 125.009 137.573C125.009 140.871 126.319 143.928 128.453 146.159C97.601 158.965 60.9764 155.57 32.4528 133.983C30.949 132.867 29.4937 131.655 28.087 130.442L38.3225 131.8L28.6206 123.845L36.2851 113.949L24.5458 118.315L19.7918 106.721L17.7059 119.042L5.33604 117.393L14.9894 125.348L7.32492 135.244L19.0642 130.879L23.8181 142.472L25.4189 132.867C29.6393 140.92 35.6544 148.196 43.4159 154.066C69.8051 174.052 106.769 170.317 128.696 146.45C130.878 148.633 133.886 149.991 137.185 150.088C124.475 180.94 96.1457 204.467 60.6853 209.367C58.7934 209.609 56.9501 209.803 55.1067 209.997L63.3533 203.74L50.8864 204.952L49.2856 192.534L44.0951 203.934L32.5013 198.986L39.7777 209.173L29.8333 216.74L42.3002 215.527L43.901 227.946L49.0915 216.546L60.6368 221.349L54.9612 213.393C63.6444 216.11 73.0552 216.983 82.6601 215.673C115.452 211.113 138.931 182.396 137.573 149.991C140.871 149.991 143.927 148.681 146.159 146.547C158.965 177.399 155.57 214.024 133.983 242.547C132.867 244.051 131.655 245.506 130.442 246.913L131.8 236.678L123.845 246.331L113.949 238.667L118.315 250.406L106.721 255.16L119.042 257.246L117.393 269.713L125.348 260.059L135.244 267.724L130.878 255.984L142.472 251.23L132.867 249.63C140.92 245.409 148.196 239.394 154.066 231.633C174.052 205.243 170.317 168.279 146.45 146.353C148.633 144.17 149.991 141.163 150.088 137.864C180.94 150.573 204.467 178.903 209.367 214.363C209.609 216.255 209.803 218.098 209.997 219.942L203.74 211.695L204.952 224.162L192.534 225.763L203.934 230.954L199.131 242.499L209.318 235.222L216.886 245.167L215.673 232.7L228.091 231.099L216.692 225.909L221.494 214.363L213.539 220.039C216.255 211.356 217.128 201.945 215.818 192.34C211.259 159.548 182.541 136.069 150.137 137.427C150.137 134.129 148.827 131.073 146.693 128.841C177.545 116.035 214.169 119.43 242.693 141.017C244.196 142.133 245.652 143.345 247.059 144.558L236.823 143.2L246.476 151.155L238.812 161.051L250.551 156.686L255.305 168.279L257.391 155.958L269.809 157.607L260.059 149.652Z" stroke="brown" stroke-width="0.7" fill="#FF4D4D"/>
</svg>
