<svg name="body-face-1" width="600" height="600" viewBox="0 0 600 600" fill="none" xmlns="http://www.w3.org/2000/svg">
  <path
    d="M245.9 243.3C245.6 242.9 245.3 242.5 245.1 242.2C240.7 236.7 222 221.9 195.2 247.1C194.2 248 192.8 250.6 193 251.8C193.3 253.1 194.8 254.6 198.3 252.1C198.8 251.7 200.6 250.4 201.1 249.9C201.6 249.4 202.3 248.8 203.2 248C200.4 253.1 198.7 259.1 198.7 265.6C198.7 283.4 211 297.8 226.1 297.8C241.2 297.8 253.5 283.4 253.5 265.6C253.7 257 250.7 249.1 245.9 243.3Z"
    fill="black" />
  <path
    d="M354.1 243.3C354.4 242.9 354.7 242.5 354.9 242.2C359.3 236.7 378 221.9 404.8 247.1C405.8 248 407.2 250.6 407 251.8C406.7 253.1 405.2 254.6 401.7 252.1C401.2 251.7 399.4 250.4 398.9 249.9C398.4 249.4 397.7 248.8 396.8 248C399.6 253.1 401.3 259.1 401.3 265.6C401.3 283.4 389 297.8 373.9 297.8C358.8 297.8 346.5 283.4 346.5 265.6C346.3 257 349.3 249.1 354.1 243.3Z"
    fill="black" />
  <path
    d="M300.1 349.2C290.2 349.2 281.7 344.1 277.5 336.6C276.7 335.1 274.9 335.9 274.9 337.9C274.9 337.9 274.9 337.9 274.9 338C274.9 350.6 286.2 360.8 300.1 360.8C314 360.8 325.3 350.6 325.3 338C325.3 338 325.3 338 325.3 337.9C325.3 335.9 323.5 335.1 322.7 336.6C318.5 344 310 349.2 300.1 349.2Z"
    fill="black" />
  <path
    d="M232.9 265.3C235.882 265.3 238.3 262.882 238.3 259.9C238.3 256.918 235.882 254.5 232.9 254.5C229.918 254.5 227.5 256.918 227.5 259.9C227.5 262.882 229.918 265.3 232.9 265.3Z"
    fill="white" />
  <path
    d="M382.2 265.3C385.182 265.3 387.6 262.882 387.6 259.9C387.6 256.918 385.182 254.5 382.2 254.5C379.218 254.5 376.8 256.918 376.8 259.9C376.8 262.882 379.218 265.3 382.2 265.3Z"
    fill="white" />
</svg>