<svg name="body-face-10" width="600" height="600" viewBox="0 0 600 600" fill="none" xmlns="http://www.w3.org/2000/svg">
  <path
    d="M327.4 362.499C316 362.499 306 349.899 300 335.899C294.1 349.899 284 362.499 272.6 362.499C267 362.499 261.8 360.299 257.1 356.399C255.3 354.899 253.4 358.099 254.8 360.099C260.1 367.499 267.1 371.899 274.7 371.899C277.9 371.899 280.9 371.099 283.8 369.699C283.7 371.199 283.7 372.699 283.8 374.199C284.7 384.999 291.7 393.399 299.9 393.399C308.9 393.399 316.2 383.799 316.2 371.899C316.2 371.199 316.2 370.399 316.1 369.699C319 371.099 322 371.899 325.2 371.899C332.8 371.899 339.7 367.399 345.1 360.099C346.6 358.099 344.6 354.899 342.8 356.399C338.2 360.299 332.9 362.499 327.4 362.499Z"
    fill="black" />
  <path
    d="M217.9 221.2C213 221.2 208.3 222.7 204.1 225.5C199.2 223.7 190.6 218.8 189.8 206.6C189.8 206.6 185.2 220.2 192.4 227.7C192.4 227.7 184.5 228.8 178 220.7C178 220.7 180.4 235.4 192.6 237.5C186.9 246.6 183.4 258.7 183.5 272C183.6 300 199.1 322.7 218.2 322.7C237.3 322.7 252.7 299.9 252.6 271.8C252.6 243.9 237 221.2 217.9 221.2Z"
    fill="black" />
  <path
    d="M218.1 277.3C205.5 277.3 193.7 275 183.5 271C183.5 271.3 183.5 271.7 183.5 272C183.6 300 199.1 322.7 218.2 322.7C237.3 322.7 252.7 299.9 252.6 271.8C252.6 271.5 252.6 271.1 252.6 270.8C242.4 274.9 230.7 277.3 218.1 277.3Z"
    fill="#006522" />
  <path
    d="M224 269.2C232.5 266.6 238.7 258.7 238.6 249.4C238.6 238 229.3 228.8 217.9 228.8C206.5 228.8 197.3 238.1 197.3 249.5C197.3 258.8 203.5 266.7 212 269.2C202.5 271.8 195.6 280.5 195.6 290.8C195.6 303.1 205.7 313.1 218 313.1C230.3 313.1 240.3 303 240.3 290.7C240.4 280.4 233.4 271.8 224 269.2Z"
    fill="white" />
  <path
    d="M382.1 221.2C387 221.2 391.7 222.7 395.9 225.5C400.8 223.7 409.4 218.8 410.2 206.6C410.2 206.6 414.8 220.2 407.6 227.7C407.6 227.7 415.5 228.8 422 220.7C422 220.7 419.6 235.4 407.4 237.5C413.1 246.6 416.6 258.7 416.5 272C416.4 300 400.9 322.7 381.8 322.7C362.7 322.7 347.3 299.9 347.4 271.8C347.4 243.9 363 221.2 382.1 221.2Z"
    fill="black" />
  <path
    d="M381.9 277.3C394.5 277.3 406.3 275 416.5 271C416.5 271.3 416.5 271.7 416.5 272C416.4 300 400.9 322.7 381.8 322.7C362.7 322.7 347.3 299.9 347.4 271.8C347.4 271.5 347.4 271.1 347.4 270.8C357.6 274.9 369.3 277.3 381.9 277.3Z"
    fill="#006522" />
  <path
    d="M376 269.2C367.5 266.6 361.3 258.7 361.4 249.4C361.4 238 370.7 228.8 382.1 228.8C393.5 228.8 402.7 238.1 402.7 249.5C402.7 258.8 396.5 266.7 388 269.2C397.5 271.8 404.4 280.5 404.4 290.8C404.4 303.1 394.3 313.1 382 313.1C369.7 313.1 359.7 303 359.7 290.7C359.6 280.4 366.6 271.8 376 269.2Z"
    fill="white" />
</svg>