<svg name="body-face-11" width="600" height="600" viewBox="0 0 600 600" fill="none" xmlns="http://www.w3.org/2000/svg">
  <path
    d="M212.1 295.9C224.1 298.6 234.4 303 241.3 307.9C243.2 309.3 245.9 308.9 247.3 307.1C252.6 300.4 256.6 292.2 258.7 282.9C264.9 255.1 251.3 228.4 228.3 223.3C205.3 218.2 181.6 236.6 175.4 264.4C173.3 273.7 173.5 282.9 175.5 291.1C176.1 293.4 178.3 294.9 180.6 294.4C188.9 292.8 200.1 293.2 212.1 295.9Z"
    fill="white" />
  <path
    d="M257.1 250.9C257.1 250.9 262.9 265.5 258.7 282.9C256.5 292.1 252.6 300.4 247.3 307.1C245.8 309 243.2 309.4 241.2 308C241.2 308 220.8 292.8 187.1 293.7C187.1 293.7 181.7 240.5 221.6 222.5C221.7 222.4 246.5 221.6 257.1 250.9Z"
    fill="black" />
  <path
    d="M228.4 267.5L229.4 277.8L239.5 280L230 284.2L231 294.4L224.1 286.7L214.7 290.8L219.9 281.9L213.1 274.2L223.2 276.4L228.4 267.5Z"
    fill="white" />
  <path
    d="M236.853 256.762C239.163 249.21 231.488 240.167 219.71 236.564C207.932 232.962 196.512 236.164 194.202 243.717C191.892 251.269 199.567 260.312 211.345 263.914C223.122 267.517 234.543 264.315 236.853 256.762Z"
    fill="white" />
  <path
    d="M387.9 295.9C375.9 298.6 365.6 303 358.7 307.9C356.8 309.3 354.1 308.9 352.7 307.1C347.4 300.4 343.4 292.2 341.3 282.9C335.1 255.1 348.7 228.4 371.7 223.3C394.7 218.2 418.4 236.6 424.6 264.4C426.7 273.7 426.5 282.9 424.5 291.1C423.9 293.4 421.7 294.9 419.4 294.4C411.1 292.8 399.9 293.2 387.9 295.9Z"
    fill="white" />
  <path
    d="M342.9 250.9C342.9 250.9 337.1 265.5 341.3 282.9C343.5 292.1 347.4 300.4 352.7 307.1C354.2 309 356.8 309.4 358.8 308C358.8 308 379.2 292.8 412.9 293.7C412.9 293.7 418.3 240.5 378.4 222.5C378.3 222.4 353.5 221.6 342.9 250.9Z"
    fill="black" />
  <path
    d="M371.6 267.5L370.6 277.8L360.5 280L370 284.2L369 294.4L375.9 286.7L385.3 290.8L380.1 281.9L386.9 274.2L376.8 276.4L371.6 267.5Z"
    fill="white" />
  <path
    d="M388.694 263.865C400.472 260.263 408.147 251.22 405.837 243.667C403.527 236.115 392.106 232.912 380.329 236.515C368.551 240.117 360.876 249.16 363.186 256.713C365.496 264.265 376.916 267.467 388.694 263.865Z"
    fill="white" />
  <path
    d="M300 399.7C310.935 399.7 319.8 383.985 319.8 364.6C319.8 345.215 310.935 329.5 300 329.5C289.065 329.5 280.2 345.215 280.2 364.6C280.2 383.985 289.065 399.7 300 399.7Z"
    fill="black" />
</svg>