<svg width="600" height="600" viewBox="0 0 600 600" fill="none" xmlns="http://www.w3.org/2000/svg">
<path d="M210.4 239.6C217.5 242.6 223.5 248.3 227.9 255.7C224.9 239.1 213.2 226.8 199.2 226.8C185.2 226.8 173.6 239.1 170.5 255.7C174.8 248.2 180.9 242.6 188 239.6C179.6 244.3 173.9 254.2 173.9 265.6C173.9 281.6 185.2 294.6 199.2 294.6C213.2 294.6 224.5 281.6 224.5 265.6C224.5 254.2 218.7 244.4 210.4 239.6Z" fill="black"/>
<path d="M202.5 263.7C206.918 263.7 210.5 260.118 210.5 255.7C210.5 251.282 206.918 247.7 202.5 247.7C198.082 247.7 194.5 251.282 194.5 255.7C194.5 260.118 198.082 263.7 202.5 263.7Z" fill="white"/>
<path d="M188.1 282.9C190.143 282.9 191.8 281.243 191.8 279.2C191.8 277.157 190.143 275.5 188.1 275.5C186.056 275.5 184.4 277.157 184.4 279.2C184.4 281.243 186.056 282.9 188.1 282.9Z" fill="white"/>
<path d="M209.2 275.8L213.4 272.8L211.8 277.7L215.9 280.7H210.8L209.2 285.6L207.6 280.7H202.5L206.7 277.7L205.1 272.8L209.2 275.8Z" fill="#FFDD33"/>
<path d="M412 239.6C419.1 242.6 425.1 248.3 429.5 255.7C426.5 239.1 414.8 226.8 400.8 226.8C386.8 226.8 375.2 239.1 372.1 255.7C376.4 248.2 382.5 242.6 389.6 239.6C381.2 244.3 375.5 254.2 375.5 265.6C375.5 281.6 386.8 294.6 400.8 294.6C414.8 294.6 426.1 281.6 426.1 265.6C426.2 254.2 420.4 244.4 412 239.6Z" fill="black"/>
<path d="M404.1 263.7C408.518 263.7 412.1 260.118 412.1 255.7C412.1 251.282 408.518 247.7 404.1 247.7C399.682 247.7 396.1 251.282 396.1 255.7C396.1 260.118 399.682 263.7 404.1 263.7Z" fill="white"/>
<path d="M389.7 282.9C391.743 282.9 393.4 281.243 393.4 279.2C393.4 277.157 391.743 275.5 389.7 275.5C387.657 275.5 386 277.157 386 279.2C386 281.243 387.657 282.9 389.7 282.9Z" fill="white"/>
<path d="M410.9 275.8L415 272.8L413.4 277.7L417.6 280.7H412.5L410.9 285.6L409.3 280.7H404.1L408.3 277.7L406.7 272.8L410.9 275.8Z" fill="#FFDD33"/>
<path d="M343.8 347.4C339.9 348.3 336.1 347.8 333.4 345.5C330.7 343.2 329.5 339.7 329.7 335.6C329.7 335 328.9 334.7 328.6 335.3C326.7 339.6 326.5 344 328.1 347.1C320.6 354.6 310 359.4 298.3 359.4C285.7 359.4 274.4 354 266.8 345.4C266.5 345.1 265.9 345.4 266.1 345.8C269.8 359.5 282.8 369.7 298.3 369.7C312.6 369.7 324.7 361.1 329.5 349C329.7 349.2 329.9 349.3 330 349.5C333.5 352.4 339.2 351.8 344.2 348.4C344.8 348.1 344.4 347.3 343.8 347.4Z" fill="black"/>
</svg>
