<svg width="600" height="600" viewBox="0 0 600 600" fill="none" xmlns="http://www.w3.org/2000/svg">
<path d="M221.8 237.9C229.5 241.1 236 247.3 240.7 255.3C237.5 237.4 224.8 224.1 209.7 224.1C194.6 224.1 182 237.4 178.7 255.3C183.3 247.2 189.9 241.1 197.6 237.9C188.5 243 182.4 253.7 182.4 266C182.4 283.3 194.6 297.4 209.8 297.4C225 297.4 237 283.3 237 266C237 253.7 230.8 243.1 221.8 237.9Z" fill="black"/>
<path d="M213.2 263.899C217.95 263.899 221.8 260.049 221.8 255.299C221.8 250.55 217.95 246.699 213.2 246.699C208.45 246.699 204.6 250.55 204.6 255.299C204.6 260.049 208.45 263.899 213.2 263.899Z" fill="white"/>
<path d="M197.7 284.699C199.909 284.699 201.7 282.908 201.7 280.699C201.7 278.49 199.909 276.699 197.7 276.699C195.491 276.699 193.7 278.49 193.7 280.699C193.7 282.908 195.491 284.699 197.7 284.699Z" fill="white"/>
<path d="M220.5 277L225 273.8L223.3 279.1L227.7 282.3H222.2L220.5 287.6L218.7 282.3H213.2L217.8 279.1L216 273.8L220.5 277Z" fill="#FFDD33"/>
<path d="M402.4 237.9C410.1 241.1 416.6 247.3 421.3 255.3C418.1 237.4 405.4 224.1 390.3 224.1C375.2 224.1 362.6 237.4 359.3 255.3C363.9 247.2 370.5 241.1 378.2 237.9C369.1 243 363 253.7 363 266C363 283.3 375.2 297.4 390.4 297.4C405.5 297.4 417.8 283.3 417.8 266C417.8 253.7 411.5 243.1 402.4 237.9Z" fill="black"/>
<path d="M393.9 263.899C398.65 263.899 402.5 260.049 402.5 255.299C402.5 250.55 398.65 246.699 393.9 246.699C389.151 246.699 385.3 250.55 385.3 255.299C385.3 260.049 389.151 263.899 393.9 263.899Z" fill="white"/>
<path d="M378.3 284.699C380.509 284.699 382.3 282.908 382.3 280.699C382.3 278.49 380.509 276.699 378.3 276.699C376.091 276.699 374.3 278.49 374.3 280.699C374.3 282.908 376.091 284.699 378.3 284.699Z" fill="white"/>
<path d="M401.3 277L405.7 273.8L404 279.1L408.5 282.3H403L401.3 287.6L399.5 282.3H393.9L398.4 279.1L396.7 273.8L401.3 277Z" fill="#FFDD33"/>
<path d="M343.8 347.4C339.9 348.3 336.1 347.8 333.4 345.5C330.7 343.2 329.5 339.7 329.7 335.6C329.7 335 328.9 334.7 328.6 335.3C326.7 339.6 326.5 344 328.1 347.1C320.6 354.6 310 359.4 298.3 359.4C285.7 359.4 274.4 354 266.8 345.4C266.5 345.1 265.9 345.4 266.1 345.8C269.8 359.5 282.8 369.7 298.3 369.7C312.6 369.7 324.7 361.1 329.5 349C329.7 349.2 329.9 349.3 330 349.5C333.5 352.4 339.2 351.8 344.2 348.4C344.8 348.1 344.4 347.3 343.8 347.4Z" fill="black"/>
</svg>
