<svg name="body-face-14" width="600" height="600" viewBox="0 0 600 600" fill="none" xmlns="http://www.w3.org/2000/svg">
  <path
    d="M212.2 220.9C210.2 220.9 208.3 221.2 206.4 221.9C205.4 222.2 204.4 222.4 203.3 222.6C195 224 176.3 224.6 167.1 205.2C167.1 205.2 173.5 229.4 192.3 234.3C189.5 239.4 188 245.6 188 252.3C188 269.7 198.8 283.6 212.1 283.6C225.4 283.6 236.2 269.5 236.2 252.3C236.2 235.1 225.5 220.9 212.2 220.9Z"
    fill="black" />
  <path
    d="M212.9 261.4C217.2 261.4 220.6 257.9 220.6 253.7C220.6 249.4 217.1 246 212.9 246C208.7 246 205.2 249.5 205.2 253.7C205.2 258 208.7 261.4 212.9 261.4Z"
    fill="#8DC406" />
  <path
    d="M218.3 250.501C223.1 250.501 227 246.601 227 241.801C227 237.001 223.1 233.101 218.3 233.101C213.5 233.101 209.6 237.001 209.6 241.801C209.6 246.601 213.6 250.501 218.3 250.501Z"
    fill="white" />
  <path
    d="M199.2 271.7C201.9 271.7 204.2 269.5 204.2 266.7C204.2 264 202 261.7 199.2 261.7C196.5 261.7 194.2 263.9 194.2 266.7C194.2 269.5 196.4 271.7 199.2 271.7Z"
    fill="white" />
  <path
    d="M387.8 220.9C389.8 220.9 391.7 221.2 393.6 221.9C394.6 222.2 395.6 222.4 396.7 222.6C405 224 423.7 224.6 432.9 205.2C432.9 205.2 426.5 229.4 407.7 234.3C410.5 239.4 412 245.6 412 252.3C412 269.7 401.2 283.6 387.9 283.6C374.6 283.6 363.8 269.5 363.8 252.3C363.8 235.1 374.5 220.9 387.8 220.9Z"
    fill="black" />
  <path
    d="M386.1 261.4C390.4 261.4 393.8 257.9 393.8 253.7C393.8 249.4 390.3 246 386.1 246C381.9 246 378.4 249.5 378.4 253.7C378.4 258 381.8 261.4 386.1 261.4Z"
    fill="#8DC406" />
  <path
    d="M381.8 250.501C386.6 250.501 390.5 246.601 390.5 241.801C390.5 237.001 386.6 233.101 381.8 233.101C377 233.101 373.1 237.001 373.1 241.801C373.1 246.601 377 250.501 381.8 250.501Z"
    fill="white" />
  <path
    d="M401 271.7C403.7 271.7 406 269.5 406 266.7C406 264 403.8 261.7 401 261.7C398.3 261.7 396 263.9 396 266.7C396 269.5 398.3 271.7 401 271.7Z"
    fill="white" />
  <path
    d="M248.2 323.5C248.2 323.5 295.4 323.5 351.9 323.5C351.9 323.5 351.7 382.8 300.1 384.3C300 384.3 247.9 385.5 248.2 323.5Z"
    fill="black" />
  <path d="M268.7 323.5L260.3 342.5C260.1 342.9 259.5 343 259.3 342.5L249.2 323.4C249.2 323.5 258.3 323.5 268.7 323.5Z"
    fill="white" />
  <path d="M331.3 323.5L339.7 342.5C339.9 342.9 340.5 343 340.7 342.5L350.8 323.4C350.8 323.5 341.7 323.5 331.3 323.5Z"
    fill="white" />
</svg>