<svg name="body-face-2" width="600" height="600" viewBox="0 0 600 600" fill="none" xmlns="http://www.w3.org/2000/svg">
  <path
    d="M248.1 332.101C246.3 333.101 245.1 334.901 245 336.901C245 337.401 245 337.901 245 338.501C245 362.401 269.6 381.801 300 381.801C330.4 381.801 355 362.401 355 338.501C355 337.801 355 337.201 354.9 336.501C354.8 334.401 353.6 332.601 351.8 331.601C305.8 306.901 266 322.201 248.1 332.101Z"
    fill="#FF4040" />
  <path
    d="M300 346.8C318.1 346.8 334.2 353.7 344.2 364.3C351 357.1 355 348.2 355 338.5C355 337.8 355 337.2 354.9 336.5C354.8 334.4 353.5 332.7 351.8 331.6C303.1 301.6 269 319.7 248 332C246.2 333 245 334.8 244.9 336.8C244.9 337.3 244.9 337.8 244.9 338.4C244.9 348.1 248.9 357 255.7 364.2C265.8 353.7 281.9 346.8 300 346.8Z"
    fill="black" />
  <path
    d="M203.6 227.5C207.7 228.2 215.6 230 223.7 234.2C224 234.4 223.9 234.9 223.5 234.8C221.9 234.6 220.4 234.5 218.7 234.6C202.9 235.1 190.8 248.6 191.6 264.4C192.4 279.3 205 291 220 290.9C235.9 290.7 248.4 277.5 247.7 261.8C247.7 261.8 247.9 224 203.5 227C203.2 226.8 203.2 227.4 203.6 227.5Z"
    fill="black" />
  <path
    d="M227.7 247.2L230.8 252.5L236.8 253.9C238 254.2 238.5 255.6 237.6 256.5L233.6 261.1L234.2 267.2C234.3 268.5 233 269.3 232 268.9L226.4 266.5L220.8 268.9C219.6 269.4 218.4 268.5 218.6 267.2L219.2 261.1L215.2 256.5C214.4 255.5 214.9 254.1 216 253.9L222 252.5L225.1 247.2C225.4 246.1 227 246.1 227.7 247.2Z"
    fill="white" />
  <path
    d="M364.1 229.099C368.2 229.799 376.1 231.599 384.2 235.799C384.5 235.999 384.4 236.499 384 236.399C382.4 236.199 380.9 236.099 379.2 236.199C363.4 236.699 351.3 250.199 352.1 265.999C352.9 280.899 365.5 292.599 380.5 292.499C396.4 292.299 408.9 279.099 408.2 263.399C408.2 263.399 408.4 225.599 364 228.599C363.8 228.499 363.7 229.099 364.1 229.099Z"
    fill="black" />
  <path
    d="M388.1 248.9L391.2 254.2L397.2 255.6C398.4 255.9 398.9 257.3 398 258.2L394 262.8L394.6 268.9C394.7 270.2 393.4 271 392.4 270.6L386.8 268.2L381.2 270.6C380 271.1 378.8 270.2 379 268.9L379.6 262.8L375.6 258.2C374.8 257.2 375.3 255.8 376.4 255.6L382.4 254.2L385.5 248.9C386 247.7 387.5 247.7 388.1 248.9Z"
    fill="white" />
</svg>