<svg width="600" height="600" viewBox="0 0 600 600" fill="none" xmlns="http://www.w3.org/2000/svg">
<path d="M302.717 418.487C319.786 418.487 333.622 397.779 333.622 372.235C333.622 346.691 319.786 325.984 302.717 325.984C285.649 325.984 271.812 346.691 271.812 372.235C271.812 397.779 285.649 418.487 302.717 418.487Z" fill="black"/>
<path d="M259.206 270.06C273.456 238.846 270.782 207.048 253.235 199.037C235.687 191.026 209.91 209.836 195.66 241.049C181.41 272.263 184.084 304.061 201.632 312.072C219.179 320.083 244.956 301.273 259.206 270.06Z" fill="black"/>
<path d="M239.531 214.747L241.754 225.649C242.601 229.882 245.353 233.587 249.269 235.597L255.619 238.878C256.36 239.302 256.36 240.36 255.619 240.784L249.269 244.065C245.353 246.076 242.601 249.674 241.754 254.013L239.531 264.915C239.32 266.079 237.626 266.079 237.415 264.915L235.192 254.013C234.345 249.78 231.594 246.076 227.678 244.065L221.327 240.784C220.586 240.36 220.586 239.302 221.327 238.878L227.678 235.597C231.594 233.587 234.345 229.988 235.192 225.649L237.415 214.747C237.732 213.583 239.32 213.583 239.531 214.747Z" fill="white"/>
<path d="M207.039 290.528C210.312 290.528 212.966 287.874 212.966 284.601C212.966 281.327 210.312 278.674 207.039 278.674C203.766 278.674 201.112 281.327 201.112 284.601C201.112 287.874 203.766 290.528 207.039 290.528Z" fill="white"/>
<path d="M398.368 312.117C415.916 304.106 418.59 272.308 404.34 241.095C390.09 209.881 364.313 191.072 346.766 199.083C329.218 207.093 326.544 238.891 340.794 270.105C355.044 301.318 380.821 320.128 398.368 312.117Z" fill="black"/>
<path d="M360.399 214.747L358.177 225.649C357.33 229.882 354.578 233.587 350.662 235.597L344.312 238.878C343.571 239.302 343.571 240.36 344.312 240.784L350.662 244.065C354.578 246.076 357.33 249.674 358.177 254.013L360.399 264.915C360.611 266.079 362.304 266.079 362.516 264.915L364.739 254.013C365.585 249.78 368.337 246.076 372.253 244.065L378.604 240.784C379.344 240.36 379.344 239.302 378.604 238.878L372.253 235.597C368.337 233.587 365.585 229.988 364.739 225.649L362.516 214.747C362.199 213.583 360.611 213.583 360.399 214.747Z" fill="white"/>
<path d="M392.892 290.528C396.165 290.528 398.819 287.874 398.819 284.601C398.819 281.327 396.165 278.674 392.892 278.674C389.618 278.674 386.965 281.327 386.965 284.601C386.965 287.874 389.618 290.528 392.892 290.528Z" fill="white"/>
</svg>
