<svg width="600" height="600" viewBox="0 0 600 600" fill="none" xmlns="http://www.w3.org/2000/svg">
<path d="M210.937 322.914C237.884 322.914 259.728 301.07 259.728 274.123C259.728 247.176 237.884 225.331 210.937 225.331C183.99 225.331 162.145 247.176 162.145 274.123C162.145 301.07 183.99 322.914 210.937 322.914Z" fill="black"/>
<path d="M235.915 252.214L236.655 256.236C237.82 262.163 241.947 267.032 247.663 268.937L248.827 269.36C249.144 269.466 249.144 269.889 248.827 269.995L247.663 270.418C241.947 272.323 237.82 277.192 236.655 283.119L235.915 287.141C235.809 287.564 235.28 287.564 235.28 287.141L234.539 283.119C233.374 277.192 229.247 272.323 223.531 270.418L222.367 269.995C222.05 269.889 222.05 269.466 222.367 269.36L223.531 268.937C229.247 267.032 233.374 262.163 234.539 256.236L235.28 252.214C235.28 251.791 235.809 251.791 235.915 252.214Z" fill="white"/>
<path d="M195.273 266.079C201.585 266.079 206.703 260.961 206.703 254.648C206.703 248.335 201.585 243.218 195.273 243.218C188.96 243.218 183.842 248.335 183.842 254.648C183.842 260.961 188.96 266.079 195.273 266.079Z" fill="white"/>
<path d="M201.2 307.991C204.473 307.991 207.126 305.338 207.126 302.064C207.126 298.791 204.473 296.137 201.2 296.137C197.926 296.137 195.273 298.791 195.273 302.064C195.273 305.338 197.926 307.991 201.2 307.991Z" fill="white"/>
<path d="M389.063 322.914C416.01 322.914 437.855 301.07 437.855 274.123C437.855 247.176 416.01 225.331 389.063 225.331C362.116 225.331 340.272 247.176 340.272 274.123C340.272 301.07 362.116 322.914 389.063 322.914Z" fill="black"/>
<path d="M414.041 252.214L414.782 256.236C415.946 262.163 420.074 267.032 425.789 268.937L426.954 269.36C427.271 269.466 427.271 269.889 426.954 269.995L425.789 270.418C420.074 272.323 415.946 277.192 414.782 283.119L414.041 287.141C413.935 287.564 413.406 287.564 413.406 287.141L412.665 283.119C411.501 277.192 407.373 272.323 401.658 270.418L400.494 269.995C400.176 269.889 400.176 269.466 400.494 269.36L401.658 268.937C407.373 267.032 411.501 262.163 412.665 256.236L413.406 252.214C413.406 251.791 413.935 251.791 414.041 252.214Z" fill="white"/>
<path d="M373.399 266.079C379.712 266.079 384.83 260.961 384.83 254.648C384.83 248.335 379.712 243.218 373.399 243.218C367.086 243.218 361.969 248.335 361.969 254.648C361.969 260.961 367.086 266.079 373.399 266.079Z" fill="white"/>
<path d="M379.326 307.991C382.6 307.991 385.253 305.338 385.253 302.064C385.253 298.791 382.6 296.137 379.326 296.137C376.053 296.137 373.399 298.791 373.399 302.064C373.399 305.338 376.053 307.991 379.326 307.991Z" fill="white"/>
<path d="M301.535 343.659C291.692 343.659 283.754 357.524 283.754 374.67H319.21C319.316 357.524 311.378 343.659 301.535 343.659Z" fill="black"/>
</svg>
