<svg name="body-face-6" width="600" height="600" viewBox="0 0 600 600" fill="none" xmlns="http://www.w3.org/2000/svg">
  <path
    d="M211.36 301.852C245.73 301.852 273.593 288.916 273.593 272.958C273.593 257.001 245.73 244.064 211.36 244.064C176.99 244.064 149.127 257.001 149.127 272.958C149.127 288.916 176.99 301.852 211.36 301.852Z"
    fill="black" />
  <path
    d="M183.63 272.958C183.63 264.491 187.44 256.871 193.473 251.791C172.517 254.86 157.382 263.221 157.382 272.958C157.382 282.696 172.411 291.057 193.473 294.126C187.44 289.046 183.63 281.426 183.63 272.958Z"
    fill="white" />
  <path
    d="M229.353 251.791C233.692 255.389 236.761 260.364 238.243 265.973L224.061 272.958L238.243 279.944C236.761 285.553 233.586 290.528 229.353 294.126C250.309 291.057 265.444 282.696 265.444 272.958C265.444 263.221 250.415 254.86 229.353 251.791Z"
    fill="white" />
  <path
    d="M388.64 301.852C423.01 301.852 450.873 288.916 450.873 272.958C450.873 257.001 423.01 244.064 388.64 244.064C354.27 244.064 326.407 257.001 326.407 272.958C326.407 288.916 354.27 301.852 388.64 301.852Z"
    fill="black" />
  <path
    d="M360.91 272.958C360.91 264.491 364.72 256.871 370.753 251.791C349.797 254.86 334.662 263.221 334.662 272.958C334.662 282.696 349.691 291.057 370.753 294.126C364.72 289.046 360.91 281.426 360.91 272.958Z"
    fill="white" />
  <path
    d="M406.633 251.791C410.972 255.389 414.041 260.364 415.523 265.973L401.341 272.958L415.523 279.944C414.041 285.553 410.866 290.528 406.633 294.126C427.589 291.057 442.724 282.696 442.724 272.958C442.618 263.221 427.589 254.86 406.633 251.791Z"
    fill="white" />
  <path d="M337.308 350.115H262.798V355.936H337.308V350.115Z" fill="black" />
</svg>