<svg width="600" height="600" viewBox="0 0 600 600" fill="none" xmlns="http://www.w3.org/2000/svg">
<path d="M221.521 303.914C248.404 303.914 270.206 282.112 270.206 255.229H172.729C172.729 282.112 194.638 303.914 221.521 303.914Z" fill="black"/>
<path d="M241.101 259.674C241.207 260.626 241.312 261.579 241.312 262.531C241.312 273.433 232.422 282.323 221.521 282.323C210.619 282.323 201.729 273.433 201.729 262.531C201.729 261.579 201.835 260.626 201.94 259.674H178.444C178.444 281.582 199.718 299.363 221.626 299.363C243.535 299.363 264.809 281.582 264.809 259.674H241.101Z" fill="white"/>
<path d="M378.479 303.914C405.363 303.914 427.165 282.112 427.165 255.229H329.688C329.794 282.112 351.596 303.914 378.479 303.914Z" fill="black"/>
<path d="M398.165 259.674C398.271 260.626 398.377 261.579 398.377 262.531C398.377 273.433 389.487 282.323 378.585 282.323C367.684 282.323 358.793 273.433 358.793 262.531C358.793 261.579 358.899 260.626 359.005 259.674H335.509C335.509 281.582 356.782 299.363 378.691 299.363C400.6 299.363 421.873 281.582 421.873 259.674H398.165Z" fill="white"/>
<path d="M262.057 332.914C265.232 351.013 281.002 364.877 299.947 364.877C318.892 364.877 334.768 351.118 337.837 332.914H262.057Z" fill="black"/>
</svg>
