<svg name="body-face-9" width="600" height="600" viewBox="0 0 600 600" fill="none" xmlns="http://www.w3.org/2000/svg">
  <path d="M300.1 372.8C309.4 372.8 316.8 359.4 316.8 342.7H283.2C283.2 359.3 290.7 372.8 300.1 372.8Z" fill="black" />
  <path
    d="M219.5 320.8C244.6 320.8 265 300.4 265 275.3C265 250.2 244.6 229.8 219.5 229.8C194.4 229.8 174 250.2 174 275.3C174 300.4 194.4 320.8 219.5 320.8Z"
    fill="black" />
  <path
    d="M219.5 318.199C243.2 318.199 262.4 298.999 262.4 275.299C262.4 251.599 243.2 232.399 219.5 232.399C195.8 232.399 176.6 251.599 176.6 275.299C176.6 298.999 195.8 318.199 219.5 318.199Z"
    fill="white" />
  <path
    d="M231 275.3L248.1 265.5C244 253.6 232.8 245.1 219.4 245.1C202.7 245.1 189 258.6 189 275.5C189 292.4 202.5 305.9 219.4 305.9C232.6 305.9 244 297.3 248.1 285.5L231 275.3Z"
    fill="black" />
  <path
    d="M211.1 256.3L215.5 253.1L213.8 258.2L218.2 261.4H212.8L211.1 266.6L209.5 261.4H204L208.4 258.2L206.7 253.1L211.1 256.3Z"
    fill="white" />
  <path
    d="M205.4 275.9L211.5 273.2L210.8 279.8L215.2 284.8L208.8 286.2L205.4 291.9L202.1 286.2L195.6 284.8L200 279.8L199.4 273.2L205.4 275.9Z"
    fill="white" />
  <path
    d="M380.5 320.8C405.6 320.8 426 300.4 426 275.3C426 250.2 405.6 229.8 380.5 229.8C355.4 229.8 335 250.2 335 275.3C335 300.4 355.4 320.8 380.5 320.8Z"
    fill="black" />
  <path
    d="M380.5 318.199C404.2 318.199 423.4 298.999 423.4 275.299C423.4 251.599 404.2 232.399 380.5 232.399C356.8 232.399 337.6 251.599 337.6 275.299C337.6 298.999 356.8 318.199 380.5 318.199Z"
    fill="white" />
  <path
    d="M392 275.3L409.1 265.5C405 253.6 393.8 245.1 380.4 245.1C363.7 245.1 350 258.6 350 275.5C350 292.4 363.5 305.9 380.4 305.9C393.6 305.9 405 297.3 409.1 285.5L392 275.3Z"
    fill="black" />
  <path
    d="M372.1 256.3L376.5 253.1L374.8 258.2L379.2 261.4H373.8L372.1 266.6L370.4 261.4H365L369.4 258.2L367.7 253.1L372.1 256.3Z"
    fill="white" />
  <path
    d="M366.4 275.9L372.5 273.2L371.8 279.8L376.2 284.8L369.7 286.2L366.4 291.9L363.1 286.2L356.6 284.8L361 279.8L360.3 273.2L366.4 275.9Z"
    fill="white" />
</svg>