<svg width="600" height="600" viewBox="0 0 600 600" fill="none" xmlns="http://www.w3.org/2000/svg">
<path d="M300.053 365.724C339.108 365.724 371.494 348.26 377.844 325.293C379.009 321.166 375.834 316.932 371.494 316.932H228.506C224.167 316.932 220.991 321.06 222.156 325.293C228.612 348.26 260.999 365.724 300.053 365.724Z" fill="black"/>
<path d="M239.302 257.662C239.302 257.662 245.017 248.454 210.831 261.049C210.831 261.049 176.963 273.327 166.061 285.815C166.061 285.815 154.842 298.304 191.78 284.016C191.674 283.91 235.174 267.188 239.302 257.662Z" fill="black"/>
<path d="M196.437 303.279C207.952 303.279 217.287 300.483 217.287 297.034C217.287 293.586 207.952 290.79 196.437 290.79C184.922 290.79 175.587 293.586 175.587 297.034C175.587 300.483 184.922 303.279 196.437 303.279Z" fill="#FF4D4D"/>
<path d="M360.804 257.662C360.804 257.662 355.089 248.454 389.275 261.049C389.275 261.049 423.143 273.327 434.045 285.815C434.045 285.815 445.264 298.304 408.326 284.016C408.326 283.91 364.826 267.188 360.804 257.662Z" fill="black"/>
<path d="M403.669 303.279C415.184 303.279 424.519 300.483 424.519 297.034C424.519 293.586 415.184 290.79 403.669 290.79C392.154 290.79 382.819 293.586 382.819 297.034C382.819 300.483 392.154 303.279 403.669 303.279Z" fill="#FF4D4D"/>
</svg>
