<svg width="600" height="600" viewBox="0 0 600 600" fill="none" xmlns="http://www.w3.org/2000/svg">
<path d="M218.557 298.571C238.022 298.571 253.801 279.191 253.801 255.283C253.801 231.376 238.022 211.995 218.557 211.995C199.092 211.995 183.312 231.376 183.312 255.283C183.312 279.191 199.092 298.571 218.557 298.571Z" fill="black"/>
<path d="M191.462 256.13C190.51 256.13 189.663 256.977 189.769 257.929C190.933 276.239 203.422 290.739 218.557 290.739C233.798 290.739 246.287 276.239 247.345 257.929C247.451 256.977 246.604 256.13 245.652 256.13H191.462Z" fill="white"/>
<path d="M191.462 252.426C190.51 252.426 189.663 251.579 189.769 250.626C190.827 232.422 203.316 220.145 218.557 220.145C233.798 220.145 246.287 232.422 247.345 250.626C247.451 251.579 246.604 252.426 245.652 252.426H191.462Z" fill="black"/>
<path d="M231.787 255.389C231.681 256.447 231.363 257.506 230.834 258.458C228.717 262.269 223.955 263.539 220.144 261.422C217.816 260.152 216.44 257.823 216.228 255.389H197.812C194.849 264.915 198.871 275.498 207.867 280.579C218.345 286.506 231.575 282.801 237.502 272.429C240.571 267.031 241.1 260.893 239.407 255.389H231.787ZM209.455 268.513C208.396 270.312 206.174 270.947 204.374 269.889C202.575 268.831 201.94 266.608 202.999 264.809C204.057 263.009 206.28 262.374 208.079 263.433C209.772 264.491 210.407 266.714 209.455 268.513ZM219.827 276.451L218.028 279.626L217.287 276.028L214.112 274.228L217.71 273.487L219.509 270.312L220.25 273.911L223.425 275.71L219.827 276.451Z" fill="black"/>
<path d="M381.443 298.571C400.908 298.571 416.687 279.191 416.687 255.283C416.687 231.376 400.908 211.995 381.443 211.995C361.978 211.995 346.198 231.376 346.198 255.283C346.198 279.191 361.978 298.571 381.443 298.571Z" fill="black"/>
<path d="M354.348 256.13C353.395 256.13 352.549 256.977 352.655 257.929C353.819 276.239 366.308 290.739 381.443 290.739C396.578 290.739 409.172 276.239 410.231 257.929C410.337 256.977 409.49 256.13 408.537 256.13H354.348Z" fill="white"/>
<path d="M354.348 252.426C353.395 252.426 352.549 251.579 352.655 250.626C353.713 232.422 366.202 220.145 381.443 220.145C396.683 220.145 409.172 232.422 410.231 250.626C410.337 251.579 409.49 252.426 408.537 252.426H354.348Z" fill="black"/>
<path d="M394.673 255.389C394.567 256.447 394.249 257.506 393.72 258.458C391.603 262.269 386.84 263.539 383.03 261.422C380.702 260.152 379.326 257.823 379.114 255.389H360.698C357.735 264.915 361.757 275.498 370.753 280.579C381.231 286.506 394.461 282.801 400.388 272.429C403.457 267.031 403.986 260.893 402.293 255.389H394.673ZM372.235 268.513C371.176 270.312 368.954 270.947 367.154 269.889C365.355 268.831 364.72 266.608 365.779 264.809C366.837 263.009 369.06 262.374 370.859 263.433C372.658 264.491 373.293 266.714 372.235 268.513ZM382.713 276.451L380.913 279.626L380.173 276.028L376.997 274.228L380.596 273.487L382.395 270.312L383.136 273.911L386.311 275.71L382.713 276.451Z" fill="black"/>
<path d="M375.758 360.232C373.714 360.427 371.767 361.011 369.918 362.082C369.626 362.276 369.334 362.082 369.237 361.79C365.441 345.926 335.855 333.663 299.845 333.663C263.933 333.663 234.444 345.926 230.551 361.79C230.453 362.179 230.161 362.276 229.87 362.179C228.118 361.206 226.171 360.524 224.225 360.33C220.526 360.038 217.023 361.303 214.2 363.736C213.811 364.125 214.103 364.904 214.59 364.709C216.05 364.223 217.607 363.931 219.164 363.931C223.543 363.931 227.436 365.78 230.551 368.894C230.551 368.894 230.551 368.894 230.551 368.992C234.346 372.885 236.78 378.724 236.78 385.245C236.78 385.926 237.461 386.023 237.655 385.439C238.434 383.006 238.726 380.281 238.531 377.459C238.142 372.301 236.001 367.629 232.887 364.515C232.692 364.32 232.692 363.931 232.789 363.736C241.256 350.597 268.02 341.06 299.748 341.06C331.475 341.06 358.337 350.695 366.804 363.833C366.999 364.028 366.901 364.417 366.707 364.612C363.592 367.726 361.451 372.301 361.159 377.459C360.964 380.281 361.354 383.006 362.035 385.439C362.23 386.023 362.911 385.829 362.911 385.245C362.911 373.468 370.794 364.028 380.624 364.028C382.181 364.028 383.738 364.32 385.198 364.807C385.685 365.001 385.977 364.125 385.587 363.833C382.96 361.206 379.553 359.94 375.758 360.232Z" fill="black"/>
</svg>
