<svg width="600" height="600" viewBox="0 0 600 600" fill="none" xmlns="http://www.w3.org/2000/svg">
<path d="M300.053 393.348C330.449 393.348 355.089 373.967 355.089 350.06C355.089 326.152 330.449 306.772 300.053 306.772C269.657 306.772 245.017 326.152 245.017 350.06C245.017 373.967 269.657 393.348 300.053 393.348Z" fill="#FF4040"/>
<path d="M300.053 347.626C321.115 347.626 339.319 356.939 348.633 370.593C352.761 364.56 355.089 357.574 355.089 350.166C355.089 326.246 330.429 306.878 300.053 306.878C269.677 306.878 245.017 326.246 245.017 350.166C245.017 357.574 247.345 364.454 251.473 370.593C260.681 356.834 278.991 347.626 300.053 347.626Z" fill="black"/>
<path d="M203.634 227.499C207.761 228.239 215.594 230.039 223.743 234.166C224.061 234.378 223.955 234.907 223.531 234.801C221.944 234.59 220.462 234.484 218.769 234.59C202.999 235.119 190.827 248.56 191.674 264.436C192.521 279.36 205.115 291.002 220.039 290.896C235.915 290.684 248.404 277.454 247.769 261.79C247.769 261.79 247.98 224.006 203.528 226.969C203.21 226.758 203.21 227.393 203.634 227.499Z" fill="black"/>
<path d="M227.659 247.185L230.728 252.476L236.761 253.852C237.925 254.17 238.455 255.546 237.608 256.498L233.586 261.049L234.221 267.188C234.327 268.458 233.057 269.305 231.999 268.881L226.389 266.447L220.78 268.881C219.615 269.411 218.345 268.458 218.557 267.188L219.192 261.049L215.17 256.498C214.323 255.546 214.853 254.064 216.017 253.852L222.05 252.476L225.119 247.185C225.437 246.126 227.024 246.126 227.659 247.185Z" fill="white"/>
<path d="M364.085 229.086C368.213 229.827 376.045 231.626 384.195 235.754C384.512 235.966 384.406 236.495 383.983 236.389C382.395 236.177 380.914 236.071 379.22 236.177C363.45 236.707 351.279 250.148 352.126 266.024C352.972 280.947 365.567 292.589 380.49 292.484C396.366 292.272 408.855 279.042 408.22 263.378C408.22 263.378 408.432 225.593 363.979 228.557C363.768 228.451 363.662 229.086 364.085 229.086Z" fill="black"/>
<path d="M388.111 248.878L391.18 254.17L397.213 255.546C398.377 255.863 398.906 257.239 398.06 258.192L394.038 262.743L394.673 268.881C394.779 270.152 393.508 270.998 392.45 270.575L386.841 268.141L381.231 270.575C380.067 271.104 378.797 270.152 379.009 268.881L379.644 262.743L375.622 258.192C374.775 257.239 375.304 255.757 376.468 255.546L382.501 254.17L385.571 248.878C385.994 247.714 387.476 247.714 388.111 248.878Z" fill="white"/>
</svg>
