<svg width="600" height="600" viewBox="0 0 600 600" fill="none" xmlns="http://www.w3.org/2000/svg">
<path d="M280.046 254.145V234.776H270.309L275.283 209.692H255.386L250.305 234.776H234.959L240.039 209.692H220.141L215.061 234.776H194.105V254.145H211.145L207.546 271.926H193.999V291.294H203.63L198.656 315.954H218.448L223.422 291.294H239.086L234.112 315.954H254.01L258.984 291.294H279.94V271.926H262.794L266.393 254.145H280.046ZM262.159 256.156L249.988 264.94C249.141 265.575 248.718 266.739 249.035 267.798L253.692 282.086C254.01 283.25 252.74 284.203 251.787 283.462L239.616 274.677C238.769 274.042 237.499 274.042 236.652 274.677L224.481 283.462C223.528 284.203 222.258 283.25 222.575 282.086L227.232 267.798C227.55 266.739 227.232 265.575 226.28 264.94L214.108 256.156C213.156 255.415 213.685 253.933 214.849 253.933H229.878C230.937 253.933 231.995 253.192 232.313 252.134L236.97 237.846C237.287 236.681 238.981 236.681 239.298 237.846L243.955 252.134C244.272 253.192 245.225 253.933 246.389 253.933H261.418C262.583 253.933 263.112 255.415 262.159 256.156Z" fill="black"/>
<path d="M404.895 254.145V234.776H395.158L400.133 209.692H380.235L375.155 234.776H359.808L364.888 209.692H344.991L339.91 234.776H318.954V254.145H335.994L332.396 271.926H318.848V291.294H328.48L323.505 315.954H343.297L348.272 291.294H363.724L358.75 315.954H378.647L383.622 291.294H404.578V271.926H387.432L391.03 254.145H404.895ZM386.903 256.156L374.731 264.94C373.885 265.575 373.461 266.739 373.779 267.798L378.436 282.086C378.753 283.25 377.483 284.203 376.531 283.462L364.359 274.677C363.512 274.042 362.242 274.042 361.396 274.677L349.224 283.462C348.272 284.203 347.001 283.25 347.319 282.086L351.976 267.798C352.293 266.739 351.976 265.575 351.023 264.94L338.852 256.156C337.899 255.415 338.429 253.933 339.593 253.933H354.728C355.786 253.933 356.844 253.192 357.162 252.134L361.819 237.846C362.136 236.681 363.83 236.681 364.147 237.846L368.804 252.134C369.122 253.192 370.074 253.933 371.239 253.933H386.268C387.432 253.933 387.855 255.415 386.903 256.156Z" fill="black"/>
<path d="M300.053 395.308C311.861 395.308 321.432 382.514 321.432 366.732C321.432 350.949 311.861 338.155 300.053 338.155C288.245 338.155 278.674 350.949 278.674 366.732C278.674 382.514 288.245 395.308 300.053 395.308Z" fill="black"/>
</svg>
