<svg width="600" height="600" viewBox="0 0 600 600" fill="none" xmlns="http://www.w3.org/2000/svg">
<path d="M226.072 350.961H373.928C381.655 350.961 385.253 343.552 379.432 339.636C352.972 321.855 292.856 293.914 220.78 339.53C214.747 343.447 218.24 350.961 226.072 350.961Z" fill="black"/>
<path d="M256.447 260.469C256.447 260.469 251.367 243.641 213.9 250.943C213.9 250.943 176.433 257.717 177.915 278.462C177.915 278.462 178.762 299.1 218.24 289.68C218.24 289.68 264.809 278.885 256.447 260.469Z" fill="black"/>
<path d="M220.356 258.881L221.626 262.268L225.013 263.538C227.448 264.491 227.448 267.878 225.013 268.83L221.626 270.1L220.356 273.487C219.404 275.921 216.017 275.921 215.064 273.487L213.794 270.1L210.407 268.83C207.973 267.878 207.973 264.491 210.407 263.538L213.794 262.268L215.064 258.881C216.017 256.447 219.404 256.447 220.356 258.881Z" fill="white"/>
<path d="M343.553 260.469C343.553 260.469 348.633 243.641 386.1 250.943C386.1 250.943 423.567 257.717 422.085 278.462C422.085 278.462 421.238 299.1 381.76 289.68C381.76 289.68 335.191 278.885 343.553 260.469Z" fill="black"/>
<path d="M379.644 258.881L378.374 262.268L374.987 263.538C372.552 264.491 372.552 267.878 374.987 268.83L378.374 270.1L379.644 273.487C380.596 275.921 383.983 275.921 384.936 273.487L386.206 270.1L389.593 268.83C392.027 267.878 392.027 264.491 389.593 263.538L386.206 262.268L384.936 258.881C384.089 256.447 380.596 256.447 379.644 258.881Z" fill="white"/>
<path d="M226.072 350.961H373.928C381.655 350.961 385.253 343.552 379.432 339.636C352.972 321.855 292.856 293.914 220.78 339.53C214.747 343.447 218.24 350.961 226.072 350.961Z" stroke="black" stroke-width="0.1479" stroke-miterlimit="10"/>
<path d="M256.447 260.469C256.447 260.469 251.367 243.641 213.9 250.943C213.9 250.943 176.433 257.717 177.915 278.462C177.915 278.462 178.762 299.1 218.24 289.68C218.24 289.68 264.809 278.885 256.447 260.469Z" stroke="black" stroke-width="0.1479" stroke-miterlimit="10"/>
<path d="M220.356 258.881L221.626 262.268L225.013 263.538C227.448 264.491 227.448 267.878 225.013 268.83L221.626 270.1L220.356 273.487C219.404 275.921 216.017 275.921 215.064 273.487L213.794 270.1L210.407 268.83C207.973 267.878 207.973 264.491 210.407 263.538L213.794 262.268L215.064 258.881C216.017 256.447 219.404 256.447 220.356 258.881Z" stroke="black" stroke-width="0.1479" stroke-miterlimit="10"/>
<path d="M343.553 260.469C343.553 260.469 348.633 243.641 386.1 250.943C386.1 250.943 423.567 257.717 422.085 278.462C422.085 278.462 421.238 299.1 381.76 289.68C381.76 289.68 335.191 278.885 343.553 260.469Z" stroke="black" stroke-width="0.1479" stroke-miterlimit="10"/>
<path d="M379.644 258.881L378.374 262.268L374.987 263.538C372.552 264.491 372.552 267.878 374.987 268.83L378.374 270.1L379.644 273.487C380.596 275.921 383.983 275.921 384.936 273.487L386.206 270.1L389.593 268.83C392.027 267.878 392.027 264.491 389.593 263.538L386.206 262.268L384.936 258.881C384.089 256.447 380.596 256.447 379.644 258.881Z" stroke="black" stroke-width="0.1479" stroke-miterlimit="10"/>
</svg>
