<svg width="600" height="600" viewBox="0 0 600 600" fill="none" xmlns="http://www.w3.org/2000/svg">
<path d="M300.053 372.765C309.367 372.765 316.775 359.323 316.775 342.706H283.224C283.224 359.323 290.739 372.765 300.053 372.765Z" fill="black"/>
<path d="M219.51 323.338C246.047 323.338 267.56 301.825 267.56 275.287C267.56 248.749 246.047 227.236 219.51 227.236C192.972 227.236 171.459 248.749 171.459 275.287C171.459 301.825 192.972 323.338 219.51 323.338Z" fill="black"/>
<path d="M219.51 318.152C243.183 318.152 262.374 298.961 262.374 275.287C262.374 251.614 243.183 232.422 219.51 232.422C195.836 232.422 176.645 251.614 176.645 275.287C176.645 298.961 195.836 318.152 219.51 318.152Z" fill="white"/>
<path d="M231.046 275.287L248.192 265.444C244.064 253.59 232.845 245.017 219.51 245.017C202.787 245.017 189.134 258.565 189.134 275.393C189.134 292.221 202.681 305.769 219.51 305.769C232.739 305.769 244.064 297.196 248.192 285.342L231.046 275.287Z" fill="black"/>
<path d="M380.49 323.338C407.028 323.338 428.541 301.825 428.541 275.287C428.541 248.749 407.028 227.236 380.49 227.236C353.953 227.236 332.44 248.749 332.44 275.287C332.44 301.825 353.953 323.338 380.49 323.338Z" fill="black"/>
<path d="M380.49 318.152C404.164 318.152 423.355 298.961 423.355 275.287C423.355 251.614 404.164 232.422 380.49 232.422C356.817 232.422 337.626 251.614 337.626 275.287C337.626 298.961 356.817 318.152 380.49 318.152Z" fill="white"/>
<path d="M392.027 275.287L409.173 265.444C405.045 253.59 393.826 245.017 380.49 245.017C363.768 245.017 350.115 258.565 350.115 275.393C350.115 292.221 363.662 305.769 380.49 305.769C393.72 305.769 405.045 297.196 409.173 285.342L392.027 275.287Z" fill="black"/>
</svg>
