<svg width="600" height="600" viewBox="0 0 600 600" fill="none" xmlns="http://www.w3.org/2000/svg">
<path d="M210.937 283.064C229.759 283.064 245.017 272.165 245.017 258.721C245.017 245.277 229.759 234.378 210.937 234.378C192.115 234.378 176.857 245.277 176.857 258.721C176.857 272.165 192.115 283.064 210.937 283.064Z" fill="black"/>
<path d="M226.072 243.586L228.506 249.936L235.385 250.36C236.126 250.36 236.444 251.418 235.915 251.841L230.623 256.181L232.422 262.849C232.634 263.589 231.787 264.224 231.152 263.801L225.437 260.097L219.721 263.801C219.086 264.224 218.24 263.589 218.451 262.849L220.25 256.181L214.959 251.841C214.323 251.312 214.641 250.36 215.488 250.36L222.367 249.936L224.802 243.586C224.802 242.845 225.754 242.845 226.072 243.586Z" fill="white"/>
<path d="M193.262 273.644C195.658 273.644 197.601 271.701 197.601 269.305C197.601 266.908 195.658 264.965 193.262 264.965C190.865 264.965 188.922 266.908 188.922 269.305C188.922 271.701 190.865 273.644 193.262 273.644Z" fill="white"/>
<path d="M389.063 283.064C407.885 283.064 423.143 272.165 423.143 258.721C423.143 245.277 407.885 234.378 389.063 234.378C370.241 234.378 354.983 245.277 354.983 258.721C354.983 272.165 370.241 283.064 389.063 283.064Z" fill="black"/>
<path d="M404.198 243.586L406.633 249.936L413.512 250.36C414.253 250.36 414.57 251.418 414.041 251.841L408.749 256.181L410.549 262.849C410.76 263.589 409.914 264.224 409.279 263.801L403.563 260.097L397.848 263.801C397.213 264.224 396.366 263.589 396.578 262.849L398.377 256.181L393.085 251.841C392.45 251.312 392.768 250.36 393.614 250.36L400.494 249.936L402.928 243.586C402.928 242.845 403.881 242.845 404.198 243.586Z" fill="white"/>
<path d="M371.388 273.644C373.785 273.644 375.728 271.701 375.728 269.305C375.728 266.908 373.785 264.965 371.388 264.965C368.992 264.965 367.049 266.908 367.049 269.305C367.049 271.701 368.992 273.644 371.388 273.644Z" fill="white"/>
<path d="M353.925 326.987C353.925 322.542 351.596 320.319 350.115 323.071C345.246 332.067 336.144 338.206 325.772 338.206C315.717 338.206 306.932 332.49 301.958 324.023C301.535 322.647 300.794 321.907 300.053 321.907C299.312 321.907 298.571 322.647 298.148 324.023C293.173 332.596 284.389 338.206 274.334 338.206C263.962 338.206 254.86 332.173 249.991 323.071C248.509 320.319 246.181 322.542 246.181 326.987V327.093C246.181 343.921 258.776 357.468 274.334 357.468C276.345 357.468 278.356 357.257 280.261 356.833C280.155 357.892 280.049 358.95 280.049 360.009C280.049 374.085 289.046 385.622 300.053 385.622C311.06 385.622 320.056 374.191 320.056 360.009C320.056 358.95 319.951 357.892 319.845 356.833C321.75 357.257 323.761 357.468 325.772 357.468C341.33 357.574 353.925 343.921 353.925 326.987C353.925 327.093 353.925 327.093 353.925 326.987Z" fill="black"/>
</svg>
