<svg width="600" height="600" viewBox="0 0 600 600" fill="none" xmlns="http://www.w3.org/2000/svg">
<path d="M192.415 286.612C214.429 311.801 249.25 317.305 270.206 298.995L190.404 207.974C169.342 226.178 170.295 261.422 192.415 286.612Z" fill="black"/>
<path d="M217.393 247.663L213.688 254.543C213.265 255.284 213.159 256.236 213.477 257.083L216.229 264.386C216.652 265.55 215.382 266.714 214.324 266.079L207.444 262.375C206.703 261.951 205.751 261.846 204.904 262.163L197.601 264.915C196.437 265.338 195.273 264.068 195.908 263.01L199.612 256.13C200.035 255.389 200.141 254.437 199.824 253.59L197.072 246.287C196.648 245.123 197.919 243.959 198.977 244.594L205.856 248.298C206.597 248.722 207.55 248.827 208.397 248.51L215.699 245.758C216.864 245.335 218.028 246.605 217.393 247.663Z" fill="white"/>
<path d="M407.691 286.612C385.676 311.801 350.856 317.305 329.899 298.995L409.702 207.974C430.658 226.178 429.705 261.422 407.691 286.612Z" fill="black"/>
<path d="M382.607 247.663L386.311 254.543C386.735 255.284 386.841 256.236 386.523 257.083L383.771 264.386C383.348 265.55 384.618 266.714 385.676 266.079L392.556 262.375C393.297 261.951 394.249 261.846 395.096 262.163L402.399 264.915C403.563 265.338 404.727 264.068 404.092 263.01L400.388 256.13C399.965 255.389 399.859 254.437 400.176 253.59L402.928 246.287C403.352 245.123 402.081 243.959 401.023 244.594L394.144 248.298C393.403 248.722 392.45 248.827 391.603 248.51L384.301 245.758C383.136 245.335 382.078 246.605 382.607 247.663Z" fill="white"/>
<path d="M288.093 351.279L264.491 392.133H335.509L311.907 351.279C306.615 342.071 293.385 342.071 288.093 351.279Z" fill="black"/>
</svg>
