<svg width="600" height="600" viewBox="0 0 600 600" fill="none" xmlns="http://www.w3.org/2000/svg">
<path d="M212.207 220.886C210.196 220.886 208.291 221.203 206.386 221.838C205.433 222.156 204.375 222.368 203.317 222.579C195.061 223.955 176.328 224.59 167.12 205.222C167.12 205.222 173.47 229.459 192.309 234.327C189.557 239.408 187.97 245.652 187.97 252.32C187.97 269.677 198.765 283.648 212.101 283.648C225.437 283.648 236.232 269.572 236.232 252.32C236.232 235.068 225.543 220.886 212.207 220.886Z" fill="black"/>
<path d="M212.948 261.422C217.215 261.422 220.674 257.963 220.674 253.696C220.674 249.429 217.215 245.97 212.948 245.97C208.681 245.97 205.222 249.429 205.222 253.696C205.222 257.963 208.681 261.422 212.948 261.422Z" fill="#8DC406"/>
<path d="M218.346 250.521C223.139 250.521 227.024 246.635 227.024 241.842C227.024 237.049 223.139 233.163 218.346 233.163C213.552 233.163 209.667 237.049 209.667 241.842C209.667 246.635 213.552 250.521 218.346 250.521Z" fill="white"/>
<path d="M199.189 271.688C201.936 271.688 204.163 269.461 204.163 266.714C204.163 263.967 201.936 261.74 199.189 261.74C196.441 261.74 194.214 263.967 194.214 266.714C194.214 269.461 196.441 271.688 199.189 271.688Z" fill="white"/>
<path d="M387.793 220.886C389.804 220.886 391.709 221.203 393.615 221.838C394.567 222.156 395.626 222.368 396.684 222.579C404.939 223.955 423.673 224.59 432.881 205.222C432.881 205.222 426.53 229.459 407.691 234.327C410.443 239.408 412.031 245.652 412.031 252.32C412.031 269.677 401.235 283.648 387.899 283.648C374.564 283.648 363.768 269.572 363.768 252.32C363.768 235.068 374.458 220.886 387.793 220.886Z" fill="black"/>
<path d="M386.1 261.422C390.367 261.422 393.826 257.963 393.826 253.696C393.826 249.429 390.367 245.97 386.1 245.97C381.833 245.97 378.374 249.429 378.374 253.696C378.374 257.963 381.833 261.422 386.1 261.422Z" fill="#8DC406"/>
<path d="M381.761 250.521C386.554 250.521 390.439 246.635 390.439 241.842C390.439 237.049 386.554 233.163 381.761 233.163C376.968 233.163 373.082 237.049 373.082 241.842C373.082 246.635 376.968 250.521 381.761 250.521Z" fill="white"/>
<path d="M401.023 271.688C403.771 271.688 405.998 269.461 405.998 266.714C405.998 263.967 403.771 261.74 401.023 261.74C398.276 261.74 396.049 263.967 396.049 266.714C396.049 269.461 398.276 271.688 401.023 271.688Z" fill="white"/>
<path d="M300.053 394.885C336.937 394.885 366.837 375.504 366.837 351.597C366.837 327.689 336.937 308.309 300.053 308.309C263.169 308.309 233.269 327.689 233.269 351.597C233.269 375.504 263.169 394.885 300.053 394.885Z" fill="white"/>
<path d="M355.089 327.042L342.6 339.002C341.224 340.272 338.578 339.954 337.838 338.367L325.984 311.695C318.046 309.473 309.261 308.309 300.053 308.309C290.845 308.309 282.061 309.473 274.017 311.695L262.163 338.261C261.422 339.849 258.776 340.272 257.4 338.896L244.911 327.042C237.502 334.027 233.163 342.389 233.163 351.491C233.163 375.41 263.115 394.779 299.947 394.779C336.779 394.779 366.732 375.41 366.732 351.491C366.837 342.495 362.498 334.027 355.089 327.042Z" fill="black"/>
</svg>
