<svg width="600" height="600" viewBox="0 0 600 600" fill="none" xmlns="http://www.w3.org/2000/svg">
<path d="M223.32 297.089C240.68 297.089 254.754 283.016 254.754 265.655C254.754 248.294 240.68 234.221 223.32 234.221C205.959 234.221 191.886 248.294 191.886 265.655C191.886 283.016 205.959 297.089 223.32 297.089Z" fill="white"/>
<path d="M374.669 297.089C392.03 297.089 406.103 283.016 406.103 265.655C406.103 248.294 392.03 234.221 374.669 234.221C357.309 234.221 343.235 248.294 343.235 265.655C343.235 283.016 357.309 297.089 374.669 297.089Z" fill="white"/>
<path d="M213.159 293.808C212.736 293.596 212.207 293.385 211.678 293.173C211.678 293.173 212.207 293.385 213.159 293.808Z" fill="black"/>
<path d="M232.634 297.195C256.553 294.549 258.882 262.056 258.882 262.056C257.612 266.184 256.13 269.889 254.542 273.17C256.553 267.56 257.717 260.786 256.13 254.224C257.4 255.706 258.776 257.294 260.046 258.987C260.046 258.987 258.458 256.024 255.495 252.002C252.637 243.641 244.805 235.808 227.871 231.046C227.871 231.046 230.623 232.21 234.221 234.538C227.236 231.998 219.086 231.787 210.196 236.761C215.17 233.268 221.415 230.305 229.247 228.082C229.247 228.082 202.999 228.506 193.367 248.403C193.685 246.287 194.108 244.487 194.426 243.111C200.141 234.962 212.101 224.695 235.174 227.976C235.174 227.976 198.13 216.44 189.875 251.896C189.875 251.896 190.721 248.932 193.05 245.122C191.039 250.203 189.981 254.859 189.451 259.093C188.393 250.732 189.24 244.276 189.24 244.276C186.488 259.728 187.864 270.735 191.462 278.462C191.78 280.049 192.203 281.742 192.732 283.436C186.7 275.18 185.747 266.184 185.747 266.184C186.065 278.673 189.981 286.188 195.061 290.739C195.167 291.162 195.273 291.374 195.273 291.374C195.167 291.162 195.167 290.95 195.061 290.739C197.813 293.173 200.882 294.655 203.846 295.607C210.09 298.994 221.309 302.804 232.634 297.195ZM208.291 294.972C207.762 294.549 207.338 294.126 206.809 293.702C210.302 295.29 213.794 296.137 217.075 296.666C213.9 296.454 210.937 295.819 208.291 294.972ZM218.557 297.089C218.769 297.089 218.98 296.983 219.086 296.983C219.298 296.983 219.51 297.089 219.827 297.089C219.404 297.089 218.98 297.089 218.557 297.089ZM245.017 243.746C252.002 251.79 257.188 263.644 250.944 279.732C248.721 283.224 246.287 285.976 243.747 288.199C244.064 287.775 244.382 287.352 244.699 287.034C244.699 287.034 242.053 290.104 236.867 292.856C226.601 297.936 216.652 295.184 213.053 293.808C214.218 294.231 215.382 294.655 216.44 295.078C207.656 292.538 201.729 287.669 197.601 281.848C194.638 276.027 193.262 269.889 192.732 264.173C194.003 256.341 197.389 248.086 204.798 241.1C213.477 235.703 227.977 231.046 245.017 243.746ZM193.473 284.494C193.262 283.436 193.05 282.378 192.838 281.213C195.484 285.976 199.083 289.257 202.999 291.691C204.586 292.961 206.068 293.914 207.232 294.549C200.988 292.326 196.543 288.516 193.473 284.494Z" fill="black"/>
<path d="M222.05 231.046C222.05 231.046 247.451 227.447 258.988 254.648C258.882 254.648 253.696 224.06 222.05 231.046Z" fill="black"/>
<path d="M261.21 254.648C261.21 254.648 264.809 292.432 231.999 299.312C231.999 299.206 269.783 300.37 261.21 254.648Z" fill="black"/>
<path d="M364.826 293.808C364.403 293.596 363.874 293.385 363.345 293.173C363.45 293.173 363.874 293.385 364.826 293.808Z" fill="black"/>
<path d="M384.406 297.195C408.326 294.549 410.654 262.056 410.654 262.056C409.384 266.184 407.903 269.889 406.315 273.17C408.326 267.56 409.49 260.786 407.903 254.224C409.173 255.706 410.549 257.294 411.819 258.987C411.819 258.987 410.231 256.024 407.268 252.002C404.41 243.641 396.578 235.808 379.644 231.046C379.644 231.046 382.396 232.21 385.994 234.538C379.009 231.998 370.859 231.787 361.969 236.761C366.943 233.268 373.188 230.305 381.02 228.082C381.02 228.082 354.772 228.506 345.14 248.403C345.458 246.287 345.881 244.487 346.199 243.111C351.914 234.962 363.874 224.695 386.947 227.976C386.947 227.976 349.903 216.44 341.648 251.896C341.648 251.896 342.494 248.932 344.823 245.122C342.812 250.203 341.753 254.859 341.224 259.093C340.166 250.732 341.013 244.276 341.013 244.276C338.261 259.728 339.637 270.735 343.235 278.462C343.553 280.049 343.976 281.742 344.505 283.436C338.472 275.18 337.52 266.184 337.52 266.184C337.837 278.673 341.753 286.188 346.834 290.739C346.94 291.162 347.045 291.374 347.045 291.374C346.94 291.162 346.94 290.95 346.834 290.739C349.586 293.173 352.655 294.655 355.618 295.607C361.863 298.994 373.082 302.804 384.406 297.195ZM360.064 294.972C359.534 294.549 359.111 294.126 358.582 293.702C362.074 295.29 365.567 296.137 368.848 296.666C365.673 296.454 362.71 295.819 360.064 294.972ZM370.33 297.089C370.542 297.089 370.753 296.983 370.859 296.983C371.071 296.983 371.282 297.089 371.6 297.089C371.177 297.089 370.753 297.089 370.33 297.089ZM396.79 243.746C403.775 251.79 408.961 263.644 402.717 279.732C400.494 283.224 398.06 285.976 395.52 288.199C395.837 287.775 396.155 287.352 396.472 287.034C396.472 287.034 393.826 290.104 388.64 292.856C378.374 297.936 368.425 295.184 364.826 293.808C365.991 294.231 367.155 294.655 368.213 295.078C359.428 292.538 353.502 287.669 349.374 281.848C346.41 276.027 345.034 269.889 344.505 264.173C345.775 256.341 349.162 248.086 356.571 241.1C365.25 235.703 379.75 231.046 396.79 243.746ZM345.14 284.494C344.929 283.436 344.717 282.378 344.505 281.213C347.151 285.976 350.75 289.257 354.666 291.691C356.253 292.961 357.735 293.914 358.899 294.549C352.761 292.326 348.315 288.516 345.14 284.494Z" fill="black"/>
<path d="M373.717 231.046C373.717 231.046 399.118 227.447 410.654 254.648C410.654 254.648 405.468 224.06 373.717 231.046Z" fill="black"/>
<path d="M412.983 254.648C412.983 254.648 416.581 292.432 383.771 299.312C383.666 299.206 421.556 300.37 412.983 254.648Z" fill="black"/>
<path d="M337.202 381.019H262.904C260.787 381.019 259.199 379.114 259.517 376.997L267.137 334.239C267.455 332.651 268.831 331.381 270.524 331.381H329.688C331.381 331.381 332.757 332.545 333.075 334.239L340.695 376.997C340.907 379.114 339.319 381.019 337.202 381.019Z" fill="black"/>
</svg>
