<svg fill="#D9D9D9" stroke="black" stroke-width="1" stroke-miterlimit="10" width="600" height="600" viewBox="0 0 600 600" fill="none" xmlns="http://www.w3.org/2000/svg">
    <path d="M510.575 257.189C503.007 253.114 494.192 252.116 485.876 253.946C470.492 257.355 430.742 266.17 385.836 276.316C379.849 277.646 373.778 274.569 371.366 268.915C371.283 268.665 371.2 268.416 371.034 268.249C368.373 262.428 370.618 255.526 376.107 252.116C406.127 233.655 438.642 213.531 462.592 198.063C467.997 194.57 472.488 189.747 475.315 183.926C480.97 172.533 484.712 153.24 463.34 131.869C463.34 131.869 442.883 113.158 419.931 119.894C411.699 122.305 404.796 127.877 400.139 135.112C391.574 148.5 369.454 183.261 344.589 222.595C341.263 227.834 334.61 229.913 328.872 227.501C328.789 227.501 328.706 227.418 328.706 227.418C322.802 225.007 319.475 218.77 320.889 212.533C329.122 178.105 337.937 140.434 344.007 112.409C345.338 106.089 345.088 99.5196 343.009 93.3659C338.934 81.391 327.874 65.0918 297.688 65.0918C297.688 65.0918 269.912 66.3392 258.52 87.2953C254.445 94.8627 253.447 103.678 255.276 111.993C258.686 127.461 267.584 167.377 277.729 212.616C279.143 218.77 275.817 224.923 269.996 227.252C269.497 227.418 268.998 227.668 268.499 227.834C262.678 230.329 255.942 228.167 252.615 222.761C234.154 192.741 213.946 160.143 198.479 136.193C194.986 130.787 190.163 126.297 184.342 123.469C172.949 117.815 153.656 114.072 132.284 135.444C132.284 135.444 113.573 155.901 120.309 178.853C122.721 187.086 128.293 193.988 135.527 198.645C148.833 207.127 183.011 228.915 221.847 253.447C227.169 256.857 229.165 263.592 226.67 269.414C226.587 269.58 226.503 269.829 226.42 269.996C224.009 275.817 217.772 279.06 211.701 277.563C177.606 269.414 140.6 260.765 112.908 254.778C106.588 253.447 100.019 253.696 93.8648 255.775C81.8067 259.85 65.5076 270.827 65.5076 301.097C65.5076 301.097 66.755 328.872 87.711 340.265C95.2785 344.34 104.093 345.338 112.409 343.508C127.627 340.099 166.629 331.45 211.036 321.471C217.19 320.057 223.427 323.467 225.755 329.371C225.838 329.704 226.004 329.953 226.088 330.286C228.499 336.107 226.337 342.76 221.015 346.086C191.41 364.215 159.394 384.09 135.777 399.391C130.372 402.884 125.881 407.707 123.054 413.528C117.399 424.921 113.657 444.214 135.029 465.586C135.029 465.586 155.486 484.297 178.438 477.561C186.67 475.149 193.572 469.577 198.229 462.343C206.545 449.287 227.834 415.857 251.95 377.687C255.276 372.364 262.096 370.285 267.833 372.78C268.332 373.03 268.831 373.196 269.33 373.362C275.151 375.774 278.395 382.011 276.898 388.165C268.831 421.927 260.266 458.434 254.362 485.793C253.031 492.113 253.281 498.683 255.36 504.837C259.434 516.895 270.411 533.194 300.681 533.194C300.681 533.194 328.456 531.947 339.849 510.991C343.924 503.423 344.922 494.608 343.092 486.292C339.766 471.074 331.117 432.322 321.138 388.165C319.808 382.094 322.968 375.94 328.706 373.612C329.454 373.279 330.203 373.03 330.951 372.697C336.772 370.119 343.674 372.198 347.001 377.687C365.13 407.125 384.755 438.725 399.89 462.176C403.383 467.582 408.206 472.072 414.027 474.9C425.42 480.554 444.713 484.297 466.085 462.925C466.085 462.925 484.795 442.468 478.059 419.516C475.648 411.283 470.076 404.381 462.841 399.724C449.619 391.325 415.857 369.787 377.271 345.421C372.115 342.178 369.953 335.608 372.281 329.953C372.531 329.371 372.78 328.789 372.947 328.207C375.192 322.136 381.595 318.727 387.832 320.224C421.595 328.29 458.018 336.772 485.461 342.677C491.781 344.007 498.35 343.758 504.504 341.679C516.562 337.604 532.861 326.627 532.861 296.357C532.778 296.357 531.531 268.582 510.575 257.189Z"/>
</svg>
