<svg name="body-bg-9" fill="#D9D9D9" stroke="black" stroke-width="1" stroke-miterlimit="10" width="600" height="600"
  viewBox="0 0 600 600" fill="none" xmlns="http://www.w3.org/2000/svg">
  <path
    d="M319.641 87.2122L332.365 103.844C345.171 120.559 366.959 127.711 387.167 121.64L407.291 115.653C423.59 110.829 440.056 122.721 440.472 139.769L440.97 160.725C441.469 181.764 454.941 200.309 474.816 207.377L494.608 214.362C510.658 220.017 516.895 239.393 507.248 253.364L495.357 270.578C483.382 287.958 483.382 310.827 495.357 328.207L507.248 345.421C516.895 359.392 510.575 378.768 494.608 384.423L474.816 391.408C454.941 398.393 441.469 416.938 440.97 438.06L440.472 459.016C440.056 475.981 423.59 487.956 407.291 483.132L387.167 477.145C366.959 471.157 345.171 478.226 332.365 494.941L319.641 511.573C309.33 525.045 288.956 525.045 278.644 511.573L265.921 494.941C253.114 478.226 231.327 471.074 211.119 477.145L190.994 483.132C174.695 487.956 158.23 476.064 157.814 459.016L157.315 438.06C156.816 417.021 143.344 398.476 123.469 391.408L103.677 384.423C87.6277 378.768 81.3908 359.392 91.0372 345.421L102.929 328.207C114.904 310.827 114.904 287.958 102.929 270.578L91.0372 253.364C81.3908 239.393 87.7109 220.017 103.677 214.362L123.469 207.377C143.344 200.392 156.816 181.847 157.315 160.725L157.814 139.769C158.23 122.804 174.695 110.829 190.994 115.653L211.119 121.64C231.327 127.628 253.114 120.559 265.921 103.844L278.644 87.2122C288.956 73.7405 309.33 73.7405 319.641 87.2122Z" />
</svg>