<svg name="body-bg-2" fill="#D9D9D9" stroke="black" stroke-width="1" stroke-miterlimit="10" width="600" height="600"
  viewBox="0 0 600 600" fill="none" xmlns="http://www.w3.org/2000/svg">
  <path
    d="M525.793 298.935H454.276C452.031 298.935 450.95 296.191 452.613 294.611C453.195 294.029 453.86 293.53 454.442 292.948C454.442 292.948 532.612 226.503 462.758 138.854C461.844 137.69 460.097 137.606 459.099 138.688L409.038 188.749C407.458 190.329 404.713 189.165 404.88 186.92C404.88 186.338 404.963 185.756 404.963 185.173C404.963 185.173 413.279 82.971 301.929 70.3308C300.515 70.1645 299.184 71.3287 299.184 72.7424V142.929C299.184 145.174 296.44 146.255 294.943 144.592C294.444 144.01 293.945 143.511 293.447 142.929C293.447 142.929 227.002 64.7592 139.353 134.613C138.189 135.527 138.105 137.274 139.186 138.272L189.914 188.999C191.494 190.579 190.329 193.323 188.084 193.157C187.086 193.074 186.088 193.074 185.173 193.074C185.173 193.074 82.971 184.758 70.3308 296.108C70.1645 297.521 71.3287 298.852 72.7424 298.852H142.929C145.174 298.852 146.172 301.596 144.592 303.093C144.592 303.093 144.592 303.093 144.509 303.176C144.509 303.176 66.3392 369.62 136.193 457.27C137.108 458.434 138.854 458.517 139.852 457.436L189.914 407.374C191.494 405.794 194.238 406.959 194.071 409.204C193.988 410.368 193.988 411.449 193.905 412.613C193.905 412.613 185.589 514.816 296.939 527.456C298.353 527.622 299.683 526.458 299.683 525.044V454.027C299.683 451.781 302.428 450.7 303.925 452.363C304.424 452.946 305.006 453.528 305.505 454.11C305.505 454.11 371.949 532.279 459.598 462.426C460.762 461.511 460.846 459.765 459.765 458.767L409.869 408.871C408.289 407.291 409.453 404.547 411.699 404.713C412.281 404.713 412.863 404.796 413.445 404.796C413.445 404.796 515.647 413.112 528.288 301.762C528.454 300.266 527.29 298.935 525.793 298.935Z" />
</svg>