<svg fill="#D9D9D9" stroke="#231F20" stroke-width="1" stroke-miterlimit="10" width="600" height="600" viewBox="0 0 600 600" fill="none" xmlns="http://www.w3.org/2000/svg">
    <path d="M482.006 363.921L451.575 300.331L482.171 236.41C485.562 238.89 489.779 240.379 494.327 240.379C505.738 240.379 515 231.117 515 219.706C515 208.294 505.738 199.033 494.327 199.033C483.825 199.033 475.225 206.806 473.819 216.894L407.252 193.41L383.519 126.263C387.819 125.685 391.954 123.7 395.179 120.392C403.283 112.288 403.283 99.2231 395.179 91.1192C387.075 83.0154 374.01 83.0154 365.906 91.1192C358.463 98.5615 357.885 110.387 364.252 118.49L300.248 149.087L236.079 118.408C238.808 114.852 240.462 110.469 240.462 105.673C240.462 94.2615 231.2 85 219.788 85C208.377 85 199.115 94.2615 199.115 105.673C199.115 116.258 207.054 124.94 217.308 126.181L193.575 193.492L126.512 217.142C126.015 212.594 124.031 208.129 120.558 204.656C112.454 196.552 99.3885 196.552 91.2846 204.656C83.1808 212.76 83.1808 225.825 91.2846 233.929C98.6442 241.288 110.221 241.95 118.325 235.831L149.252 300.413L118.738 364.169C115.183 361.275 110.635 359.538 105.673 359.538C94.2615 359.538 85 368.8 85 380.212C85 391.623 94.2615 400.885 105.673 400.885C115.927 400.885 124.527 393.36 126.098 383.519L193.575 407.335L216.977 473.654C212.512 474.15 208.212 476.135 204.738 479.525C196.635 487.629 196.635 500.694 204.738 508.798C212.842 516.902 225.908 516.902 234.012 508.798C241.206 501.604 241.95 490.44 236.327 482.337L300.496 451.658L363.756 481.923C361.11 485.396 359.621 489.696 359.621 494.41C359.621 505.821 368.883 515.083 380.294 515.083C391.706 515.083 400.967 505.821 400.967 494.41C400.967 484.238 393.608 475.721 383.85 474.067L407.335 407.417L473.737 384.015C474.398 388.233 476.3 392.202 479.525 395.427C487.629 403.531 500.694 403.531 508.798 395.427C516.902 387.323 516.902 374.258 508.798 366.154C501.521 358.712 490.11 358.05 482.006 363.921Z"/>
</svg>
