<svg name="body-bg-5" fill="#D9D9D9" stroke="black" stroke-width="1" stroke-miterlimit="10" width="600" height="600"
  viewBox="0 0 600 600" fill="none" xmlns="http://www.w3.org/2000/svg">
  <path
    d="M488.787 242.969C485.71 240.64 484.463 236.649 485.627 232.907C508.163 160.808 455.773 149.332 455.773 149.332C424.588 141.348 402.138 160.724 389.249 175.194C399.561 158.895 412.034 129.872 395.236 101.848C395.236 101.848 369.207 54.863 306.589 96.9415C303.346 99.1036 299.188 99.0205 296.111 96.7752C281.142 85.7982 236.319 59.1873 204.968 106.089C204.968 106.089 184.927 137.773 208.627 174.529C195.571 160.142 170.454 141.515 139.769 149.415C139.769 149.415 87.3784 160.974 109.914 232.99C111.079 236.649 109.831 240.64 106.754 243.052C91.7858 254.195 53.4495 289.621 89.5405 332.947C89.5405 332.947 108.833 354.901 142.18 351.658C125.964 360.556 108.251 376.106 106.006 402.218C106.006 402.218 99.6028 455.523 175.111 458.018C178.936 458.184 182.346 460.679 183.51 464.338C189.248 481.968 210.038 529.867 262.844 510.076C262.844 510.076 291.534 498.516 298.436 463.673C305.421 498.516 334.028 510.076 334.028 510.076C386.834 529.867 407.624 482.051 413.362 464.338C414.526 460.679 417.936 458.184 421.761 458.018C497.186 455.523 490.866 402.218 490.866 402.218C488.704 376.273 471.157 360.722 455.024 351.824C487.207 354.069 505.668 332.947 505.668 332.947C541.842 289.621 503.506 254.195 488.787 242.969Z" />
</svg>