<svg name="body-bg-7" fill="#D9D9D9" stroke="black" stroke-width="1" stroke-miterlimit="10" width="600" height="600"
  viewBox="0 0 600 600" fill="none" xmlns="http://www.w3.org/2000/svg">
  <path
    d="M532.446 299.184C532.446 278.228 486.542 259.933 418.102 249.871C459.432 194.404 478.891 148.999 464.089 134.197C449.286 119.395 403.882 138.854 348.415 180.184C338.436 111.744 320.141 65.9233 299.184 65.9233C278.228 65.9233 259.933 111.827 249.871 180.267C194.404 138.854 148.999 119.395 134.197 134.197C119.395 148.999 138.854 194.404 180.184 249.871C111.744 259.85 65.9233 278.228 65.9233 299.184C65.9233 320.141 111.827 338.435 180.267 348.498C138.854 403.882 119.395 449.286 134.197 464.089C148.999 478.891 194.404 459.432 249.871 418.102C259.85 486.542 278.145 532.446 299.184 532.446C320.224 532.446 338.435 486.542 348.498 418.102C403.965 459.432 449.37 478.891 464.172 464.089C478.974 449.286 459.515 403.882 418.185 348.415C486.542 338.436 532.446 320.141 532.446 299.184Z" />
</svg>