<svg width="600" height="600" viewBox="0 0 600 600" fill="none" xmlns="http://www.w3.org/2000/svg">
<path d="M299.184 70.4971L333.945 124.135L386.668 87.8773L398.31 150.829L460.846 137.44L447.54 200.059L510.408 211.618L474.151 264.341L527.872 299.184L474.151 333.945L510.408 386.668L447.54 398.31L460.846 460.846L398.31 447.54L386.668 510.408L333.945 474.151L299.184 527.872L264.341 474.151L211.618 510.408L200.059 447.54L137.44 460.846L150.829 398.31L87.8773 386.668L124.135 333.945L70.4971 299.184L124.135 264.341L87.8773 211.618L150.829 200.059L137.44 137.44L200.059 150.829L211.618 87.8773L264.341 124.135L299.184 70.4971Z" fill="#D9D9D9" stroke="black" stroke-width="0.75" stroke-miterlimit="10"/>
</svg>
