<svg name="body-bg-9" fill="#D9D9D9" stroke="black" stroke-width="1" stroke-miterlimit="10" width="600" height="600"
  viewBox="0 0 600 600" fill="none" xmlns="http://www.w3.org/2000/svg">
  <path
    d="M302.261 70.6635L305.588 91.7858C312.573 136.359 369.038 151.494 397.395 116.401L410.784 99.7691C413.029 97.0249 417.353 99.5196 416.106 102.846L408.455 122.721C392.239 164.799 433.57 206.13 475.648 189.914L495.523 182.263C498.849 181.015 501.344 185.34 498.6 187.585L481.968 200.974C446.875 229.248 462.01 285.796 506.583 292.781L527.706 296.108C531.198 296.69 531.198 301.679 527.706 302.261L506.583 305.588C462.01 312.573 446.875 369.038 481.968 397.395L498.6 410.784C501.344 413.029 498.849 417.353 495.523 416.106L475.648 408.455C433.57 392.239 392.239 433.57 408.455 475.648L416.106 495.523C417.353 498.849 413.029 501.344 410.784 498.6L397.395 481.968C369.121 446.875 312.573 462.01 305.588 506.583L302.261 527.706C301.679 531.198 296.69 531.198 296.108 527.706L292.781 506.583C285.796 462.01 229.331 446.875 200.974 481.968L187.585 498.6C185.34 501.344 181.015 498.849 182.263 495.523L189.914 475.648C206.13 433.57 164.799 392.239 122.721 408.455L102.846 416.106C99.5196 417.353 97.0249 413.029 99.7691 410.784L116.401 397.395C151.494 369.121 136.359 312.573 91.7858 305.588L70.6635 302.261C67.1708 301.679 67.1708 296.69 70.6635 296.108L91.7858 292.781C136.359 285.796 151.494 229.331 116.401 200.974L99.7691 187.585C97.0249 185.34 99.5196 181.015 102.846 182.263L122.721 189.914C164.799 206.13 206.13 164.799 189.914 122.721L182.263 102.846C181.015 99.5196 185.34 97.0249 187.585 99.7691L200.974 116.401C229.248 151.494 285.796 136.359 292.781 91.7858L296.108 70.6635C296.607 67.1708 301.679 67.1708 302.261 70.6635Z" />
</svg>