<svg name="body-core-1" fill="#D9D9D9" stroke="black" stroke-width="1" stroke-miterlimit="10" width="226" height="226"
  viewBox="0 0 226 226" xmlns="http://www.w3.org/2000/svg">
  <path
    d="M113 4.44099L135.393 0.5L154.561 12.682L176.774 17.697L189.672 36.328L208.303 49.226L213.318 71.439L225.5 90.607L221.559 113L225.5 135.393L213.318 154.561L208.303 176.774L189.672 189.672L176.774 208.303L154.561 213.318L135.393 225.5L113 221.559L90.607 225.5L71.439 213.318L49.226 208.303L36.328 189.672L17.697 176.774L12.682 154.561L0.5 135.393L4.44099 113L0.5 90.607L12.682 71.439L17.697 49.226L36.328 36.328L49.226 17.697L71.439 12.682L90.607 0.5L113 4.44099Z" />
</svg>